<svg width="191" height="190" viewBox="0 0 191 190" fill="none" xmlns="http://www.w3.org/2000/svg">
<g clip-path="url(#clip0_1729_30989)">
<path d="M95.3203 190C147.787 190 190.32 147.467 190.32 95C190.32 42.5329 147.787 0 95.3203 0C42.8533 0 0.320312 42.5329 0.320312 95C0.320312 147.467 42.8533 190 95.3203 190Z" fill="#3396EF"/>
<path d="M34.9142 98.5771L31.249 118.831C31.249 118.831 48.3273 140.157 59.8691 137.636C64.1889 136.687 67.1376 130.007 68.983 121.068C68.3902 110.341 66.0911 111.464 66.0911 111.464L34.9142 98.5771Z" fill="#D69E7C" stroke="#1D1D1B" stroke-miterlimit="10"/>
<path d="M54.1532 121.368L49.5137 127.446L49.5858 127.59L49.7456 127.9L60.4888 136.091L67.5358 124.75L65.9222 121.389L54.1532 121.368Z" fill="#F0C099"/>
<path d="M146.565 167.808C139.659 169.235 132.636 170.024 125.585 170.163H121.378L120.115 170.133C114.046 169.975 108.005 169.245 102.073 167.952L101.15 167.735C99.2019 167.271 98.0575 166.9 97.8358 166.828H94.6037C82.5824 167.168 74.2005 169.818 69.69 174.705C68.5931 175.893 67.7074 177.26 67.0713 178.747C80.6659 183.49 95.1931 184.936 109.456 182.964C123.719 180.992 137.309 175.66 149.107 167.405L148.808 167.447C148.055 167.576 147.308 167.684 146.565 167.808Z" fill="#0A606E"/>
<path d="M60.7938 135.73L39.4679 124.59L15.8223 133.353C15.8635 133.431 16.1109 134.235 16.147 134.312C26.346 154.236 43.5237 169.707 64.4022 177.773L64.6651 177.871L63.1599 134.132L60.7938 135.73Z" fill="#3375BA"/>
<path d="M19.1621 121.296L21.1047 117.065L11.7285 124.245C12.7595 127.111 14.3473 130.379 15.6567 133.122L19.1466 121.322L19.1621 121.296Z" fill="#3375BA"/>
<path d="M108.388 150.416C107.156 150.394 105.944 150.098 104.841 149.55C104.148 149.174 103.486 148.743 102.861 148.261C102.511 148.009 102.155 147.746 101.789 147.509C100.526 146.695 99.1304 146.107 97.6653 145.772C94.8577 145.171 92.138 144.215 89.5721 142.926C87.2217 141.715 85.1033 140.099 83.314 138.153C81.8038 136.477 80.5307 134.602 79.5303 132.58L79.4891 132.492L79.5149 132.395C79.7314 131.626 79.9118 130.956 80.0613 130.333V130.26C80.0404 129.657 79.9888 129.055 79.9066 128.456V128.327L74.4218 125.234L63.5449 133.9L64.5759 163.963L65.0605 177.373L65.0911 178.079L65.9766 178.433L66.865 178.728C67.512 177.209 68.3705 175.818 69.4937 174.608C74.3857 169.304 83.7934 166.613 97.4591 166.613H97.7323L97.8406 166.474C98.1447 166.082 99.253 164.881 102.996 162.231L103.212 162.082L103.289 161.999C103.32 161.943 106.774 156.112 108.398 151.535C108.491 151.267 108.578 151.019 108.661 150.756L108.764 150.432L108.388 150.416Z" fill="#3375BA"/>
<path d="M60.793 135.729L65.0665 132.332L68.1853 129.848L71.5361 127.177L73.8971 125.296L74.3198 124.961H74.4539L79.8254 128.054L79.7584 127.538C79.6244 126.471 79.4491 125.296 79.2739 124.162C79.0419 122.615 78.7584 120.661 78.5006 118.584L78.4233 117.929C78.3614 117.383 78.3047 116.826 78.248 116.259V116.12L72.5774 113.114L72.4589 113.176C71.7937 113.526 71.0793 113.773 70.3401 113.908C69.9587 113.975 69.5514 114.032 69.0617 114.083L68.5462 114.135L69.6133 121.553C69.6184 121.579 69.6184 121.605 69.6133 121.63L60.793 135.729Z" fill="#3375BA" stroke="#1D1D1B" stroke-linecap="round" stroke-linejoin="round"/>
<path d="M39.5042 124.203C39.5334 124.205 39.5565 124.188 39.5813 124.203L60.7989 135.73L37.4368 119.079C37.4201 119.069 37.4056 119.055 37.3941 119.039C37.3826 119.024 37.3744 119.005 37.3698 118.986L33.2015 105.949L22.7505 111.733L15.8223 132.869L16.2398 133.714L39.4369 124.224C39.4547 124.205 39.4369 124.224 39.5042 124.203Z" fill="#3375BA" stroke="#1D1D1B" stroke-linecap="round" stroke-linejoin="round"/>
<path d="M59.2779 163.261C55.2158 163.184 51.2051 164.138 47.2976 165.251C46.0552 165.607 44.8025 165.988 43.5859 166.452C50.0864 171.162 57.1723 175.006 64.665 177.886L64.2423 163.653C62.5991 163.403 60.94 163.272 59.2779 163.261Z" fill="#2D68A6"/>
<path d="M98.1136 166.587C98.4693 166.133 99.0724 165.36 102.753 162.736L103.006 161.865C103.006 161.865 106.459 156.05 108.094 151.441C106.652 150.671 105.169 149.982 103.65 149.379C100.918 148.307 97.861 147.497 95.0774 148.441C92.2937 149.384 90.3709 151.89 88.6182 154.256C85.9789 157.837 83.3362 161.418 80.69 164.999C80.2354 165.766 79.5623 166.38 78.7569 166.762C78.0187 166.958 77.2423 166.958 76.5042 166.762C72.571 165.999 68.447 164.7 64.5293 163.937L64.952 177.321L66.9109 178.747C67.5346 177.176 68.4297 175.726 69.5553 174.464C74.5505 169.051 84.3448 166.566 98.1136 166.587Z" fill="#2D68A6"/>
<path d="M161.397 139.018C157.273 142.951 152.03 145.91 146.215 148.297C142.494 149.893 138.558 150.935 134.534 151.39C134.39 149.735 134.019 147.838 134.653 145.549C136.236 139.998 140.839 144.549 141.659 138.848C143.968 123.177 142.519 107.228 141.066 91.4537L125.761 63.4934C128.627 57.823 132.802 51.6835 139.133 51.1216C143.437 50.7505 147.468 53.1836 150.901 55.7611C155.889 59.6738 159.883 64.7071 162.562 70.4526C165.505 76.6024 166.242 83.0461 168.098 89.5258C169.753 95.2735 171.088 101.145 171.526 107.125C172.341 118.378 169.804 131.028 161.397 139.018Z" fill="#EDAF5F" stroke="#1D1D1B" stroke-miterlimit="10"/>
<path d="M151.241 145.559L151.576 145.76C149.828 146.683 148.044 147.544 146.214 148.292C142.414 149.842 138.423 150.874 134.348 151.359C134.11 149.972 134.765 148.621 134.806 148.168C134.884 147.291 158.736 94.5566 158.736 94.5566L163.731 108.599C165.056 112.278 165.448 116.228 164.873 120.096C164.298 123.964 162.774 127.629 160.437 130.765L160.283 130.966C156.86 135.565 153.835 140.447 151.241 145.559Z" fill="#B5772F"/>
<path d="M112.765 135.615C112.765 135.615 135.73 142.471 134.652 146.802C131.467 159.633 141.312 163.927 141.312 163.927C141.312 163.927 105.393 167.669 102.573 162.721C107.61 157.591 112.765 135.615 112.765 135.615Z" fill="#D3A78D" stroke="#1D1D1B" stroke-miterlimit="10"/>
<path d="M115.976 161.35C116.811 159.009 119.131 157.03 121.26 155.875C122.541 155.166 124.035 154.943 125.467 155.246C126.778 155.477 128.048 155.901 129.235 156.504C131.813 157.824 133.694 160.339 133.792 163.278C133.854 165.113 131.519 165.422 130.658 164.231L130.426 164.386C130.993 165.386 130.514 167.03 128.993 167.082C126.174 167.181 123.353 166.988 120.575 166.505C119.281 166.278 117.729 166.108 116.755 165.133C116.284 164.639 115.961 164.022 115.824 163.353C115.686 162.684 115.739 161.99 115.976 161.35Z" fill="#F9C4A8"/>
<path d="M161.397 139.018C157.273 142.951 152.03 145.91 146.215 148.297C142.494 149.893 138.558 150.935 134.534 151.39C134.39 149.735 134.019 147.838 134.653 145.549C136.236 139.998 140.839 144.549 141.659 138.848C143.968 123.177 142.519 107.228 141.066 91.4537L125.761 63.4934C128.627 57.823 132.802 51.6835 139.133 51.1216C143.437 50.7505 147.468 53.1836 150.901 55.7611C155.889 59.6738 159.883 64.7071 162.562 70.4526C165.505 76.6024 166.242 83.0461 168.098 89.5258C169.753 95.2735 171.088 101.145 171.526 107.125C172.341 118.378 169.804 131.028 161.397 139.018Z" stroke="#1D1D1B" stroke-miterlimit="10"/>
<path d="M99.4548 120.425C99.4548 120.425 99.5424 132.523 107.857 138.632C113.296 142.627 122.698 146.328 127.833 148.653C132.122 150.591 135.256 151.199 141.143 146.715C151.153 139.09 158.087 128.471 158.051 118.971C157.962 116.919 157.435 114.91 156.504 113.079C156.504 113.079 165.381 103.217 154.649 84.536C145.818 69.1743 139.606 63.5967 136.173 63.5967H130.266C130.266 63.5967 112.146 73.6385 107.388 86.3247C102.63 99.011 96.4237 108.063 99.4548 120.425Z" fill="#F9C4A8" stroke="#1D1D1B" stroke-miterlimit="10"/>
<path d="M107.136 85.9279C107.884 83.9788 108.867 82.1282 110.064 80.4173C111.61 79.1698 113.224 77.9584 114.827 76.7676C114.995 76.6533 115.185 76.5759 115.385 76.5403C115.585 76.5048 115.79 76.512 115.987 76.5614C116.977 75.5339 118.051 74.5907 119.198 73.7417C119.946 73.1901 121.121 73.618 121.559 74.3603C121.78 74.7582 121.839 75.2262 121.723 75.6662C121.606 76.1063 121.324 76.4843 120.936 76.7212C117.374 79.3399 114.564 86.6341 115.234 92.3561C122.544 91.887 126.256 91.1705 127.441 93.717C130.833 101.011 125.627 108.125 125.493 109.934C120.683 116.888 110.265 106.584 106.538 114.574C104.11 119.796 109.332 133.358 110.837 135.57C113.626 139.668 118.175 142.33 121.943 145.547C116.366 143.304 111.162 140.797 107.605 138.183C99.2896 132.08 99.202 119.976 99.202 119.976C96.1656 107.661 102.388 98.6142 107.136 85.9279Z" fill="#D3A78D"/>
<path d="M141.875 125.074C141.875 125.074 139.539 124.244 138.168 124.311C136.268 124.478 134.419 125.019 132.729 125.904C132.729 125.904 137.57 126.657 138.4 126.42C139.23 126.183 141.875 125.074 141.875 125.074Z" fill="#D3A78D"/>
<path d="M140.431 117.584C141.133 118.344 141.731 119.193 142.21 120.11C142.743 121.043 143.041 122.092 143.076 123.167C143.064 123.458 143.006 123.745 142.905 124.017C142.803 124.286 142.657 124.535 142.472 124.755C142.126 125.187 141.69 125.538 141.194 125.786C140.252 126.246 139.216 126.481 138.168 126.471C139.14 126.231 140.072 125.847 140.931 125.332C141.74 124.817 142.4 124.048 142.39 123.157C142.393 122.684 142.325 122.213 142.189 121.76C142.058 121.283 141.898 120.814 141.709 120.357C141.333 119.419 140.89 118.507 140.431 117.584Z" fill="#1D1D1B"/>
<path d="M139.451 116.187C139.571 117.533 139.791 118.868 140.111 120.182C140.261 120.836 140.25 121.548 140.41 122.177C140.487 122.491 140.771 123.661 141.204 123.919C141.467 123.945 141.658 123.636 141.719 123.455C141.799 123.264 141.844 123.059 141.853 122.852C141.862 122.5 141.803 122.15 141.678 121.821C141.456 121.171 141.018 120.61 140.766 119.991C140.206 118.768 139.766 117.494 139.451 116.187Z" fill="#FBCFB7"/>
<path d="M127.679 93.2369C127.696 93.0591 127.677 92.8796 127.623 92.7094C127.569 92.5392 127.48 92.3818 127.363 92.2471C127.246 92.1124 127.102 92.0031 126.941 91.926C126.78 91.8489 126.604 91.8055 126.426 91.7987C123.549 91.4636 116.734 90.7213 115.6 91.0873C114.131 91.5512 109.455 95.9794 109.043 98.1497C115.059 94.0257 114.714 93.8452 116.214 93.7112C117.714 93.5772 126.735 94.5515 127.307 94.1236C127.536 93.8838 127.668 93.5681 127.679 93.2369Z" fill="#1D1D1B"/>
<path d="M143.148 108.403C143.148 108.403 141.792 103.697 143.03 101.186C144.267 98.6756 151.175 98.124 151.175 98.124C151.175 98.124 158.392 100.882 159.505 103.094C160.247 104.578 158.113 110.001 158.113 110.001L155.902 112.955C155.902 112.955 157.896 115.474 157.515 120.495C155.641 113.192 152.886 112.208 149.375 112.888C145.483 113.641 146.2 113.527 146.2 113.527C146.2 113.527 144.653 112.192 144.653 111.981C144.653 111.769 143.148 108.403 143.148 108.403Z" fill="#D3A78D"/>
<path d="M142.931 100.789C142.848 100.479 142.871 100.15 142.997 99.8556C143.123 99.5608 143.345 99.3174 143.627 99.1648C145.561 98.3657 150.149 96.5151 150.984 96.6903C152.04 96.9069 157.025 99.2988 157.556 101.376C152.963 98.3193 151.922 99.2627 150.855 99.3761C149.788 99.4895 143.736 101.928 143.292 101.603C143.092 101.374 142.967 101.09 142.931 100.789Z" fill="#1D1D1B"/>
<path d="M100.248 103.501C97.7478 117.466 104.449 135.06 113.243 144.411C114.036 146.135 114.365 148.036 114.197 149.927C110.975 150.267 107.542 151.293 104.496 149.726C103.451 149.105 102.441 148.428 101.47 147.7C100.177 146.865 98.7483 146.265 97.2477 145.926C94.4567 145.329 91.7528 144.38 89.2009 143.101C86.8783 141.902 84.7845 140.304 83.015 138.38C81.5259 136.717 80.2671 134.862 79.2725 132.864C79.4839 132.137 79.6746 131.42 79.8447 130.724C79.3911 120.966 71.4113 99.496 89.1855 69.1438C106.573 39.4515 127.595 54.0296 127.595 54.0296L132.58 72.6853C110.496 81.3868 114.305 94.1606 100.248 103.501Z" fill="#EDAF5F"/>
<path d="M146.519 53.5344C146.519 53.5344 134.404 44.1215 126.894 52.756C129.847 62.1792 132.564 72.6695 132.564 72.6695C132.564 72.6695 149.395 71.788 156.143 88.0002" fill="#EDAF5F"/>
<path d="M146.518 53.5343C145.029 52.5103 143.442 51.6365 141.781 50.9259C140.139 50.2077 138.403 49.7269 136.626 49.498C134.874 49.248 133.088 49.4248 131.419 50.0135C129.776 50.634 128.323 51.6715 127.202 53.0239L127.285 52.6373C127.828 54.2766 128.343 55.9244 128.831 57.5809C129.347 59.2304 129.862 60.8852 130.311 62.5451C131.265 65.87 132.192 69.1949 133.053 72.5404L132.538 72.1641C135.085 72.1372 137.623 72.4846 140.069 73.1951C142.513 73.888 144.839 74.9408 146.972 76.319C149.096 77.7123 150.977 79.4451 152.54 81.4481C154.055 83.4444 155.271 85.6518 156.148 88.0001C155.114 85.7409 153.779 83.6323 152.179 81.7317C151.367 80.8042 150.492 79.9344 149.56 79.1284C148.619 78.3376 147.622 77.6173 146.575 76.9737C144.472 75.7063 142.2 74.7414 139.827 74.1075C138.641 73.7904 137.436 73.5527 136.219 73.3962C135.015 73.223 133.8 73.1489 132.584 73.1745H132.172L132.069 72.7879L130.739 67.8031L129.362 62.8183L127.96 57.8386L126.506 52.8796L126.439 52.6579L126.589 52.493C127.819 51.0637 129.405 49.9858 131.187 49.3691C132.964 48.7961 134.852 48.6599 136.693 48.9722C138.498 49.2849 140.25 49.8543 141.894 50.663C143.539 51.4429 145.09 52.4061 146.518 53.5343Z" fill="#1D1D1B"/>
<path d="M109.698 104.052C109.698 104.052 120.008 98.4228 126.333 107.243C126.08 111.713 122.915 114.28 120.797 113.738L113.322 111.826C113.322 111.826 108.239 110.625 109.698 104.052Z" fill="white"/>
<path d="M124.555 108.811C123.684 111.697 120.462 113.45 117.338 112.734C114.214 112.017 112.42 109.094 113.291 106.212C114.162 103.331 117.199 102.181 120.307 102.898C123.416 103.614 125.442 105.929 124.555 108.811Z" fill="url(#paint0_radial_1729_30989)" stroke="#1D1D1B" stroke-miterlimit="10"/>
<path d="M110.12 112.115C110.12 112.115 118.58 109.022 124.039 115.404C114.806 117.213 110.12 112.115 110.12 112.115Z" fill="#F9C4A8"/>
<path d="M122.234 108.679C123.277 106.623 122.708 104.237 120.961 103.351C119.214 102.464 116.952 103.413 115.908 105.469C114.865 107.525 115.435 109.911 117.181 110.798C118.928 111.684 121.19 110.736 122.234 108.679Z" fill="#1D1D1B"/>
<path d="M121.827 108.151C122.795 108.151 123.58 107.463 123.58 106.614C123.58 105.766 122.795 105.078 121.827 105.078C120.859 105.078 120.074 105.766 120.074 106.614C120.074 107.463 120.859 108.151 121.827 108.151Z" fill="white"/>
<path d="M115.837 109.037C116.219 109.037 116.528 108.767 116.528 108.434C116.528 108.101 116.219 107.831 115.837 107.831C115.456 107.831 115.146 108.101 115.146 108.434C115.146 108.767 115.456 109.037 115.837 109.037Z" fill="white"/>
<path d="M127.292 112.733C127.292 112.733 129.045 106.671 123.833 103.186C117.503 99.1084 107.61 103.81 107.61 103.81C108.075 106.015 109.059 108.078 110.482 109.826C109.399 107.181 109.641 105.975 109.641 105.975C109.641 105.975 117.828 101.078 123.101 105.104C127.566 108.511 127.292 112.733 127.292 112.733Z" fill="#1D1D1B"/>
<path d="M122.333 113.811C121.467 113.476 120.637 113.11 119.755 112.852C118.901 112.574 118.03 112.352 117.147 112.187C115.364 111.848 113.554 111.675 111.739 111.671C112.633 111.403 113.559 111.263 114.492 111.254C115.428 111.234 116.363 111.315 117.281 111.496C117.74 111.579 118.193 111.713 118.642 111.836C119.087 111.984 119.524 112.156 119.951 112.352C120.811 112.721 121.613 113.212 122.333 113.811Z" fill="#1D1D1B"/>
<path d="M155.582 105.619C155.582 105.619 148.973 98.7683 142.622 106.65C141.983 111.084 143.859 113.682 145.535 113.419C147.21 113.156 151.541 112.642 151.541 112.642C151.541 112.642 155.448 112.275 155.582 105.619Z" fill="white"/>
<path d="M143.627 108.408C143.741 111.357 145.808 113.496 148.267 113.187C150.726 112.878 152.597 110.233 152.489 107.284C152.381 104.336 150.329 102.82 147.89 103.129C145.452 103.439 143.534 105.459 143.627 108.408Z" fill="url(#paint1_radial_1729_30989)" stroke="#1D1D1B" stroke-miterlimit="10"/>
<path d="M153.765 114.873C153.765 114.873 150.581 109.148 142.635 114.646C149.171 117.605 153.765 114.873 153.765 114.873Z" fill="#F9C4A8"/>
<path d="M150.783 107.492C150.864 105.242 149.704 103.373 148.19 103.318C146.676 103.263 145.383 105.043 145.301 107.293C145.22 109.544 146.38 111.413 147.894 111.468C149.408 111.523 150.701 109.743 150.783 107.492Z" fill="#1D1D1B"/>
<path d="M152.933 107.31C153.13 106.482 152.712 105.673 152 105.504C151.288 105.335 150.552 105.869 150.355 106.698C150.158 107.526 150.576 108.334 151.288 108.503C152 108.672 152.736 108.138 152.933 107.31Z" fill="white"/>
<path d="M140.896 111.919C140.896 111.919 140.715 105.733 145.236 102.965C150.7 99.7584 157.18 105.645 157.18 105.645C156.459 107.687 155.357 109.572 153.933 111.203C155.221 108.738 155.268 107.522 155.268 107.522C155.268 107.522 150.113 101.655 145.422 104.944C143.072 106.601 141.452 109.099 140.896 111.919Z" fill="#1D1D1B"/>
<path d="M144.271 113.66C144.841 113.205 145.477 112.842 146.158 112.582C147.534 112.049 149.031 111.906 150.483 112.17C151.21 112.285 151.909 112.534 152.545 112.902C151.849 112.769 151.145 112.682 150.437 112.644C149.05 112.568 147.66 112.7 146.313 113.036C145.622 113.191 144.962 113.454 144.271 113.66Z" fill="#1D1D1B"/>
<path d="M147.055 111.201C147.351 111.201 147.591 110.931 147.591 110.598C147.591 110.265 147.351 109.995 147.055 109.995C146.759 109.995 146.519 110.265 146.519 110.598C146.519 110.931 146.759 111.201 147.055 111.201Z" fill="white"/>
<path d="M122.858 79.102L123.028 78.968C123.085 78.9216 123.142 78.8752 123.203 78.8339C127.507 76.0631 132.594 74.7642 137.7 75.1326C143.262 75.5089 152.572 78.2514 153.412 84.8757C153.592 85.9706 153.449 87.0941 153.003 88.1098C152.556 89.1255 151.825 89.9898 150.896 90.5978C149.273 91.6288 147.288 92.1443 145.453 92.6598C143.443 93.2593 141.363 93.5887 139.267 93.6393C136.901 93.6585 134.545 93.3462 132.266 92.7114C130.204 92.1959 128.328 91.0772 126.353 90.2266C124.669 89.5928 123.111 88.6622 121.755 87.479C120.26 86.0562 119.064 83.9168 120.116 81.9012C120.734 80.7155 121.812 79.901 122.858 79.102Z" fill="#FBCFB7"/>
<path d="M114.894 129.08C115.162 128.049 115.533 126.977 116.379 126.296C117.229 125.647 118.229 125.22 119.286 125.054C120.345 124.895 121.419 124.852 122.487 124.925C122.807 124.925 125.452 125.039 125.493 124.925C125.256 125.637 124.338 125.796 123.714 125.956C122.879 126.188 122.018 126.26 121.194 126.544C119.698 127.062 118.341 127.917 117.229 129.044C116.694 129.609 116.21 130.22 115.781 130.869C115.551 131.21 115.344 131.567 115.162 131.936C115.049 132.312 114.907 132.679 114.739 133.034C114.466 133.117 114.337 132.709 114.353 132.426C114.424 131.296 114.606 130.175 114.894 129.08Z" fill="#FBCFB7"/>
<path d="M135.559 140.214L139.616 138.369C139.616 138.369 139.565 138.472 139.488 138.652C139.307 139.049 139.013 139.848 138.735 140.626C138.528 141.212 138.152 141.722 137.654 142.094C137.157 142.466 136.561 142.682 135.941 142.714C135.044 142.756 134.003 142.797 133.075 142.797C132.265 142.794 131.475 142.546 130.809 142.086C130.143 141.626 129.632 140.975 129.342 140.219L128.61 138.343L135.559 140.214Z" fill="#D3A78D"/>
<path d="M145.221 131.058C143.159 131.007 137.958 130.924 137.19 131.347C136.585 131.681 136.01 132.067 135.473 132.502C135.473 132.502 134.251 131.352 133.638 131.264C132.607 131.125 124.874 130.579 122.266 130.233C129.558 133.312 137.727 133.606 145.221 131.058Z" fill="#E05074"/>
<path d="M145.623 131.966L144.417 133.224C143.535 134.158 142.593 135.032 141.597 135.843C139.411 137.575 137.313 138.42 135.205 138.42H134.968C130.988 138.302 126.673 135.75 122.137 130.853C123.791 134.224 128.06 140.56 134.952 140.369C141.205 140.214 144.489 134.461 145.623 131.966Z" fill="#E05074"/>
<path d="M146.51 130.718C146.51 130.718 146.454 130.486 146.144 130.604C145.835 130.723 145.531 130.826 145.222 130.934C137.725 133.477 129.557 133.178 122.266 130.094L122.06 130.001L121.07 129.486C121.276 129.259 121.519 129.032 121.792 128.748C121.529 128.706 121.26 128.744 121.019 128.857C120.772 128.963 120.553 129.125 120.379 129.331C120.203 129.542 120.087 129.796 120.044 130.068C119.996 130.333 120.036 130.606 120.158 130.846C120.297 130.609 120.385 130.403 120.503 130.223C120.606 130.041 120.725 129.868 120.859 129.707L120.936 129.62L121.689 130.455L122.137 130.939C126.674 135.837 130.989 138.388 134.968 138.507H135.205C137.314 138.507 139.412 137.661 141.598 135.929C142.595 135.119 143.537 134.242 144.417 133.305L145.624 132.053C146.675 130.97 146.634 130.898 146.51 130.718Z" fill="#1D1D1B"/>
<path d="M134.988 137.92C136.345 137.939 137.685 137.618 138.885 136.987C138.983 136.642 139.086 136.281 139.19 135.91C138.094 136.171 136.96 136.228 135.844 136.08C137.062 136.048 138.26 135.773 139.37 135.27C139.602 134.43 139.839 133.595 140.035 132.873C134.346 133.752 128.527 133.152 123.137 131.131C127.354 135.528 131.333 137.807 134.988 137.92Z" fill="white"/>
<path d="M133.889 148.452C135.625 148.452 137.033 147.674 137.033 146.715C137.033 145.755 135.625 144.978 133.889 144.978C132.152 144.978 130.744 145.755 130.744 146.715C130.744 147.674 132.152 148.452 133.889 148.452Z" fill="#FBCFB7"/>
<path d="M122.667 66.0699L100.439 68.8175L100.274 61.085C100.274 61.085 94.3506 68.0237 94.3506 69.8486C94.4349 71.3214 94.7104 72.777 95.1702 74.1788L122.667 66.0699Z" fill="#FEE5C6"/>
<path d="M129.787 64.772C124.859 61.3129 120.317 61.6789 120.317 61.6789C120.317 61.6789 125.302 58.8591 128.437 60.1324C125.225 57.1786 118.425 54.9774 111.997 55.0341C117.152 53.0648 122.627 52.2967 127.545 54.7299L132.432 71.8447C132.432 71.8447 129.37 65.5607 117.735 69.3136C123.008 66.2463 124.849 63.8905 129.787 64.772Z" fill="#B5772F"/>
<path d="M104.498 149.725C103.454 149.104 102.443 148.428 101.472 147.699C100.927 147.351 100.356 147.044 99.7653 146.782C94.8267 141.173 86.6354 133.858 84.6867 128.976C81.5937 121.244 86.4549 111.532 89.0479 106.413C91.6409 101.295 94.3525 86.2422 94.3525 86.2422C94.6364 91.5858 94.6364 96.9407 94.3525 102.284C93.837 109.393 87.7849 112.857 89.0479 122.62C90.7491 133.714 106.384 137.394 109.668 140.029C112.952 142.663 113.792 145.885 114.246 148.462C114.321 148.95 114.342 149.444 114.308 149.936C114.246 149.926 107.544 151.292 104.498 149.725Z" fill="#B5772F"/>
<path d="M80.5874 118.521C81.9277 123.924 82.768 126.986 82.1339 132.249C81.9623 133.614 81.6936 134.964 81.3297 136.29C80.532 135.218 79.8414 134.07 79.2677 132.862C79.7058 130.713 79.4893 127.883 79.2213 125.687L77.9067 114.892C76.2468 82.6638 88.6602 70.0446 96.6814 59.3945C79.3037 85.8857 78.7212 110.98 80.5874 118.521Z" fill="#B5772F"/>
<path d="M91.336 90.5874L84.82 102.284C84.82 102.284 86.882 85.2262 87.6914 83.0146C84.3509 91.4174 81.5929 104.764 82.361 111.522C86.9542 103.851 91.336 90.5874 91.336 90.5874Z" fill="#FEE5C6"/>
<path d="M101.166 95.2018C104.104 92.4026 104.475 87.9332 106.017 84.1803C107.426 80.7413 109.879 77.8315 113.03 75.8614C116.181 73.8913 119.871 72.9604 123.58 73.2L120.265 75.0146L119.75 74.4682C117.061 75.7038 114.732 77.6039 112.981 79.9892C111.399 82.144 110.342 84.6288 109.228 87.0517C108.115 89.4745 106.903 91.9129 105.104 93.8718C103.305 95.8307 100.769 97.2896 98.0986 97.2638C99.208 96.7156 100.24 96.0222 101.166 95.2018Z" fill="#FEE5C6"/>
<path d="M142.564 114.785C142.967 114.641 143.214 114.831 143.642 114.965C147.168 116.089 151.4 114.403 154.498 116.424C154.799 116.592 155.042 116.847 155.194 117.156C155.483 117.857 154.921 118.625 154.287 119.048C152.338 120.347 149.23 119.77 147.204 118.894C145.498 118.162 143.183 116.615 142.564 114.785Z" fill="#F7B9A1"/>
<path d="M108.26 116.12C108.688 114.408 110.796 113.465 112.487 113.975L113.688 114.295C119.384 115.841 125.838 112.872 131.308 114.81C130.679 115.115 129.978 115.326 129.334 115.615C125.895 117.161 122.957 119.785 119.348 120.878C117.119 121.548 114.749 121.6 112.492 121.027C111.311 120.778 110.218 120.217 109.327 119.404C108.885 118.992 108.555 118.474 108.369 117.9C108.182 117.325 108.145 116.713 108.26 116.12Z" fill="#F7B9A1"/>
<path d="M92.5566 117.27C92.5566 117.27 97.4333 137.06 102.501 139.436C107.568 141.813 109.434 140.952 109.434 140.952V139.488L103.625 128.415C103.625 128.415 92.9639 119.594 92.5566 117.27Z" fill="#B5772F"/>
<path d="M105.115 75.958C104.347 76.6161 103.646 77.3482 103.022 78.1437C102.42 78.9073 101.864 79.706 101.357 80.5357C100.841 81.3605 100.382 82.2369 99.8979 83.1132C99.6608 83.5566 99.4391 84.0102 99.1762 84.4587C98.9441 84.9298 98.6859 85.3876 98.4029 85.8299C98.384 85.2967 98.4013 84.7628 98.4545 84.2319C98.5369 83.7164 98.6297 83.2009 98.7638 82.6854C99.0487 81.6487 99.4791 80.6577 100.042 79.7418C100.609 78.8115 101.329 77.9836 102.171 77.2932C103.005 76.5772 104.027 76.114 105.115 75.958Z" fill="#B5772F"/>
<path d="M127.693 55.5552C127.693 55.5552 131.029 51.4776 136.359 52.2715C141.689 53.0653 146.721 57.6018 146.721 57.6018C146.721 57.6018 136.354 52.2715 132.575 56.2202C137.637 56.6842 145.437 61.1072 145.437 61.1072L130.013 63.5971L127.693 55.5552Z" fill="#B5772F"/>
<path d="M147.911 62.0026C154.942 64.5182 161.396 68.9102 165.814 74.9415C170.216 81.0572 172.203 88.5847 171.391 96.0766C170.118 108.036 156.282 113.088 156.282 113.088C156.798 112.444 157.633 110.382 157.978 109.624C161.483 101.819 159.427 93.128 154.225 86.3132C149.024 79.4984 142.694 74.9724 134.508 72.5084C134.055 72.4167 133.634 72.2048 133.291 71.8949C133.044 71.5466 132.868 71.1522 132.776 70.7351C131.472 67.1266 131.229 66.6936 130.327 62.946C134.271 55.7239 142.225 59.9664 147.911 62.0026Z" fill="#EDAF5F"/>
<path d="M99.7636 113.284C99.7636 113.284 98.6759 106.191 100.996 103.681C100.374 103.86 99.795 104.165 99.2943 104.575C98.7936 104.985 98.3815 105.493 98.083 106.067C98.083 106.067 97.4232 100.34 99.7636 98.7627C95.2632 101.067 95.124 103.892 95.124 103.892L99.4904 113.573L99.7636 113.284Z" fill="#B5772F"/>
<path d="M139.503 61.5591C140.184 61.2704 170.068 68.4514 167.985 92.3451C165.712 86.4632 164.856 77.4521 154.881 72.6837C159.124 75.8283 159.675 78.9677 159.675 78.9677C159.675 78.9677 144.158 65.5955 134.132 65.3429C141.38 65.3429 146.504 67.4049 146.184 67.1575C145.865 66.91 139.503 61.5591 139.503 61.5591Z" fill="#FEE5C6"/>
<path d="M131.838 68.2207C131.838 68.2207 182.048 76.3964 156.283 113.069C158.938 106.594 160.995 104.145 158.649 95.0263C157.794 91.7014 156.015 88.7373 153.907 86.0258C143.54 72.6797 132.704 72.5096 132.704 72.5096L131.838 68.2207Z" fill="#B5772F"/>
<path d="M147.91 62.0027C154.942 64.5183 161.396 68.9103 165.813 74.9415C170.216 81.0573 172.203 88.5848 171.391 96.0767C170.118 108.036 156.282 113.088 156.282 113.088C156.797 112.444 157.632 110.382 157.978 109.624C161.483 101.819 159.426 93.1281 154.225 86.3133C149.024 79.4985 144.575 75.6426 136.41 73.1167C133.023 72.0857 132.889 73.0084 132.58 72.6682C132.27 72.328 132.064 70.6578 131.976 70.2454C131.079 66.4978 130.915 67.3432 130.018 63.5955C134.27 54.5383 142.224 59.9665 147.91 62.0027Z" stroke="#1D1D1B" stroke-linecap="round" stroke-linejoin="round"/>
<path d="M132.58 72.6696L127.022 53.2041" stroke="#1D1D1B" stroke-linecap="round" stroke-linejoin="round"/>
<path d="M154.226 86.304C149.02 79.5147 144.576 75.6433 136.41 73.1173C133.023 72.0863 133.199 72.6688 132.58 72.6688" stroke="#1D1D1B" stroke-linecap="round" stroke-linejoin="round"/>
<path d="M99.8104 107.46C99.0681 119.925 104.599 134.235 111.961 142.947C113.373 144.575 114.18 146.642 114.244 148.797C114.244 149.179 114.244 149.555 114.203 149.926C110.981 150.267 107.548 151.292 104.501 149.725C103.457 149.105 102.447 148.428 101.475 147.699C100.183 146.865 98.7542 146.265 97.2536 145.926C94.4625 145.329 91.7586 144.38 89.2068 143.101C86.8842 141.902 84.7904 140.303 83.0209 138.379C81.5318 136.717 80.273 134.862 79.2784 132.864C79.4898 132.137 79.6805 131.42 79.8506 130.724C79.397 120.966 71.4172 99.4958 89.1913 69.1436C106.579 39.4513 126.92 52.7561 126.92 52.7561L132.591 72.6696C111.971 80.8092 113.925 92.4851 102.831 101.599C101.952 102.316 101.229 103.206 100.71 104.215C100.19 105.223 99.8838 106.328 99.8104 107.46V107.46Z" stroke="#1D1D1B" stroke-miterlimit="10"/>
<path d="M99.4238 147.168C98.2846 146.08 97.202 144.967 96.1349 143.828C95.0678 142.688 94.0265 141.539 93.0109 140.358C90.9764 138.008 89.0398 135.58 87.2012 133.074C89.1773 135.48 91.2393 137.793 93.3872 140.013C94.4595 141.126 95.5627 142.214 96.6813 143.286C97.8 144.359 98.9392 145.405 100.104 146.379L99.4238 147.168Z" fill="#1D1D1B"/>
<path d="M114.084 150.143C113.489 149.931 112.918 149.66 112.378 149.333C111.853 149.019 111.347 148.674 110.862 148.302C109.906 147.571 109.014 146.759 108.197 145.874C107.386 145 106.635 144.072 105.949 143.096C105.604 142.611 105.289 142.106 104.959 141.611L104.062 140.064L105.068 141.523C105.434 141.992 105.774 142.472 106.155 142.926C106.896 143.839 107.699 144.7 108.558 145.503C109.409 146.299 110.327 147.022 111.3 147.663C111.785 147.975 112.288 148.259 112.805 148.514C113.3 148.766 113.818 148.968 114.352 149.117L114.084 150.143Z" fill="#1D1D1B"/>
<path d="M99.9845 114.197C99.9845 114.197 94.2315 99.8556 93.1077 100.99C91.9839 102.124 89.958 110.655 92.2571 117.043C94.5563 123.43 98.8247 127.409 101.124 127.683C102.449 127.966 102.835 126.554 102.835 126.554C101.389 122.565 100.432 118.416 99.9845 114.197Z" fill="#F9C4A8" stroke="#1D1D1B" stroke-miterlimit="10"/>
<path d="M94.8663 102.938C94.8663 102.938 92.2063 108.253 93.1497 112.64C94.0931 117.027 96.4386 123.11 101.712 123.466C100.099 117.171 99.9853 114.186 99.9853 114.186L94.7581 102.742" fill="#D3A78D"/>
<path d="M97.3248 108.542C97.108 108.693 96.9076 108.865 96.7268 109.058C96.5338 109.269 96.3612 109.499 96.2113 109.743C95.8935 110.242 95.6584 110.788 95.5154 111.362C95.3758 111.958 95.3186 112.57 95.3453 113.182C95.3453 113.491 95.402 113.8 95.4277 114.115C95.4535 114.429 95.5515 114.728 95.6133 115.037C95.5051 114.744 95.3865 114.45 95.2834 114.146C95.1803 113.842 95.0978 113.532 95.0463 113.218C94.9196 112.576 94.878 111.921 94.9225 111.269C94.9895 110.596 95.1635 109.938 95.438 109.321C95.7177 108.664 96.1281 108.071 96.6443 107.578L97.3248 108.542Z" fill="#1D1D1B"/>
<path d="M97.2324 120.471C97.8188 121.14 98.5342 121.683 99.3357 122.069C99.7152 122.251 100.117 122.381 100.532 122.455C100.929 122.522 101.333 122.533 101.733 122.486V123.677C101.229 123.63 100.735 123.507 100.269 123.311C99.8205 123.124 99.3993 122.878 99.0161 122.579C98.2855 122.004 97.6788 121.287 97.2324 120.471Z" fill="#1D1D1B"/>
<path d="M99.7736 114.295C99.7736 114.295 94.2319 99.8607 93.103 100.99C91.974 102.119 89.9532 110.655 92.2524 117.043C94.5516 123.43 98.8199 127.409 101.119 127.683C102.444 127.966 102.831 126.554 102.831 126.554C101.242 122.631 100.213 118.504 99.7736 114.295Z" stroke="#1D1D1B" stroke-linecap="round" stroke-linejoin="round"/>
<path d="M168.542 111.918C168.735 114.125 168.668 116.346 168.341 118.537C168.196 119.64 167.985 120.728 167.738 121.811C167.624 122.326 167.469 122.888 167.31 123.419C167.15 123.95 167.016 124.491 166.825 125.017C166.118 127.134 165.174 129.164 164.01 131.069C162.853 132.971 161.408 134.682 159.727 136.142C160.918 134.319 161.995 132.426 162.954 130.471C163.873 128.532 164.677 126.541 165.361 124.507C165.557 123.991 165.696 123.476 165.877 122.96L166.114 122.187L166.33 121.414C166.655 120.383 166.892 119.352 167.17 118.284C167.671 116.212 168.124 114.088 168.542 111.918Z" fill="#FEE5C6"/>
<path d="M33.3991 97.6854C33.3991 97.6854 19.9396 80.8958 18.4138 68.9622C16.8879 57.0286 16.4704 55.0903 16.4704 55.0903V46.4868L13.8311 43.435L17.5787 41.2391L13.8311 32.8881C13.8311 32.8881 29.002 23.0577 43.2966 20.841C57.5912 18.6244 76.9427 21.4648 76.9427 21.4648C76.9427 21.4648 97.7789 33.584 92.5054 55.4872C87.2319 77.3905 88.3454 78.3854 88.3454 78.3854L33.3991 97.6854Z" fill="#38261A" stroke="#1D1D1B" stroke-miterlimit="10"/>
<path d="M82.2009 40.337C82.2009 40.337 87.9486 54.879 88.9023 57.4204C89.8559 59.9618 87.5775 68.8849 87.5775 68.8849C87.5775 68.8849 87.4383 84.4579 87.4383 86.9581C87.4383 89.4582 84.1752 103.139 73.386 112.733C67.6795 115.784 59.5708 113.846 59.5708 113.846C59.5708 113.846 38.8893 104.284 34.4818 99.3041C30.0743 94.3244 28.2959 81.2258 28.2959 81.2258C28.2959 81.2258 27.6412 67.3539 27.4917 66.3642C27.234 64.3022 29.4867 46.7755 32.7498 44.0485C45.235 33.6768 71.324 28.6817 82.2009 40.337Z" fill="#F0C099"/>
<path d="M64.2405 59.7969C61.1785 57.7349 57.9309 53.5079 57.9309 53.5079L45.2137 56.441C45.2137 56.441 39.3062 47.8529 43.1363 46.3941C47.1004 45.0693 52.8379 40.0381 52.8379 40.0381L35.1926 42.3423C35.1926 42.3423 30.4243 43.0382 28.718 55.1575L27.0117 67.2973C27.0117 67.2973 28.3984 86.9582 30.8985 92.3141C33.3987 97.6701 31.2903 99.1444 50.58 109.413C43.0229 100.748 41.1774 85.3344 46.5746 84.5405C51.9718 83.7466 58.3742 86.4375 62.8745 80.8857C67.3747 75.3338 66.1943 68.0705 72.3699 69.4005C74.7411 77.3597 78.1485 84.6642 83.1591 85.1333C88.1697 85.6024 87.4377 84.5405 87.4377 84.5405C87.4377 84.5405 87.4789 70.5707 87.5666 68.8747C87.6542 67.1787 88.5975 58.9979 88.5975 58.9979L80.1692 56.4204L74.1071 60.0598C74.1071 60.0598 68.9521 62.9517 64.2405 59.7969Z" fill="#D69E7C"/>
<path d="M75.3089 88.1502C75.3089 88.1502 72.8499 87.2739 71.4014 87.346C69.3985 87.5193 67.4499 88.0888 65.6689 89.0214C65.6689 89.0214 70.7467 89.7225 71.6385 89.573C74.5924 89.0936 75.3089 88.1502 75.3089 88.1502Z" fill="#D69E7C"/>
<path d="M82.2002 40.337C82.2002 40.337 87.9479 54.879 88.9015 57.4204C89.8552 59.9618 87.5767 68.8849 87.5767 68.8849C87.5767 68.8849 87.4376 84.4579 87.4376 86.9581C87.4376 89.2417 84.7054 100.876 75.9833 110.186C74.2874 111.99 72.2821 113.758 69.849 114.192C67.8561 114.484 65.8381 114.567 63.828 114.439C61.4269 114.28 59.081 113.648 56.9256 112.578C51.2036 109.82 37.9349 103.181 34.5017 99.3041C30.0942 94.3193 28.3158 81.2258 28.3158 81.2258C28.3158 81.2258 26.8776 69.4107 27.0219 65.8023C27.2075 61.1989 29.4963 46.7548 32.7593 44.0485C45.2342 33.6768 71.3233 28.6817 82.2002 40.337Z" stroke="#1D1D1B" stroke-miterlimit="10"/>
<path d="M74.7005 66.0862C74.684 66.101 74.67 66.1184 74.6592 66.1377C73.9667 67.2366 73.5887 68.5043 73.5664 69.803C73.5664 69.9782 73.5406 70.1587 73.5303 70.3442C73.8765 69.3942 74.4014 68.5193 75.0768 67.7667C75.5626 67.1381 76.2005 66.6434 76.9303 66.3294C77.6601 66.0153 78.4578 65.8922 79.2483 65.9716C80.0389 66.051 80.7962 66.3304 81.4489 66.7833C82.1017 67.2362 82.6284 67.8479 82.9795 68.5606C83.8873 70.1712 84.2575 72.0296 84.0363 73.8651C83.9227 75.0041 83.5993 76.1122 83.0826 77.1335C83.372 77.017 83.6457 76.8646 83.8971 76.6798C84.7298 75.9914 85.2712 75.0135 85.4127 73.9425C85.191 70.4164 83.0568 60.9208 74.7005 66.0862Z" fill="white"/>
<path d="M85.4331 74.5865C85.4331 74.4113 85.4331 74.1947 85.4331 73.9525C85.2916 75.0235 84.7501 76.0014 83.9175 76.6898C83.6661 76.8745 83.3924 77.0269 83.103 77.1434L82.9793 77.3703C82.6675 77.4782 82.3466 77.5576 82.0204 77.6074C81.1643 77.7194 80.2966 77.7108 79.4429 77.5816H79.2882C78.2572 77.4321 77.386 77.1795 76.489 77.1022C75.8929 77.0465 75.2916 77.0918 74.7105 77.2362L74.3188 76.1691C74.1435 76.2877 73.9528 75.3185 73.9476 75.1072C73.9533 74.5601 73.8517 74.0171 73.6486 73.5091C73.4799 73.0486 73.396 72.5613 73.4012 72.0709C73.4012 71.6636 73.4012 71.2512 73.4012 70.8336C73.4527 70.6738 73.5094 70.5192 73.5661 70.3645C73.6228 70.2099 73.5661 69.9985 73.6022 69.8232C73.6246 68.5246 74.0025 67.2569 74.6951 66.158C74.7059 66.1387 74.7198 66.1212 74.7363 66.1065L74.4012 66.3075C74.4012 66.3075 74.4631 66.1065 74.5817 65.792C73.8499 66.8077 73.4161 68.0074 73.329 69.2562C73.2508 70.0423 73.2215 70.8326 73.2414 71.6224C73.2245 72.2981 73.3186 72.972 73.5197 73.6174C73.6276 73.9005 73.7054 74.1943 73.7517 74.4937C73.7929 74.7979 73.7826 75.1123 73.8393 75.4165C73.8703 75.6072 73.9527 76.2104 74.2105 76.3238C74.3291 76.6485 74.4476 76.9733 74.5714 77.3032C74.5806 77.3306 74.5978 77.3545 74.6208 77.372C74.6437 77.3894 74.6714 77.3996 74.7002 77.4012H74.7776C76.4993 76.9836 78.1799 77.6589 79.8862 77.8291C81.2884 77.9631 82.8246 77.8961 84.0103 77.061C85.5929 75.9526 86.0104 73.9679 85.8816 72.0348C85.7857 72.8939 85.6359 73.7462 85.4331 74.5865Z" fill="#1D1D1B"/>
<path d="M74.0713 74.7928C74.079 75.0247 74.1048 75.2557 74.1486 75.4836C74.1682 75.592 74.1958 75.6989 74.2311 75.8032C74.2311 75.8496 74.2672 75.896 74.2827 75.9372C74.279 75.9525 74.279 75.9684 74.2827 75.9836C74.3143 75.9869 74.3444 75.9987 74.3698 76.0178C74.3953 76.0368 74.415 76.0625 74.427 76.0919C74.5404 76.4064 74.6538 76.7208 74.7724 77.0353C75.281 76.932 75.8014 76.8991 76.3189 76.9373C75.8518 76.3954 75.5055 75.7602 75.3028 75.074C75.1002 74.3878 75.0459 73.6664 75.1436 72.9576C75.175 72.6568 75.2284 72.3588 75.3034 72.0658C74.9737 71.7943 74.7403 71.4237 74.638 71.0091C74.5357 70.5944 74.5698 70.1578 74.7354 69.7642C74.901 69.3705 75.1892 69.0407 75.5571 68.8238C75.925 68.607 76.3531 68.5146 76.7777 68.5604C77.1364 68.5987 77.4773 68.7362 77.7623 68.9573C78.1454 68.8062 78.5587 68.7479 78.9686 68.7872C80.8193 68.9779 82.1132 71.1585 81.8554 73.6484C81.8101 74.4077 81.5891 75.146 81.2098 75.8053C80.8305 76.4646 80.3033 77.0268 79.6697 77.4477C80.4832 77.5688 81.3101 77.5688 82.1235 77.4477C82.7933 76.3511 83.2073 75.1177 83.3349 73.8391C83.5425 72.154 83.2046 70.4467 82.371 68.9676C82.0566 68.3664 81.6037 67.8486 81.0498 67.4569C80.4959 67.0652 79.8567 66.8109 79.1851 66.7148C79.0614 66.7148 78.9377 66.7148 78.814 66.7148C78.1985 66.738 77.5947 66.8899 77.0416 67.1607C76.4884 67.4315 75.9981 67.8152 75.6024 68.2871C74.4876 69.5671 73.8088 71.1685 73.6641 72.8597C73.6641 72.9267 73.6641 72.9937 73.6641 73.0607C73.7001 73.2102 73.7414 73.3597 73.7878 73.5041C73.9385 73.9193 74.0339 74.3526 74.0713 74.7928Z" fill="white"/>
<path d="M74.0714 74.7927C74.0791 75.0246 74.1049 75.2556 74.1487 75.4834C74.1683 75.5919 74.1959 75.6987 74.2312 75.8031C74.2312 75.8494 74.2673 75.8958 74.2828 75.9371C74.2791 75.9523 74.2791 75.9682 74.2828 75.9835C74.3144 75.9867 74.3445 75.9985 74.3699 76.0176C74.3954 76.0367 74.4151 76.0623 74.4271 76.0917C74.5405 76.4062 74.6539 76.7207 74.7725 77.0351C75.288 76.9269 79.8451 78.1383 82.3917 77.5506C83.0671 76.4959 83.484 75.2966 83.6083 74.0503C83.72 72.2623 83.281 70.4829 82.3504 68.952C82.036 68.3508 81.5832 67.833 81.0293 67.4413C80.4753 67.0496 79.8362 66.7953 79.1646 66.6992C79.0409 66.6992 78.9172 66.6992 78.7935 66.6992C78.178 66.7224 77.5742 66.8742 77.021 67.145C76.4679 67.4159 75.9776 67.7996 75.5819 68.2715C74.4671 69.5515 73.7883 71.1528 73.6436 72.844C73.6436 72.9111 73.6436 72.9781 73.6436 73.0451C73.6796 73.1946 73.7209 73.3441 73.7673 73.4884C73.9264 73.9077 74.0287 74.3463 74.0714 74.7927Z" fill="url(#paint2_radial_1729_30989)"/>
<path d="M74.2422 75.9937C74.2608 75.9891 74.2803 75.9891 74.2989 75.9937C74.2805 75.9878 74.2606 75.9878 74.2422 75.9937Z" fill="white"/>
<path d="M74.2422 75.9937C74.2608 75.9891 74.2803 75.9891 74.2989 75.9937C74.2805 75.9878 74.2606 75.9878 74.2422 75.9937Z" fill="url(#paint3_radial_1729_30989)"/>
<path d="M74.2422 75.9937C74.2606 75.9878 74.2805 75.9878 74.2989 75.9937C74.2803 75.9891 74.2608 75.9891 74.2422 75.9937Z" fill="#1D1D1B"/>
<path d="M82.9792 68.5605C82.6298 67.8449 82.1036 67.2303 81.4504 66.7749C80.7972 66.3194 80.0386 66.0381 79.2464 65.9576C78.4541 65.8771 77.6545 66 76.923 66.3147C76.1915 66.6295 75.5524 67.1257 75.0662 67.7563C74.3908 68.5089 73.8659 69.3838 73.5197 70.3338C73.463 70.4885 73.4063 70.6431 73.3547 70.8029C73.3547 71.2205 73.3547 71.6329 73.3547 72.0402C73.3496 72.5306 73.4334 73.0179 73.6022 73.4784C73.6022 73.3186 73.6022 73.1537 73.6331 72.9938C73.6331 72.9268 73.6331 72.8598 73.6331 72.7928C73.7778 71.1016 74.4566 69.5002 75.5714 68.2203C75.9671 67.7483 76.4574 67.3646 77.0106 67.0938C77.5638 66.823 78.1675 66.6711 78.783 66.648C78.9067 66.648 79.0304 66.648 79.1542 66.648C79.8257 66.744 80.4649 66.9984 81.0188 67.3901C81.5727 67.7817 82.0256 68.2995 82.34 68.9007C83.1737 70.3798 83.5115 72.0871 83.304 73.7723C83.1764 75.0508 82.7623 76.2842 82.0925 77.3808C81.2884 77.5251 76.5663 76.9787 75.7621 76.8653C75.6797 76.9117 76.0714 77.1952 75.9838 77.2365C76.8344 77.3499 81.0976 77.8499 81.943 77.721C82.282 77.6107 82.6113 77.4728 82.9277 77.3086L83.0514 77.0818C83.5681 76.0605 83.8915 74.9524 84.0051 73.8135C84.2245 71.9982 83.8656 70.1599 82.9792 68.5605Z" fill="#1D1D1B"/>
<path d="M81.9384 73.7153C82.2013 71.1893 80.9074 68.9881 79.0155 68.7922C78.6005 68.7528 78.1821 68.8111 77.7937 68.9624C77.1866 69.2908 76.6527 69.7394 76.2246 70.281C75.7965 70.8225 75.4832 71.4455 75.3038 72.1121C75.2289 72.4068 75.1754 72.7066 75.144 73.0091C75.0445 73.7279 75.0992 74.4596 75.3045 75.1556C75.5098 75.8516 75.8611 76.4959 76.3348 77.0455C76.3812 77.0919 76.3348 77.2105 76.3864 77.2569C77.2937 77.3342 78.268 77.5198 79.3145 77.6744H79.4691C79.5575 77.6366 79.6436 77.5936 79.7269 77.5455C80.3651 77.12 80.8966 76.5531 81.2802 75.8888C81.6637 75.2245 81.8889 74.4808 81.9384 73.7153Z" fill="#1D1D1B"/>
<path d="M74.5929 70.3339C74.5549 70.6803 74.6086 71.0306 74.7486 71.3497C74.8885 71.6688 75.1098 71.9456 75.3903 72.1523C75.6708 72.3591 76.0007 72.4886 76.347 72.5278C76.6932 72.567 77.0437 72.5146 77.3633 72.3758C77.683 72.237 77.9606 72.0168 78.1683 71.737C78.3761 71.4573 78.5068 71.1279 78.5473 70.7818C78.5878 70.4357 78.5367 70.085 78.3991 69.7648C78.2615 69.4447 78.0422 69.1663 77.7632 68.9575C77.4782 68.7364 77.1373 68.5989 76.7786 68.5606C76.5187 68.5334 76.2559 68.5578 76.0053 68.6322C75.7548 68.7067 75.5214 68.8297 75.3184 68.9944C75.1154 69.1591 74.9469 69.3622 74.8224 69.592C74.6979 69.8218 74.6199 70.0739 74.5929 70.3339Z" fill="white"/>
<path d="M74.7014 66.0859C83.0577 60.9309 85.1919 70.4162 85.4136 73.9525C85.4136 74.1948 85.4136 74.4113 85.4136 74.5866C85.6071 73.7371 85.7466 72.8762 85.8312 72.0091C86.5632 64.0961 81.5576 60.8587 78.8306 61.0288C76.418 61.1783 74.9952 64.4621 74.5261 65.7663C74.4076 66.0911 74.3457 66.2818 74.3457 66.2818L74.7014 66.0859Z" fill="#1D1D1B"/>
<path d="M62.8867 54.302C63.1349 54.918 63.3467 55.548 63.5208 56.1888C63.8453 57.3745 64.0933 58.5798 64.2631 59.7973C61.933 59.0756 59.5926 58.3797 57.2574 57.6786C54.551 56.8692 51.7363 56.0496 48.9423 56.4568C46.406 56.8229 44.1326 58.1735 41.9727 59.5499C43.9828 56.4448 46.8172 53.9602 50.1589 52.374C51.9322 51.5389 54.0767 50.9873 55.8037 51.9152C56.1489 52.1501 56.5232 52.339 56.9172 52.4771C57.1662 52.5131 57.4203 52.4877 57.6573 52.4032C57.8943 52.3186 58.1072 52.1776 58.2773 51.9922C58.4475 51.8068 58.5698 51.5827 58.6337 51.3393C58.6976 51.0959 58.7012 50.8406 58.6441 50.5955C59.063 50.6622 59.4543 50.8463 59.7728 51.1264C60.0912 51.4065 60.3237 51.7712 60.4432 52.1781C60.7843 51.6877 61.0501 51.1491 61.232 50.5801C61.232 50.6522 61.4433 50.9925 61.4794 51.0956C61.5773 51.2915 61.665 51.4925 61.7578 51.6987C61.9382 52.1008 62.1083 52.5081 62.2733 52.9102C62.4382 53.3123 62.696 53.8226 62.8867 54.302Z" fill="#1D1D1B"/>
<path d="M74.3037 56.7052C74.0717 57.3186 73.8552 57.9424 73.6799 58.5764C73.3494 59.7642 73.0827 60.9688 72.8809 62.185C74.8656 61.3602 76.8503 60.556 78.8401 59.7518C81.1444 58.8239 83.5364 57.8805 85.851 58.1434C87.9491 58.3857 89.7843 59.5971 91.5216 60.8447C90.11 58.0011 87.8442 55.6705 85.0416 54.1792C83.5982 53.442 81.83 53.0038 80.3454 54.0039C80.051 54.2451 79.7271 54.4478 79.3814 54.6071C78.5308 54.8957 77.7163 53.8235 78.0359 52.8389C77.6535 52.9547 77.3071 53.1667 77.03 53.4546C76.7529 53.7425 76.5544 54.0967 76.4533 54.4833C76.1843 53.9992 75.988 53.4781 75.8708 52.9368C75.8144 53.1173 75.7366 53.2904 75.6388 53.4523C75.5512 53.6534 75.4635 53.8596 75.3811 54.0606C75.2109 54.4679 75.046 54.8803 74.8656 55.2875C74.6851 55.6948 74.4841 56.2464 74.3037 56.7052Z" fill="#1D1D1B"/>
<path d="M59.5412 64.2919C58.4432 63.3109 57.1207 62.6152 55.6904 62.2659C55.0206 62.076 54.3227 62.0045 53.6283 62.0546C52.9061 62.1007 52.1925 62.2376 51.5044 62.4618C50.7813 62.6828 50.0792 62.9674 49.4063 63.3124C48.7231 63.6465 48.0664 64.0326 47.4423 64.4671C46.2146 65.2697 45.2092 66.369 44.5193 67.6633C44.2176 68.3118 44.0691 69.021 44.0852 69.7361C44.1013 70.4512 44.2816 71.153 44.6121 71.7873C44.9386 72.5029 45.3506 73.1762 45.839 73.7926C46.0693 74.0841 46.3208 74.3581 46.5917 74.6123C46.2199 73.2836 46.1044 71.8962 46.2514 70.5243C46.4404 68.3706 47.3087 66.3325 48.731 64.7043C50.1229 63.1887 51.8241 62.4515 53.5871 62.6423C57.1441 63.0083 59.6443 67.1478 59.1545 71.8647C59.0019 73.4258 58.5074 74.9341 57.706 76.2825C58.3349 76.5094 58.9587 76.7568 59.5721 77.0043C61.1186 75.8083 61.8558 73.7927 62.0929 71.9059C62.0929 71.8028 62.0929 71.6997 62.1239 71.6017C62.1432 70.4387 62.0133 69.2779 61.7372 68.1479C61.3864 66.68 60.6246 65.3425 59.5412 64.2919Z" fill="white"/>
<path d="M50.1892 75.5353C49.6195 74.8954 49.1955 74.1395 48.9463 73.3198C48.6971 72.5001 48.6287 71.6362 48.7458 70.7875C48.785 70.4397 48.8487 70.0952 48.9365 69.7565C48.5528 69.4354 48.2821 68.9999 48.164 68.5138C48.0459 68.0276 48.0868 67.5164 48.2805 67.0552C48.4742 66.5939 48.8106 66.2069 49.2404 65.9508C49.6702 65.6948 50.1707 65.5832 50.6686 65.6324C51.0904 65.6778 51.4917 65.8383 51.8285 66.0964C52.2792 65.9211 52.7648 65.854 53.2461 65.9005C55.4267 66.1273 56.9526 68.6894 56.6485 71.6226C56.5274 73.0928 55.888 74.4722 54.8442 75.5147C55.5832 75.6468 56.3119 75.8311 57.0248 76.0663C57.8151 74.7728 58.3016 73.3169 58.4476 71.8082C58.8961 67.4779 56.6794 63.689 53.509 63.359C51.9986 63.1992 50.4779 63.8745 49.2458 65.2045C47.9225 66.7199 47.117 68.6179 46.9466 70.6225C46.7695 72.1491 46.9459 73.696 47.4621 75.1435C47.8547 75.3168 48.2693 75.4347 48.6942 75.494C49.1904 75.5504 49.6906 75.5642 50.1892 75.5353Z" fill="white"/>
<path d="M48.7203 75.4736C48.2954 75.4143 47.8808 75.2963 47.4883 75.123C47.5192 75.2055 47.5553 75.2829 47.5914 75.3653H47.6326C48.5035 75.6467 49.4228 75.7467 50.3339 75.6592C50.2833 75.6154 50.2351 75.569 50.1895 75.52C49.6994 75.5457 49.2079 75.5302 48.7203 75.4736Z" fill="#1D1D1B"/>
<path d="M54.8434 75.499L54.6836 75.6434C55.4449 75.768 56.1949 75.9542 56.926 76.2001L57.024 76.0506C56.3111 75.8155 55.5824 75.6311 54.8434 75.499Z" fill="#1D1D1B"/>
<path d="M53.509 63.3434C51.9986 63.1836 50.4779 63.8589 49.2458 65.1889C47.9195 66.7085 47.1138 68.6123 46.9466 70.6224C46.7695 72.1489 46.9459 73.6958 47.4621 75.1433C47.4931 75.2258 47.5292 75.3031 47.5653 75.3856H47.6065C48.4774 75.667 49.3967 75.767 50.3077 75.6795C50.2562 75.6382 54.7153 75.6021 54.6586 75.6485C55.4199 75.7731 56.1699 75.9593 56.9011 76.2053L56.999 76.0558C57.7894 74.7624 58.2758 73.3064 58.4218 71.7977C58.8961 67.4623 56.6794 63.6733 53.509 63.3434Z" fill="url(#paint4_radial_1729_30989)"/>
<path d="M62.8503 67.9677C62.7698 67.0862 62.5721 66.2194 62.2626 65.3902C61.9276 64.5415 61.4518 63.7555 60.8552 63.0652C59.6429 61.6904 58.0668 60.6861 56.3085 60.1681C55.4079 59.8724 54.4615 59.7414 53.5144 59.7815C52.5954 59.824 51.6857 59.9851 50.808 60.2609C49.118 60.8029 47.5344 61.6331 46.1272 62.7147C44.637 63.7983 43.4943 65.2922 42.8383 67.014C42.5127 67.9182 42.4223 68.8903 42.5754 69.839C42.7352 70.7416 43.0868 71.5995 43.6064 72.3546C44.1076 73.0577 44.7025 73.689 45.3746 74.2311C45.7237 74.5122 46.1002 74.7575 46.4984 74.9631C48.3491 76.19 50.4626 75.7621 52.5556 75.6693C55.0043 75.5559 57.2879 76.4271 59.5252 77.3241C59.5487 77.3405 59.5766 77.3493 59.6051 77.3493C59.6337 77.3493 59.6616 77.3405 59.6851 77.3241C61.0328 76.2296 61.9465 74.6908 62.2626 72.9836C62.3348 72.6382 62.3863 72.2876 62.4327 71.9526C62.7991 70.658 62.9404 69.3101 62.8503 67.9677ZM54.6846 75.6436C54.2056 75.5638 53.7216 75.5173 53.2361 75.5044C52.2721 75.5044 51.2926 75.623 50.3338 75.6745C49.4227 75.762 48.5034 75.662 47.6325 75.3807H47.5913C47.5552 75.2982 47.5191 75.2209 47.4882 75.1384C46.972 73.6908 46.7956 72.144 46.9727 70.6174C47.1442 68.6146 47.9495 66.7186 49.2718 65.2046C50.5039 63.854 52.0246 63.1993 53.5351 63.3591C56.7054 63.689 58.9221 67.4831 58.4736 71.8082C58.3276 73.3169 57.8412 74.7729 57.0508 76.0663L56.9529 76.2158C56.2137 75.9632 55.4551 75.7718 54.6846 75.6436ZM59.5665 77.0045C58.953 76.7571 58.3293 76.489 57.7004 76.2828C58.5017 74.9344 58.9963 73.426 59.1489 71.8649C59.6387 67.148 57.1385 63.0085 53.5815 62.6425C51.839 62.4569 50.1173 63.1941 48.7254 64.7045C47.303 66.3328 46.4347 68.3708 46.2458 70.5246C46.0988 71.8965 46.2143 73.2838 46.586 74.6126C46.3152 74.3584 46.0636 74.0844 45.8334 73.7929C45.345 73.1765 44.933 72.5031 44.6065 71.7876C44.2759 71.1533 44.0956 70.4515 44.0795 69.7364C44.0634 69.0213 44.212 68.3121 44.5137 67.6635C45.2036 66.3692 46.209 65.2699 47.4366 64.4674C48.0608 64.0328 48.7174 63.6468 49.4007 63.3127C50.0735 62.9677 50.7757 62.683 51.4988 62.4621C52.1869 62.2378 52.9005 62.101 53.6227 62.0548C54.3171 62.0047 55.0149 62.0762 55.6847 62.2662C57.1151 62.6154 58.4376 63.3112 59.5356 64.2921C60.6171 65.3434 61.377 66.6809 61.7265 68.1481C62.0025 69.2781 62.1325 70.4389 62.1131 71.602C62.1131 71.7 62.1131 71.8031 62.0822 71.9062C61.8502 73.7929 61.1491 75.8085 59.5665 77.0045Z" fill="#1D1D1B"/>
<path d="M56.6487 71.6075C56.9529 68.6743 55.427 66.1122 53.2464 65.8854C52.765 65.839 52.2795 65.9061 51.8287 66.0813C50.6688 66.4782 49.1739 69.0454 48.9367 69.7465C48.849 70.0853 48.7853 70.4298 48.746 70.7775C48.6289 71.6262 48.6973 72.4902 48.9465 73.3099C49.1957 74.1296 49.6198 74.8854 50.1894 75.5253C50.235 75.5743 50.2832 75.6208 50.3338 75.6645C51.2926 75.613 52.2721 75.4789 53.2361 75.4944C53.7216 75.5073 54.2056 75.5538 54.6846 75.6336C55.8238 74.5874 56.5254 73.1493 56.6487 71.6075Z" fill="#1D1D1B"/>
<path d="M48.1012 67.7044C48.0584 68.0905 48.1123 68.4811 48.2581 68.841C48.4039 69.201 48.6369 69.519 48.9363 69.7665C49.2947 70.0567 49.7301 70.2359 50.189 70.282C50.6494 70.3344 51.1151 70.249 51.5269 70.0364C51.9387 69.8239 52.2782 69.494 52.5023 69.0883C52.7264 68.6827 52.825 68.2196 52.7857 67.7579C52.7463 67.2961 52.5708 66.8564 52.2813 66.4946C51.9918 66.1327 51.6014 65.8649 51.1595 65.7252C50.7177 65.5854 50.2443 65.58 49.7993 65.7096C49.3544 65.8391 48.9579 66.0979 48.6602 66.453C48.3625 66.8082 48.1769 67.2437 48.127 67.7044H48.1012Z" fill="white"/>
<path d="M71.3242 89.629C72.7676 89.1702 74.2832 88.83 75.4947 88.0309C76.0803 87.6834 76.5596 87.1821 76.8804 86.5813C77.2012 85.9806 77.3513 85.3035 77.3144 84.6234C77.2113 83.3037 76.371 82.0871 75.6132 80.7365C74.8636 79.3801 74.214 77.9707 73.6698 76.5197C73.1366 75.0643 72.7094 73.5724 72.3913 72.0554C72.0783 70.5402 71.8853 69.0027 71.8139 67.4571C71.6954 65.8868 71.8953 64.3087 72.4016 62.8175C72.6593 62.0721 73.0665 61.3871 73.5984 60.8047C74.1303 60.2223 74.7756 59.7547 75.4947 59.4307C74.2738 60.2927 73.4189 61.5796 73.0976 63.0392C72.7888 64.4726 72.7399 65.9497 72.9532 67.4004C73.1283 68.8788 73.3917 70.3455 73.7419 71.7925C74.0782 73.2385 74.5087 74.6608 75.0307 76.0506C75.5408 77.446 76.1383 78.8079 76.8195 80.1282C77.1494 80.7932 77.5361 81.4582 77.8505 82.1902C78.211 82.95 78.406 83.7775 78.4227 84.6183C78.4212 85.4794 78.1686 86.3214 77.6959 87.0412C77.2384 87.7378 76.5957 88.293 75.84 88.6444C74.376 89.33 72.8243 89.4589 71.3242 89.629Z" fill="#1D1D1B"/>
<path opacity="0.76" d="M63.5249 69.8746C63.5249 69.7096 63.5249 69.5653 63.5249 69.4467C63.5699 68.7177 63.4278 67.9892 63.112 67.3306C62.7962 66.6719 62.3173 66.1049 61.7207 65.6835C60.6897 64.9876 56.3544 64.2607 52.8645 63.9824C52.7924 63.9824 52.5552 63.9824 52.1222 63.9514C47.5137 63.838 43.5805 64.3896 42.8434 64.9825C41.699 65.9052 41.1165 69.622 42.1217 74.2306C42.9207 77.8753 44.7558 78.9527 47.4261 79.5146C48.7631 79.7499 50.1211 79.8449 51.4778 79.7981C53.8885 79.7842 56.2883 79.4725 58.6226 78.8702C62.8084 77.4422 63.4218 73.0553 63.5249 69.8746ZM85.3354 64.7659C82.3455 64.869 78.4793 65.3742 77.5308 66.0032C76.9662 66.4048 76.5129 66.9433 76.2135 67.5682C75.9141 68.1931 75.7785 68.8839 75.8194 69.5756C75.8194 69.689 75.8194 69.8231 75.8194 69.9829C75.8864 73.0759 76.4173 77.2979 80.2217 78.5609C82.2302 79.0614 84.2971 79.2886 86.3663 79.2362C87.4778 79.2408 88.5863 79.1198 89.6706 78.8753C91.7893 78.3134 93.2172 77.3288 93.8513 74.1327C94.6503 70.1324 94.2379 66.8847 93.377 66.0392C92.8203 65.498 89.7377 64.8587 85.9694 64.7659C85.5983 64.7608 85.3766 64.7659 85.3354 64.7659Z" fill="url(#paint5_linear_1729_30989)"/>
<path d="M65.5567 63.7147C64.6141 63.2391 63.6307 62.8492 62.6183 62.5497C61.6134 62.2328 60.591 61.9746 59.5562 61.7764C57.4871 61.3644 55.3864 61.1316 53.2773 61.0805C51.1689 61.0135 49.0502 61.0805 46.9417 61.0805C45.9107 61.0805 44.8282 61.1321 43.7714 61.1785C42.7146 61.2249 41.663 61.2764 40.6113 61.395C42.7092 61.1123 44.8206 60.9402 46.9366 60.8795C49.0502 60.8021 51.1637 60.7661 53.2876 60.8073C55.4117 60.869 57.5256 61.1262 59.6026 61.5754C61.6817 61.9918 63.688 62.7127 65.5567 63.7147Z" fill="white"/>
<path d="M69.819 67.581C70.1644 67.581 72.0769 67.8078 72.7162 70.2874C73.4224 73.0041 74.139 79.8861 79.4177 81.3656C84.0057 82.6389 89.2381 82.2575 90.9393 81.6698C92.6405 81.0821 94.5478 79.3448 95.4242 76.1539C96.3727 72.7051 97.9656 69.045 98.0017 68.6636C98.0017 68.6636 97.0583 63.1734 96.6459 63.0909C94.2231 62.5754 87.8823 61.1166 82.0417 61.4465C74.8246 61.8537 71.8037 64.7096 71.8037 64.7096L69.7881 64.6581L69.819 67.581ZM76.6598 64.6581C78.5517 63.4209 85.2378 62.8899 85.2378 62.8899C86.1142 62.8487 92.7797 63.4054 94.3107 64.9519C95.8418 66.4984 95.5995 70.4214 94.8262 74.329C94.053 78.2365 92.5683 79.9995 90.1042 80.6852C87.6401 81.3708 82.3252 81.51 79.4848 80.4738C74.2524 78.5767 74.2988 71.2823 74.2369 69.6482C74.174 68.6778 74.3642 67.7077 74.7889 66.833C75.2137 65.9582 75.8583 65.2088 76.6598 64.6581V64.6581Z" stroke="#1D1D1B"/>
<path d="M73.8867 63.9208C73.8867 63.9208 78.217 61.168 85.9753 61.6783C92.6769 62.1217 95.0276 63.0187 95.0276 63.0187" stroke="#1D1D1B"/>
<path d="M73.8867 63.9209C75.4569 63.0154 77.1655 62.3745 78.9438 62.0238C80.7179 61.6616 82.5254 61.4888 84.336 61.5083C86.1412 61.5604 87.9426 61.7032 89.7334 61.9362C91.5295 62.13 93.3026 62.4978 95.0276 63.0342C94.1618 62.7887 93.2799 62.6044 92.3882 62.4826C91.5016 62.3383 90.6097 62.2249 89.7127 62.1321C87.9239 61.9517 86.1042 61.7867 84.336 61.7661C82.5396 61.7397 80.7451 61.8951 78.9799 62.23C78.0976 62.3999 77.2264 62.6237 76.3715 62.9002C75.5119 63.1585 74.6797 63.5004 73.8867 63.9209V63.9209Z" stroke="#1D1D1B"/>
<path d="M69.8146 64.6576H67.7835C67.7835 64.6576 64.6441 61.6213 56.695 60.7965C49.8078 60.0593 42.2248 61.4151 38.9152 61.8584C38.3378 61.9357 36.8532 66.7041 36.9563 67.2454C36.9563 67.2454 38.9152 72.9779 40.2143 76.9524C41.3999 80.5867 43.9311 82.4786 46.0859 82.9941C48.2407 83.5096 54.5299 83.5664 59.7468 81.9013C65.4586 80.0815 66.1752 73.0294 66.8917 70.2611C67.5412 67.7558 69.4692 67.5805 69.8198 67.5702L69.8146 64.6576ZM65.3143 69.591C65.2524 71.2561 65.3143 78.7206 59.7004 80.9321C56.4991 82.1951 50.2563 82.3807 47.1633 81.793C44.0703 81.2053 42.0753 79.2722 41.0442 74.7924C40.0132 70.3127 39.6524 65.6731 41.6628 64.0081C43.6733 62.343 51.973 62.0698 53.004 62.1574C53.004 62.1574 60.6438 63.0492 62.711 64.4153C63.5529 64.9818 64.2346 65.7556 64.6906 66.6621C65.1466 67.5686 65.3614 68.5773 65.3143 69.591V69.591Z" stroke="#1D1D1B"/>
<path d="M65.6497 63.7709C65.6497 63.7709 61.0101 60.7139 52.128 60.8119C43.8232 60.8995 40.6992 61.781 40.6992 61.781" stroke="#1D1D1B"/>
<path d="M65.6497 63.7707C64.723 63.2545 63.7473 62.8314 62.7371 62.5077C61.7383 62.1586 60.717 61.8779 59.6801 61.6674C57.6088 61.2233 55.4989 60.9833 53.3807 60.9509C51.2619 60.8993 49.138 60.9869 47.0193 61.0849C45.9883 61.1416 44.9006 61.2189 43.849 61.322C42.7909 61.4128 41.7392 61.566 40.6992 61.7808C42.7741 61.31 44.8847 61.0134 47.009 60.8942C49.1329 60.7498 51.2516 60.6725 53.3858 60.6983C55.5184 60.7372 57.6413 60.9945 59.7214 61.4664C61.8082 61.9119 63.8098 62.6899 65.6497 63.7707V63.7707Z" stroke="#1D1D1B"/>
<path d="M69.819 67.581C70.1644 67.581 72.0769 67.8078 72.7162 70.2874C73.4224 73.0041 74.139 79.8861 79.4177 81.3656C84.0057 82.6389 89.2381 82.2575 90.9393 81.6698C92.6405 81.0821 94.5478 79.3448 95.4242 76.1539C96.3727 72.7051 97.9656 69.045 98.0017 68.6636C98.0017 68.6636 97.0583 63.1734 96.6459 63.0909C94.2231 62.5754 87.8823 61.1166 82.0417 61.4465C74.8246 61.8537 71.8037 64.7096 71.8037 64.7096L69.7881 64.6581L69.819 67.581ZM76.6598 64.6581C78.5517 63.4209 85.2378 62.8899 85.2378 62.8899C86.1142 62.8487 92.7796 63.4054 94.3107 64.9519C95.8418 66.4984 95.5995 70.4214 94.8262 74.329C94.0529 78.2365 92.5683 79.9995 90.1042 80.6852C87.6401 81.3708 82.3252 81.51 79.4848 80.4738C74.2524 78.5767 74.2988 71.2823 74.2369 69.6482C74.174 68.6778 74.3642 67.7077 74.7889 66.833C75.2137 65.9582 75.8583 65.2088 76.6598 64.6581Z" fill="#1D1D1B"/>
<path d="M73.8867 63.9209C75.4569 63.0154 77.1655 62.3745 78.9438 62.0238C80.7179 61.6616 82.5254 61.4888 84.336 61.5083C86.1412 61.5604 87.9426 61.7032 89.7334 61.9362C91.5295 62.13 93.3026 62.4978 95.0276 63.0342C94.1618 62.7887 93.2799 62.6044 92.3882 62.4826C91.5016 62.3383 90.6097 62.2249 89.7127 62.1321C87.9239 61.9517 86.1042 61.7867 84.336 61.7661C82.5396 61.7397 80.7451 61.8951 78.9799 62.23C78.0976 62.3999 77.2264 62.6237 76.3715 62.9002C75.5119 63.1585 74.6797 63.5004 73.8867 63.9209Z" fill="white"/>
<path d="M69.8146 64.6576H67.7835C67.7835 64.6576 64.6441 61.6213 56.695 60.7965C49.8078 60.0593 42.2248 61.4151 38.9152 61.8584C38.3378 61.9357 36.8532 66.7041 36.9563 67.2454C36.9563 67.2454 38.9152 72.9779 40.2143 76.9524C41.3999 80.5867 43.9311 82.4786 46.0859 82.9941C48.2407 83.5096 54.5299 83.5664 59.7468 81.9013C65.4586 80.0815 66.1752 73.0294 66.8917 70.2611C67.5412 67.7558 69.4692 67.5805 69.8198 67.5702L69.8146 64.6576ZM65.3143 69.591C65.2524 71.2561 65.3143 78.7206 59.7004 80.9321C56.4991 82.1951 50.2563 82.3807 47.1633 81.793C44.0703 81.2053 42.0753 79.2722 41.0442 74.7924C40.0132 70.3127 39.6524 65.6731 41.6628 64.0081C43.6733 62.343 51.973 62.0698 53.004 62.1574C53.004 62.1574 60.6438 63.0492 62.711 64.4153C63.5529 64.9818 64.2346 65.7556 64.6906 66.6621C65.1466 67.5686 65.3614 68.5773 65.3143 69.591Z" fill="#1D1D1B"/>
<path d="M65.6497 63.7707C64.723 63.2545 63.7473 62.8314 62.7371 62.5077C61.7383 62.1586 60.717 61.8779 59.6801 61.6674C57.6088 61.2233 55.4989 60.9833 53.3807 60.9509C51.2619 60.8993 49.138 60.9869 47.0193 61.0849C45.9883 61.1416 44.9006 61.2189 43.849 61.322C42.7909 61.4128 41.7392 61.566 40.6992 61.7808C42.7741 61.31 44.8847 61.0134 47.009 60.8942C49.1329 60.7498 51.2516 60.6725 53.3858 60.6983C55.5184 60.7372 57.6413 60.9945 59.7214 61.4664C61.8082 61.9119 63.8098 62.6899 65.6497 63.7707Z" fill="white"/>
<path d="M26.4769 72.2714C26.4769 72.2714 21.1157 58.0795 19.7496 59.0538C18.3835 60.0281 15.4348 67.9669 17.5278 74.2612C19.6207 80.5556 24.1262 84.7466 26.6986 85.2261C27.09 85.3456 27.5116 85.3178 27.8839 85.1478C28.2562 84.9778 28.5534 84.6774 28.7194 84.3033C27.4122 80.4174 26.6574 76.3672 26.4769 72.2714Z" fill="#F0C099" stroke="#1D1D1B" stroke-miterlimit="10"/>
<path d="M21.5842 61.0745C21.5842 61.0745 18.1664 65.8842 18.8829 70.1526C19.5995 74.421 21.7698 80.4163 27.6929 81.2669C26.3681 75.1221 26.4763 72.2713 26.4763 72.2713L21.4811 60.8838" fill="#D69E7C"/>
<path d="M23.8419 66.7047C23.6055 66.8136 23.3809 66.9467 23.1718 67.1017C22.9483 67.271 22.7396 67.459 22.548 67.6636C22.155 68.0805 21.8453 68.5687 21.6356 69.1018C21.4236 69.6592 21.3068 70.2482 21.2902 70.8443C21.2825 71.1487 21.2928 71.4534 21.3211 71.7567C21.3572 72.0608 21.4139 72.365 21.4654 72.6743C21.3675 72.3805 21.2541 72.0866 21.1664 71.7876C21.0788 71.4886 21.0066 71.1742 20.9809 70.8597C20.8917 70.2167 20.9109 69.5633 21.0376 68.9266C21.3326 67.5751 22.1306 66.3864 23.2697 65.6016L23.8419 66.7047Z" fill="#1D1D1B"/>
<path d="M22.8467 77.9893C23.4828 78.7139 24.2598 79.3015 25.1304 79.7162C25.5478 79.9152 25.9873 80.064 26.4398 80.1595C26.8767 80.2524 27.3233 80.2922 27.7698 80.2781L27.677 81.5153C27.1436 81.4228 26.624 81.2635 26.1305 81.0411C25.6527 80.8326 25.2026 80.5659 24.7901 80.2472C23.994 79.6361 23.3324 78.8675 22.8467 77.9893Z" fill="#1D1D1B"/>
<path d="M26.2347 72.3443C26.2347 72.3443 21.1157 58.0803 19.7496 59.0546C18.3835 60.0289 15.4348 67.9677 17.5278 74.262C19.6207 80.5563 24.1262 84.7474 26.6986 85.2268C27.09 85.3464 27.5116 85.3185 27.8839 85.1485C28.2562 84.9785 28.5534 84.6781 28.7194 84.304C27.2491 80.4783 26.41 76.4391 26.2347 72.3443V72.3443Z" stroke="#1D1D1B" stroke-linecap="round" stroke-linejoin="round"/>
<path d="M68.0042 110.356C69.8348 110.356 71.3189 109.537 71.3189 108.526C71.3189 107.516 69.8348 106.696 68.0042 106.696C66.1735 106.696 64.6895 107.516 64.6895 108.526C64.6895 109.537 66.1735 110.356 68.0042 110.356Z" fill="#FBCFB7"/>
<path d="M68.8088 102.51L73.0824 100.556C73.0824 100.556 74.6598 100.469 74.5722 100.654C74.3866 101.077 73.5412 102.515 73.0875 103.268C71.9019 105.304 70.5461 105.072 69.2058 105.139C68.2624 105.191 67.1437 105.232 66.1849 105.232C64.4425 105.232 63.0919 105.108 60.8442 102.541L58.7822 99.7676L68.8088 102.51Z" fill="#D69E7C"/>
<path d="M73.9017 98.7466C73.9017 98.793 73.9017 98.8394 73.9429 98.8858C74.1079 98.7414 74.2729 99.3116 74.4584 99.1725C74.5546 99.1007 74.6665 99.0529 74.7849 99.0332C74.9033 99.0135 75.0246 99.0223 75.1389 99.059C75.6299 99.1524 76.102 99.3266 76.5359 99.5746C76.8823 98.9454 77.1754 97.5687 77.4123 96.8908C77.5566 96.5145 77.701 96.1381 77.8608 95.7515C77.8917 95.6845 77.9226 95.602 77.9587 95.5195C76.5331 96.4201 75.0005 97.1388 73.3965 97.6589C73.6204 97.993 73.7909 98.36 73.9017 98.7466Z" fill="#1D1D1B"/>
<path d="M58.1071 98.7625C58.1535 98.8038 58.2102 98.8399 58.2618 98.8811C58.4113 99.2231 60.6705 99.4767 61.8665 99.6674C63.5058 99.9303 65.0637 100.143 66.7236 100.303C68.3507 100.526 69.9557 100.6 71.5567 100.234C72.2066 100.059 73.0562 99.7495 73.6263 99.3916C73.6058 99.252 73.4898 98.8872 73.4486 98.7522C73.3307 98.4033 73.1565 97.3562 72.9331 97.0634C72.4743 97.1923 72.0206 97.3108 71.5567 97.3933C70.2939 97.6028 69.0078 97.6323 67.7367 97.4809C66.4016 97.3469 65.0767 97.1819 63.757 96.9964C62.4374 96.8108 61.1795 96.6407 59.9268 96.3726C59.1897 96.2128 58.3803 95.9086 58.1277 95.29C57.2167 95.5528 55.5302 95.5528 54.6191 95.29C55.4491 96.2964 56.9404 98.2731 58.1071 98.7625Z" fill="#BE1622"/>
<path d="M73.9425 98.8872C73.9425 98.8408 73.9425 98.7944 73.9012 98.748C73.7868 98.3625 73.6983 97.8904 73.4712 97.5586C73.332 97.605 72.3928 97.7427 72.2588 97.784C72.4823 98.0768 73.2127 98.4578 73.3306 98.8068C73.3718 98.9418 73.4735 99.1226 73.494 99.2623L73.7105 99.0934C73.7921 99.0296 73.8696 98.9608 73.9425 98.8872Z" fill="#BE1622"/>
<path d="M75.3504 98.7523C75.1133 98.6905 74.9019 98.6028 74.6802 98.7523C74.4586 98.9018 74.2214 99.1751 73.9534 99.3555C71.5717 100.979 68.2828 100.716 65.4939 100.386C63.291 100.129 61.1104 99.7851 58.9521 99.3555C61.4472 100.979 65.1691 101.933 67.8395 102.119C70.2047 102.342 72.5826 101.85 74.6648 100.706C75.3303 100.324 75.8997 99.7951 76.3298 99.1596C76.18 99.0683 76.0231 98.989 75.8607 98.9225C75.6958 98.8606 75.5257 98.8039 75.3504 98.7523Z" fill="white"/>
<path d="M74.4478 98.4589C74.2725 98.5981 74.1076 98.7476 73.9323 98.892C73.8528 98.9663 73.7684 99.0351 73.6797 99.0982L73.556 99.1703C72.9858 99.5282 72.3656 99.7993 71.7156 99.9745C70.1147 100.34 68.4608 100.414 66.8338 100.191C65.1738 100.031 63.5242 99.8096 61.8849 99.5467C60.6632 99.3559 59.4569 99.1291 58.2764 98.8868C58.4929 99.0569 58.7249 99.2219 58.9671 99.4023C61.1288 99.8216 63.3094 100.165 65.5089 100.433C68.3236 100.763 71.5867 101.026 73.9684 99.4023C74.2364 99.2219 74.4375 98.9796 74.6952 98.7992C74.953 98.6188 75.1283 98.7322 75.3654 98.7992C75.6025 98.8662 75.7108 98.9074 75.8809 98.9745C76.0433 99.041 76.2001 99.1203 76.35 99.2116C76.417 99.1136 76.484 99.0105 76.5459 98.9074C76.112 98.6595 75.6399 98.4853 75.1489 98.3919C75.0354 98.3451 74.9122 98.3267 74.79 98.3384C74.6678 98.3501 74.5503 98.3914 74.4478 98.4589Z" fill="#1D1D1B"/>
<path d="M58.2318 95.6186C58.2598 95.6071 58.2899 95.6015 58.3201 95.6021C58.3504 95.6028 58.3802 95.6095 58.4077 95.6221C58.4352 95.6347 58.4599 95.6527 58.4802 95.6752C58.5005 95.6976 58.516 95.724 58.5257 95.7526C58.5851 95.9426 58.6921 96.1143 58.8364 96.2514C58.9808 96.3885 59.1577 96.4865 59.3505 96.5362C59.8179 96.7037 60.3017 96.8212 60.7939 96.8867C61.3867 96.9898 61.9796 97.0878 62.5775 97.1806C63.7907 97.3696 65.0107 97.5414 66.2376 97.6961C67.4551 97.8686 68.6836 97.9513 69.9132 97.9435C71.1102 97.8879 72.2927 97.6587 73.4238 97.2631C75.0909 96.7055 76.6608 96.2015 78.1321 95.2395C78.2816 94.8323 78.6028 94.0796 78.7987 93.5847C79.0152 92.9764 79.5197 91.7197 79.695 91.2557C78.3289 91.9826 75.3569 93.4329 70.6916 93.6597C64.2596 93.9471 57.8465 92.7678 51.9375 90.2109V90.2934C51.9891 90.4429 52.0251 90.5769 52.0612 90.6543C52.8458 92.3819 53.8192 94.0174 54.9635 95.531C55.9989 95.9894 57.1734 96.0209 58.2318 95.6186Z" fill="white"/>
<path d="M58.1737 96.0102C58.4263 96.6288 59.2356 96.933 59.9728 97.0928C61.2255 97.3609 62.5503 97.5361 63.803 97.7166C65.0557 97.897 66.4475 98.0671 67.7827 98.2011C69.0538 98.3525 70.3398 98.323 71.6026 98.1135C72.0666 98.031 72.5202 97.9125 72.979 97.7836C73.113 97.7423 73.2471 97.7114 73.3863 97.665C74.9903 97.1449 76.5229 96.4262 77.9485 95.5257C78.0103 95.3659 78.0825 95.1854 78.1547 94.9844C76.6834 95.9464 75.0946 96.7156 73.4275 97.2732C72.2943 97.6658 71.1099 97.8916 69.9117 97.9434C68.6798 97.9429 67.4496 97.8516 66.231 97.6702C65.0041 97.5258 63.7841 97.354 62.5709 97.1547C61.973 97.0619 61.3801 96.9639 60.7873 96.8608C60.2951 96.7953 59.8113 96.6778 59.3439 96.5103C59.1511 96.4606 58.9742 96.3626 58.8298 96.2255C58.6855 96.0884 58.5785 95.9167 58.5191 95.7267C58.5094 95.698 58.4939 95.6717 58.4736 95.6492C58.4533 95.6268 58.4286 95.6087 58.4011 95.5962C58.3736 95.5836 58.3438 95.5768 58.3135 95.5762C58.2833 95.5756 58.2532 95.5812 58.2252 95.5927C57.1702 95.9828 56.0043 95.944 54.9775 95.4844C55.1116 95.6545 55.2404 95.8298 55.3796 95.9999C56.2913 96.2671 57.26 96.2707 58.1737 96.0102Z" fill="#1D1D1B"/>
<path d="M77.9482 95.5254C77.9121 95.6079 77.8812 95.6904 77.8502 95.7574C77.6904 96.144 77.5461 96.5204 77.4017 96.8967C77.1649 97.5746 76.8717 98.2316 76.5254 98.8608C76.7558 98.9909 76.9645 99.1561 77.144 99.3505C77.5491 98.6565 77.8891 97.9265 78.1595 97.1699C78.2936 96.809 78.4328 96.4379 78.5926 96.0667C78.7524 95.6955 79.1268 94.6874 79.349 93.9678C79.1015 94.143 78.6183 94.4191 78.3657 94.5789C78.2008 94.6459 78.0719 95.4533 77.9482 95.5254Z" fill="#1D1D1B"/>
<path d="M58.1073 98.7631C57.1129 97.9397 56.2013 97.0212 55.3854 96.0206C55.145 95.9597 54.909 95.8821 54.6792 95.7887C54.54 95.732 54.4163 95.6598 54.2874 95.5928H54.2049L54.0967 95.6237C54.8651 96.6713 55.7278 97.6462 56.6742 98.5363C57.1897 98.6497 57.7052 98.758 58.2465 98.8611C58.2104 98.8405 58.1537 98.8044 58.1073 98.7631Z" fill="#1D1D1B"/>
<path d="M54.2047 95.6132H54.2872L53.9521 95.4482L54.0965 95.6648L54.2047 95.6132Z" fill="#1D1D1B"/>
<path d="M76.3297 99.1646C75.8996 99.8001 75.3301 100.329 74.6646 100.711C72.5871 101.858 70.213 102.356 67.8496 102.139C65.1793 101.943 61.4573 101 58.9623 99.3759C58.3849 99.2677 57.8076 99.144 57.2354 99.0254L57.6168 99.3605C60.1944 101.474 64.6793 102.685 67.7929 102.917C68.1486 102.917 68.5095 102.959 68.8652 102.959C71.0272 102.995 73.1606 102.462 75.0512 101.412C75.7842 100.986 76.4171 100.408 76.9071 99.7162C76.7543 99.4948 76.5578 99.3071 76.3297 99.1646Z" fill="#1D1D1B"/>
<path d="M76.3301 99.1646C76.5585 99.2954 76.5388 99.7643 76.6983 99.9736C76.9664 99.7132 77.3265 99.0543 77.4567 98.7862C77.2772 98.5918 76.7564 98.2502 76.526 98.1201C76.4641 98.2541 76.3971 99.0666 76.3301 99.1646Z" fill="#1D1D1B"/>
<path d="M57.5383 98.2864C57.0227 98.1833 56.7464 98.1915 56.2051 98.0781C56.5675 98.4842 57.0879 98.8784 57.2477 99.0382C58.5531 99.8445 58.3536 99.2677 58.931 99.3759C58.7093 99.2161 57.7548 98.4565 57.5383 98.2864Z" fill="#1D1D1B"/>
<path d="M52.0813 90.6336C52.0452 90.5563 52.0091 90.4223 51.9576 90.2728V90.1903C57.8593 92.7554 64.267 93.9453 70.6962 93.67C75.3615 93.4431 77.9133 92.7317 79.2536 92.0049C79.0783 92.4688 78.8876 93.005 78.6711 93.6132C78.4958 94.1288 78.3257 94.5772 78.1556 94.9845C78.5474 94.7267 78.9185 94.469 79.2794 94.1751C79.3155 94.0772 79.3464 93.9793 79.3825 93.8762C79.7124 92.9586 80.1248 91.8141 80.4135 91.1027C80.6 90.8986 80.7313 90.6502 80.795 90.381C80.8134 90.3119 80.8121 90.2391 80.7911 90.1707C80.7702 90.1023 80.7304 90.0413 80.6764 89.9944C80.599 89.9256 80.4976 89.8903 80.3942 89.8961C80.2909 89.9019 80.194 89.9483 80.1248 90.0253C79.9747 90.2257 79.85 90.4438 79.7537 90.6749C79.1196 91.3502 77.0936 92.5771 70.6241 92.8864C63.9538 93.1768 57.3123 91.8485 51.2668 89.0149C51.1778 88.9708 51.0754 88.9617 50.98 88.9893C50.8845 89.017 50.8029 89.0795 50.7513 89.1644C50.702 89.2509 50.6884 89.3531 50.7134 89.4494C50.7385 89.5458 50.8002 89.6285 50.8853 89.6799C51.0317 89.9371 51.1426 90.2128 51.2153 90.4996C51.2606 90.6535 51.314 90.8049 51.3751 90.9532C51.7999 91.8753 52.2714 92.7751 52.7875 93.6493L53.1226 93.7524C53.3494 93.8091 53.2567 94.0617 53.0556 94.0824C53.169 94.2628 53.2773 94.4484 53.3958 94.5979C53.8904 94.9503 54.423 95.246 54.9836 95.4794C53.8412 93.9756 52.8679 92.3505 52.0813 90.6336Z" fill="#1D1D1B"/>
<path d="M54.6791 95.7886C54.9089 95.882 55.8564 96.7891 56.0969 96.8501C55.9577 96.6851 54.2619 94.4365 54.1278 94.2612C53.5672 94.0279 53.015 93.5224 52.5205 93.1699C52.7402 93.7128 53.9371 95.4405 54.1278 95.6983L54.7476 96.1535C54.8765 96.2257 54.5399 95.7319 54.6791 95.7886Z" fill="#1D1D1B"/>
<path d="M77.9482 95.5252C78.072 95.453 78.2008 95.3808 78.3194 95.3035C78.572 95.1385 78.8349 94.9581 79.0617 94.788C79.1288 94.5921 79.2009 94.391 79.2782 94.1797C78.9174 94.4632 78.5462 94.7313 78.1544 94.989C78.0823 95.1849 78.0101 95.3654 77.9482 95.5252Z" fill="#1D1D1B"/>
<path d="M53.1232 93.7574L52.7881 93.6543L53.0562 94.0873C53.2572 94.0667 53.35 93.8193 53.1232 93.7574Z" fill="#1D1D1B"/>
<path d="M52.8133 87.3457C52.1608 87.8794 51.5633 88.4769 51.0296 89.1293C50.7874 89.4491 50.5816 89.7949 50.4162 90.1604C50.2306 90.5264 50.1223 90.9285 49.9522 91.3718C49.77 90.9317 49.7199 90.4481 49.8079 89.9799C49.884 89.4963 50.0828 89.0401 50.3852 88.6551C50.6765 88.2741 51.0455 87.9596 51.4678 87.7323C51.8786 87.4969 52.3402 87.3643 52.8133 87.3457Z" fill="#1D1D1B"/>
<path d="M36.9512 34.3318L33.6262 43.348C33.6262 43.348 30.2187 45.2193 28.7185 54.2561C28.569 36.997 28.7185 33.6359 28.7185 33.6359L23.5635 27.9344L35.6779 26.8467L36.9512 34.3318Z" fill="#1D1D1B"/>
<path d="M68.2832 47.2721C68.2832 47.2721 70.6441 43.8182 73.0051 43.246C75.3661 42.6738 80.222 41.4417 80.222 41.4417C80.222 41.4417 80.9127 43.6636 85.0779 40.4726C89.2431 37.2816 93.2639 29.7861 91.3205 23.6825C89.3771 17.579 70.2318 9.11435 57.463 12.5837C44.6943 16.0531 41.2611 15.9809 41.2611 15.9809L18.332 19.7956L35.6526 21.2545L27.7243 23.4918L18.7857 27.8375C18.7857 27.8375 21.4972 28.2602 24.3066 28.683C27.116 29.1057 30.0389 29.5284 30.4564 29.5284C31.2863 29.5284 30.8172 44.2255 35.5392 44.4781C40.2611 44.7306 43.1684 44.8905 43.1684 44.8905C43.1684 44.8905 38.0135 42.117 38.4517 42.117C38.8899 42.117 55.5196 44.7513 55.5196 44.7513L54.267 40.3128L65.7882 47.2721H68.2832Z" fill="#38261A" stroke="#1D1D1B" stroke-miterlimit="10"/>
<path d="M19.7492 59.0554L26.0383 71.8091L24.8166 54.2561L27.0023 42.5283L22.7597 54.2561L22.337 45.5853L18.7852 60.4215L19.7492 59.0554Z" fill="#1D1D1B"/>
<path d="M71.3245 44.0694C71.3245 44.0694 75.1754 31.9807 72.871 29.5218C70.5667 27.0628 58.2822 23.377 58.2822 23.377L71.3039 25.9545C72.6021 26.2125 73.7656 26.9255 74.585 27.965C75.4044 29.0046 75.8257 30.3025 75.7733 31.625C75.6135 35.6769 75.0104 41.1568 72.9896 43.2652C72.4142 43.4889 71.8575 43.7578 71.3245 44.0694Z" fill="#1D1D1B"/>
<path d="M79.7582 41.2084C80.3923 40.0176 80.9851 38.7804 81.5212 37.5328C82.0737 36.2949 82.5187 35.0117 82.8512 33.6975C83.0257 33.0601 83.085 32.3968 83.0265 31.7386C82.9613 31.4185 82.8465 31.1107 82.6863 30.8261C82.5297 30.5236 82.3576 30.2294 82.1708 29.9446C81.4187 28.805 80.5249 27.7657 79.5107 26.8516C80.5897 27.7158 81.5546 28.7135 82.3821 29.8209C82.5883 30.1009 82.7793 30.3917 82.9543 30.6921C83.0471 30.8416 83.1193 31.0014 83.2069 31.156C83.2873 31.3201 83.3479 31.4932 83.3873 31.6715C83.5029 32.3778 83.4889 33.0993 83.3461 33.8006C83.0867 35.1699 82.7125 36.515 82.2275 37.8215C81.7583 39.1309 81.2428 40.3991 80.6809 41.6775L79.7582 41.2084Z" fill="#1D1D1B"/>
<path d="M53.3385 39.1793C53.1937 37.9 52.9768 36.6298 52.689 35.3749C52.5503 34.7533 52.3641 34.1432 52.1323 33.55L51.9415 33.1325C51.8721 33.0077 51.7928 32.8888 51.7044 32.7768L51.5755 32.6324L51.3848 32.4726C51.2507 32.3644 51.1322 32.2509 51.0085 32.1427C49.0598 30.3693 47.1989 28.5341 45.3379 26.7041C47.3277 28.4053 49.3124 30.1219 51.3538 31.7457L51.7405 32.0396L51.9312 32.1839L52.1477 32.385C52.2691 32.5143 52.3811 32.6521 52.4828 32.7974C52.5653 32.952 52.6529 33.1015 52.7302 33.2562C53.0169 33.8653 53.2548 34.4962 53.4416 35.1429C53.8255 36.4162 54.855 39.1499 55.0893 40.4589L53.3385 39.1793Z" fill="#1D1D1B"/>
<path d="M38.312 42.6316C37.8921 42.4849 37.4894 42.2931 37.1109 42.0594C36.7164 41.8244 36.3672 41.5206 36.0799 41.1624C35.929 40.9726 35.8121 40.758 35.7345 40.5283C35.6595 40.3039 35.6213 40.0689 35.6211 39.8324C35.6211 39.4148 35.6211 39.0024 35.6211 38.5952C35.683 36.961 35.817 35.3423 35.9613 33.7236C35.9613 35.3475 36.0283 36.9713 36.1366 38.5849C36.1675 38.9869 36.2036 39.389 36.2552 39.7757C36.2697 39.954 36.315 40.1284 36.3892 40.2912C36.4572 40.4408 36.5515 40.5769 36.6676 40.6933C37.2081 41.178 37.8654 41.5137 38.5749 41.6676L38.312 42.6316Z" fill="#1D1D1B"/>
<path d="M56.7969 27.2227C56.7969 27.2227 70.5196 29.8002 70.5196 32.3777C70.5196 34.9552 68.5453 43.4353 68.5453 43.4353C68.5453 43.4353 69.633 33.4654 68.4473 32.7747C67.2616 32.0839 56.7969 27.2227 56.7969 27.2227Z" fill="#574331"/>
<path d="M75.3398 19.8203C75.3398 19.8203 85.2272 20.3358 88.9801 26.2384C90.3514 28.4086 87.0882 36.033 87.0882 36.033C87.0882 36.033 87.8615 30.914 87.5109 27.4446C87.3718 26.0579 75.3398 19.8203 75.3398 19.8203Z" fill="#574331"/>
<path d="M99.3772 167.02C99.8927 167.154 100.496 167.319 101.243 167.5L102.511 167.793L103.542 168.015C108.407 168.995 113.339 169.602 118.296 169.83L119.729 169.891C120.894 169.933 122.09 169.953 123.286 169.959H125.41C128.57 169.902 131.766 169.716 134.92 169.397C136.828 169.201 138.787 168.953 140.74 168.654C142.606 168.371 144.349 168.061 146.081 167.711L146.473 167.608L146.215 167.278C144.952 165.68 142.38 164.051 141.333 163.427L141.019 163.241H140.941C140.426 163.278 137.766 163.484 134.054 163.695L131.477 163.829H131.075C128.095 163.973 125.255 164.077 122.636 164.128H121.605L119.353 164.154H117.131C110.837 164.108 106.506 163.7 104.243 162.948C103.925 162.846 103.617 162.716 103.321 162.561L103.182 162.479L103.048 162.576C101.464 163.644 99.9665 164.833 98.5679 166.133L98.4029 166.309L98.1143 166.613L98.5163 166.731L99.3772 167.02Z" fill="#0A606E" stroke="#1D1D1B" stroke-linecap="round" stroke-linejoin="round"/>
<path d="M64.5656 177.845L63.1634 133.878C63.1614 133.831 63.1687 133.784 63.185 133.74C63.2013 133.696 63.2262 133.655 63.2584 133.62C63.2905 133.586 63.3292 133.558 63.3722 133.539C63.4152 133.519 63.4616 133.508 63.5088 133.507C63.605 133.504 63.6985 133.54 63.7689 133.605C63.8394 133.671 63.9273 133.405 64.3356 133.282L65.9773 178.429C65.7357 178.339 64.7944 177.964 64.5656 177.845Z" fill="#1D1D1B"/>
<path d="M57.1747 174.623L55.7357 133.572C55.7336 133.528 55.7411 133.484 55.7578 133.442C55.7745 133.401 55.8 133.363 55.8329 133.331C55.8658 133.298 55.9055 133.272 55.9495 133.254C55.9935 133.236 56.041 133.226 56.0893 133.225C56.1879 133.222 56.2835 133.255 56.3556 133.316C56.4278 133.378 57.3707 134.157 57.1283 133.988L58.472 175.229C58.2246 175.145 57.409 174.734 57.1747 174.623Z" fill="#1D1D1B"/>
<path d="M66.71 178.675C72.5506 164.705 97.1248 166.153 98.1558 166.225C98.2032 166.229 98.2495 166.242 98.292 166.263C98.3344 166.284 98.3723 166.313 98.4034 166.349C98.4345 166.385 98.4583 166.427 98.4733 166.472C98.4883 166.517 98.4943 166.565 98.4909 166.612C98.4875 166.659 98.4748 166.706 98.4536 166.748C98.4323 166.791 98.4029 166.829 98.367 166.86C98.3311 166.891 98.2894 166.915 98.2443 166.93C98.1993 166.945 98.6521 167.28 98.6047 167.277C98.3573 167.277 73.7087 165.569 68.0639 179.065C67.8214 179.016 66.9446 178.753 66.71 178.675Z" fill="#1D1D1B"/>
<path d="M38.2505 62.8848L23.5586 65.6221L25.6773 70.839L36.9514 67.2408L38.2505 62.8848Z" fill="#1D1D1B"/>
<path d="M145.941 166.927L150.21 166.447L149.107 167.406L146.472 167.829L145.941 166.927Z" fill="#1D1D1B"/>
<path d="M11.5176 123.77L11.8816 124.648L20.7369 117.728L21.0292 116.142L11.5176 123.77Z" fill="#1D1D1B"/>
</g>
<defs>
<radialGradient id="paint0_radial_1729_30989" cx="0" cy="0" r="1" gradientUnits="userSpaceOnUse" gradientTransform="translate(135.441 91.0172) rotate(-167.221) scale(5.78371 5.15466)">
<stop stop-color="#D3A78D"/>
<stop offset="1" stop-color="#1B99D9"/>
</radialGradient>
<radialGradient id="paint1_radial_1729_30989" cx="0" cy="0" r="1" gradientUnits="userSpaceOnUse" gradientTransform="translate(145.374 94.703) rotate(-7.49586) scale(4.45742 5.0385)">
<stop stop-color="#D3A78D"/>
<stop offset="1" stop-color="#1B99D9"/>
</radialGradient>
<radialGradient id="paint2_radial_1729_30989" cx="0" cy="0" r="1" gradientUnits="userSpaceOnUse" gradientTransform="translate(78.6388 73.406) rotate(180) scale(6.3201)">
<stop stop-color="#0A606E"/>
<stop offset="1" stop-color="#449166"/>
</radialGradient>
<radialGradient id="paint3_radial_1729_30989" cx="0" cy="0" r="1" gradientUnits="userSpaceOnUse" gradientTransform="translate(78.5003 73.3028) rotate(180) scale(6.17579 6.17576)">
<stop stop-color="#0A606E"/>
<stop offset="1" stop-color="#449166"/>
</radialGradient>
<radialGradient id="paint4_radial_1729_30989" cx="0" cy="0" r="1" gradientUnits="userSpaceOnUse" gradientTransform="translate(68.3659 -15.9156) scale(125.18 125.18)">
<stop stop-color="#0A606E"/>
<stop offset="1" stop-color="#449166"/>
</radialGradient>
<linearGradient id="paint5_linear_1729_30989" x1="67.6101" y1="80.2443" x2="68.154" y2="45.5582" gradientUnits="userSpaceOnUse">
<stop stop-color="white"/>
<stop offset="0.39" stop-color="white" stop-opacity="0.03"/>
<stop offset="1" stop-color="white" stop-opacity="0"/>
</linearGradient>
<clipPath id="clip0_1729_30989">
<rect width="190" height="190" fill="white" transform="translate(0.320312)"/>
</clipPath>
</defs>
</svg>
