<svg width="191" height="190" viewBox="0 0 191 190" fill="none" xmlns="http://www.w3.org/2000/svg">
<path d="M95.3203 190C147.787 190 190.32 147.467 190.32 95C190.32 42.5329 147.787 0 95.3203 0C42.8533 0 0.320312 42.5329 0.320312 95C0.320312 147.467 42.8533 190 95.3203 190Z" fill="white"/>
<path d="M34.9153 98.5771L31.2501 118.831C31.2501 118.831 48.3284 140.157 59.8702 137.636C64.19 136.687 67.1387 130.007 68.9841 121.068C68.3913 110.341 66.0922 111.464 66.0922 111.464L34.9153 98.5771Z" fill="#F0F8FF" stroke="#0F63AE" stroke-miterlimit="10"/>
<path d="M54.1529 121.368L49.5133 127.446L49.5855 127.59L49.7453 127.9L60.4884 136.091L67.5354 124.75L65.9219 121.389L54.1529 121.368Z" fill="white"/>
<path d="M146.565 167.808C139.659 169.235 132.636 170.024 125.585 170.163H121.378L120.116 170.132C114.046 169.975 108.005 169.245 102.073 167.952L101.151 167.735C99.202 167.271 98.0576 166.9 97.836 166.828H94.6038C82.5826 167.168 74.2007 169.818 69.6901 174.705C68.5932 175.893 67.7075 177.26 67.0714 178.746C80.666 183.49 95.1932 184.936 109.456 182.964C123.719 180.992 137.309 175.66 149.107 167.405L148.808 167.447C148.055 167.576 147.308 167.684 146.565 167.808Z" fill="#0F63AE"/>
<path d="M60.7924 135.73L39.4665 124.59L15.8209 133.353C15.8622 133.431 16.1096 134.235 16.1457 134.312C26.3447 154.236 43.5224 169.707 64.4009 177.773L64.6638 177.871L63.1585 134.132L60.7924 135.73Z" fill="#3396EF"/>
<path d="M20.0532 118.848L19.1129 118.996L11.7281 124.244C12.7592 127.11 14.3469 130.379 15.6563 133.121L19.1463 121.321L20.0532 118.848Z" fill="#3396EF"/>
<path d="M108.388 150.416C107.156 150.394 105.945 150.098 104.841 149.55C104.148 149.174 103.486 148.743 102.862 148.261C102.511 148.009 102.156 147.746 101.79 147.509C100.526 146.695 99.1307 146.107 97.6656 145.772C94.8579 145.171 92.1383 144.215 89.5723 142.926C87.222 141.715 85.1035 140.099 83.3143 138.153C81.8041 136.477 80.531 134.602 79.5306 132.58L79.4893 132.492L79.5151 132.395C79.7316 131.626 79.912 130.956 80.0615 130.333V130.26C80.0407 129.657 79.9891 129.055 79.9069 128.456V128.327L74.422 125.234L63.5452 133.9L64.5761 163.963L65.0607 178.093L65.3236 178.191L66.5763 178.65L66.8185 178.732C67.4655 177.213 68.3707 175.818 69.4939 174.608C74.386 169.304 83.7937 166.613 97.4594 166.613H97.7326L97.8408 166.474C98.145 166.082 99.2533 164.881 102.996 162.231L103.212 162.082L103.29 161.999C103.321 161.943 106.774 156.112 108.398 151.535C108.491 151.267 108.579 151.019 108.661 150.756L108.764 150.432L108.388 150.416Z" fill="#3396EF"/>
<path d="M60.7924 135.729L65.0659 132.332L68.1847 129.848L71.5355 127.177L73.8965 125.296L74.3192 124.961H74.4533L79.8248 128.054L79.7578 127.538C79.6238 126.471 79.4485 125.296 79.2732 124.162C79.0413 122.615 78.7577 120.661 78.5 118.584L78.4227 117.929C78.3608 117.383 78.3041 116.826 78.2474 116.259V116.12L72.5768 113.114L72.4583 113.176C71.793 113.526 71.0787 113.773 70.3395 113.908C69.9581 113.975 69.5508 114.032 69.0611 114.083L68.5456 114.135L69.6127 121.553C69.6178 121.579 69.6178 121.605 69.6127 121.63L60.7924 135.729Z" fill="#3396EF" stroke="#0F63AE" stroke-linecap="round" stroke-linejoin="round"/>
<path d="M39.4972 124.184C39.5264 124.185 39.5551 124.187 39.5799 124.203L60.7976 135.729L37.4355 119.079C37.4188 119.068 37.4043 119.055 37.3928 119.039C37.3813 119.023 37.373 119.005 37.3685 118.986L33.2002 105.949L22.7491 111.733L15.8209 132.868L16.2385 133.714L39.4356 124.223C39.4533 124.204 39.474 124.195 39.4972 124.184Z" fill="#3396EF" stroke="#0F63AE" stroke-linecap="round" stroke-linejoin="round"/>
<path d="M59.2777 163.261C55.2155 163.184 51.2049 164.138 47.2973 165.251C46.055 165.607 44.8023 165.988 43.5857 166.452C50.0862 171.162 57.1721 175.006 64.6647 177.886L64.242 163.653C62.5989 163.403 60.9398 163.272 59.2777 163.261Z" fill="#3396EF"/>
<path d="M98.1138 166.586C98.4695 166.133 99.0727 165.359 102.753 162.735L103.006 161.864C103.006 161.864 106.46 156.049 108.094 151.441C106.653 150.67 105.169 149.982 103.65 149.379C100.918 148.307 97.8613 147.497 95.0776 148.441C92.2939 149.384 90.3711 151.889 88.6185 154.256C85.9792 157.837 83.3364 161.417 80.6902 164.998C80.2356 165.765 79.5626 166.379 78.7571 166.761C78.019 166.957 77.2425 166.957 76.5044 166.761C72.5712 165.998 68.4473 164.699 64.5295 163.936L64.9522 178.04L66.9111 178.747C67.5349 177.175 68.43 175.725 69.5556 174.463C74.5507 169.05 84.3451 166.566 98.1138 166.586Z" fill="#3396EF"/>
<path d="M161.396 139.018C157.272 142.951 152.03 145.91 146.215 148.297C142.493 149.893 138.558 150.935 134.534 151.39C134.39 149.735 134.018 147.838 134.652 145.549C136.235 139.998 140.838 144.549 141.658 138.848C143.967 123.177 142.519 107.228 141.065 91.4537L125.76 63.4934C128.626 57.823 132.802 51.6835 139.132 51.1216C143.436 50.7505 147.468 53.1836 150.901 55.7611C155.888 59.6738 159.883 64.7071 162.561 70.4526C165.505 76.6024 166.242 83.0461 168.098 89.5258C169.752 95.2735 171.087 101.145 171.526 107.125C172.34 118.378 169.804 131.028 161.396 139.018Z" fill="white" stroke="#0F63AE" stroke-miterlimit="10"/>
<path d="M151.24 145.559L151.575 145.76C149.828 146.683 148.044 147.544 146.214 148.292C142.414 149.842 138.423 150.874 134.348 151.359C134.111 149.972 134.765 148.621 134.807 148.168C134.884 147.291 158.736 94.5566 158.736 94.5566L163.731 108.599C165.055 112.278 165.447 116.228 164.872 120.096C164.298 123.964 162.774 127.629 160.437 130.765L160.282 130.966C156.86 135.565 153.835 140.447 151.24 145.559Z" fill="#F0F8FF"/>
<path d="M112.765 135.615C112.765 135.615 135.73 142.471 134.652 146.801C131.467 159.632 141.313 163.926 141.313 163.926C141.313 163.926 105.393 167.669 102.573 162.72C107.61 157.591 112.765 135.615 112.765 135.615Z" fill="#F0F8FF" stroke="#0F63AE" stroke-miterlimit="10"/>
<path d="M115.976 161.35C116.811 159.009 119.131 157.03 121.26 155.875C122.541 155.166 124.034 154.943 125.467 155.246C126.778 155.477 128.048 155.901 129.235 156.504C131.812 157.824 133.694 160.339 133.792 163.278C133.854 165.113 131.519 165.422 130.658 164.231L130.426 164.386C130.993 165.386 130.513 167.03 128.993 167.082C126.174 167.181 123.353 166.988 120.574 166.505C119.28 166.278 117.729 166.108 116.754 165.133C116.284 164.639 115.961 164.022 115.824 163.353C115.686 162.684 115.739 161.99 115.976 161.35Z" fill="white"/>
<path d="M161.396 139.018C157.272 142.951 152.03 145.91 146.215 148.297C142.493 149.893 138.558 150.935 134.534 151.39C134.39 149.735 134.018 147.838 134.652 145.549C136.235 139.998 140.838 144.549 141.658 138.848C143.967 123.177 142.519 107.228 141.065 91.4537L125.76 63.4934C128.626 57.823 132.802 51.6835 139.132 51.1216C143.436 50.7505 147.468 53.1836 150.901 55.7611C155.888 59.6738 159.883 64.7071 162.561 70.4526C165.505 76.6024 166.242 83.0461 168.098 89.5258C169.752 95.2735 171.087 101.145 171.526 107.125C172.34 118.378 169.804 131.028 161.396 139.018Z" stroke="#0F63AE" stroke-miterlimit="10"/>
<path d="M99.4541 120.424C99.4541 120.424 99.5417 132.522 107.857 138.631C113.295 142.626 122.698 146.327 127.832 148.652C132.121 150.59 135.255 151.198 141.142 146.714C151.153 139.089 158.086 128.47 158.05 118.97C157.961 116.918 157.434 114.909 156.504 113.078C156.504 113.078 165.38 103.216 154.648 84.535C145.817 69.1733 139.606 63.5957 136.173 63.5957H130.265C130.265 63.5957 112.145 73.6375 107.387 86.3237C102.63 99.01 96.423 108.062 99.4541 120.424Z" fill="white" stroke="#0F63AE" stroke-miterlimit="10"/>
<path d="M107.136 85.9269C107.884 83.9778 108.867 82.1273 110.064 80.4163C111.61 79.1688 113.224 77.9574 114.827 76.7666C114.995 76.6523 115.185 76.5749 115.385 76.5393C115.585 76.5038 115.79 76.511 115.987 76.5604C116.977 75.5329 118.051 74.5897 119.198 73.7407C119.946 73.1891 121.121 73.617 121.559 74.3593C121.78 74.7572 121.838 75.2252 121.722 75.6653C121.606 76.1053 121.324 76.4833 120.935 76.7202C117.373 79.3389 114.564 86.6332 115.234 92.3551C122.544 91.886 126.255 91.1695 127.441 93.716C130.833 101.01 125.626 108.124 125.492 109.933C120.683 116.887 110.265 106.583 106.538 114.573C104.11 119.795 109.332 133.357 110.837 135.569C113.626 139.667 118.196 142.339 121.964 145.556C116.386 143.313 111.162 140.796 107.605 138.182C99.2898 132.079 99.2022 119.975 99.2022 119.975C96.1659 107.66 102.388 98.6132 107.136 85.9269Z" fill="#F0F8FF"/>
<path d="M141.875 125.074C141.875 125.074 139.54 124.244 138.168 124.311C136.268 124.478 134.42 125.019 132.73 125.904C132.73 125.904 137.57 126.657 138.4 126.42C139.23 126.183 141.875 125.074 141.875 125.074Z" fill="#F0F8FF"/>
<path d="M140.431 117.584C141.133 118.344 141.731 119.193 142.21 120.11C142.744 121.043 143.041 122.092 143.076 123.167C143.064 123.458 143.007 123.745 142.906 124.017C142.803 124.286 142.657 124.535 142.473 124.755C142.126 125.187 141.69 125.538 141.194 125.786C140.252 126.246 139.216 126.481 138.168 126.471C139.141 126.231 140.072 125.847 140.931 125.332C141.741 124.817 142.4 124.048 142.39 123.157C142.393 122.684 142.325 122.213 142.189 121.76C142.059 121.283 141.899 120.814 141.71 120.357C141.333 119.419 140.89 118.507 140.431 117.584Z" fill="#0F63AE"/>
<path d="M139.451 116.187C139.571 117.533 139.792 118.868 140.111 120.182C140.261 120.836 140.25 121.548 140.41 122.177C140.487 122.491 140.771 123.661 141.204 123.919C141.467 123.945 141.658 123.636 141.72 123.455C141.799 123.264 141.845 123.059 141.854 122.852C141.862 122.5 141.803 122.15 141.678 121.821C141.457 121.171 141.018 120.61 140.766 119.991C140.207 118.768 139.766 117.494 139.451 116.187Z" fill="white"/>
<path d="M127.679 93.2369C127.696 93.0591 127.677 92.8796 127.623 92.7094C127.569 92.5392 127.48 92.3818 127.363 92.2471C127.246 92.1124 127.102 92.0031 126.941 91.926C126.78 91.8489 126.604 91.8055 126.426 91.7987C123.549 91.4636 116.734 90.7213 115.6 91.0873C114.131 91.5512 109.455 95.9794 109.043 98.1497C115.059 94.0257 114.714 93.8452 116.214 93.7112C117.714 93.5772 126.735 94.5515 127.307 94.1236C127.536 93.8838 127.668 93.5681 127.679 93.2369Z" fill="#0F63AE"/>
<path d="M143.148 108.403C143.148 108.403 141.792 103.697 143.03 101.186C144.267 98.6756 151.175 98.124 151.175 98.124C151.175 98.124 158.392 100.882 159.505 103.094C160.247 104.578 158.113 110.001 158.113 110.001L155.902 112.955C155.902 112.955 157.83 115.481 157.448 120.502C155.592 116.832 152.886 112.208 149.375 112.888C145.483 113.641 146.2 113.527 146.2 113.527C146.2 113.527 144.653 112.192 144.653 111.981C144.653 111.769 143.148 108.403 143.148 108.403Z" fill="#F0F8FF"/>
<path d="M142.931 100.789C142.848 100.479 142.871 100.15 142.997 99.8556C143.123 99.5608 143.345 99.3174 143.627 99.1648C145.561 98.3657 150.149 96.5151 150.984 96.6903C152.04 96.9069 157.025 99.2988 157.556 101.376C152.963 98.3193 151.922 99.2627 150.855 99.3761C149.788 99.4895 143.736 101.928 143.292 101.603C143.092 101.374 142.967 101.09 142.931 100.789Z" fill="#0F63AE"/>
<path d="M100.249 103.5C97.7486 117.465 104.45 135.059 113.244 144.41C114.037 146.134 114.366 148.035 114.198 149.926C110.976 150.266 107.543 151.292 104.496 149.725C103.452 149.104 102.442 148.427 101.47 147.699C100.178 146.864 98.7492 146.264 97.2486 145.925C94.4575 145.328 91.7536 144.379 89.2018 143.1C86.8792 141.901 84.7854 140.303 83.0159 138.379C81.5267 136.716 80.268 134.861 79.2734 132.863C79.4848 132.136 79.6755 131.419 79.8456 130.724C79.392 120.965 71.4121 99.495 89.1863 69.1428C106.574 39.4505 127.596 54.0286 127.596 54.0286L132.58 72.6843C110.497 81.3858 114.306 94.1597 100.249 103.5Z" fill="white"/>
<path d="M146.519 53.5344C146.519 53.5344 134.405 44.1215 126.894 52.756C129.848 62.1792 132.564 72.6694 132.564 72.6694C132.564 72.6694 149.395 71.788 156.143 88.0002" fill="white"/>
<path d="M146.519 53.5343C145.03 52.5103 143.443 51.6365 141.782 50.9259C140.14 50.2077 138.404 49.7269 136.627 49.498C134.875 49.248 133.089 49.4248 131.421 50.0135C129.778 50.634 128.324 51.6715 127.204 53.0239L127.286 52.6373C127.829 54.2766 128.345 55.9244 128.833 57.5809C129.348 59.2304 129.864 60.8852 130.312 62.5451C131.266 65.87 132.194 69.1949 133.055 72.5404L132.539 72.1641C135.087 72.1372 137.624 72.4846 140.071 73.1951C142.514 73.888 144.84 74.9408 146.973 76.319C149.097 77.7123 150.978 79.4451 152.54 81.4481C154.056 83.4444 155.272 85.6518 156.149 88C155.115 85.7409 153.78 83.6323 152.179 81.7317C151.368 80.8042 150.493 79.9344 149.561 79.1284C148.62 78.3376 147.623 77.6173 146.576 76.9737C144.472 75.7063 142.201 74.7414 139.828 74.1075C138.643 73.7904 137.437 73.5527 136.22 73.3962C135.016 73.223 133.801 73.1489 132.586 73.1745H132.173L132.07 72.7879L130.74 67.8031L129.364 62.8183L127.962 57.8386L126.508 52.8796L126.441 52.6579L126.59 52.493C127.82 51.0637 129.407 49.9858 131.189 49.3691C132.965 48.7961 134.854 48.6599 136.694 48.9722C138.5 49.2849 140.251 49.8543 141.895 50.663C143.54 51.4429 145.091 52.4061 146.519 53.5343Z" fill="#0F63AE"/>
<path d="M109.698 104.052C109.698 104.052 120.008 98.4228 126.333 107.243C126.08 111.713 122.915 114.28 120.797 113.738L113.322 111.826C113.322 111.826 108.239 110.625 109.698 104.052Z" fill="white"/>
<path d="M124.554 108.81C123.683 111.696 120.461 113.449 117.337 112.733C114.213 112.016 112.419 109.093 113.29 106.211C114.161 103.33 117.198 102.18 120.306 102.897C123.415 103.613 125.44 105.928 124.554 108.81Z" fill="#3396EF" stroke="#0F63AE" stroke-miterlimit="10"/>
<path d="M110.12 112.115C110.12 112.115 118.58 109.022 124.039 115.404C114.806 117.213 110.12 112.115 110.12 112.115Z" fill="white"/>
<path d="M122.233 108.679C123.276 106.623 122.706 104.237 120.96 103.351C119.213 102.464 116.951 103.413 115.907 105.469C114.864 107.525 115.433 109.911 117.18 110.798C118.927 111.684 121.189 110.736 122.233 108.679Z" fill="#0F63AE"/>
<path d="M121.827 108.151C122.795 108.151 123.579 107.463 123.579 106.614C123.579 105.766 122.795 105.078 121.827 105.078C120.859 105.078 120.074 105.766 120.074 106.614C120.074 107.463 120.859 108.151 121.827 108.151Z" fill="white"/>
<path d="M115.837 109.037C116.219 109.037 116.528 108.767 116.528 108.434C116.528 108.101 116.219 107.831 115.837 107.831C115.456 107.831 115.146 108.101 115.146 108.434C115.146 108.767 115.456 109.037 115.837 109.037Z" fill="white"/>
<path d="M127.291 112.733C127.291 112.733 129.044 106.671 123.832 103.186C117.502 99.1084 107.609 103.81 107.609 103.81C108.074 106.015 109.058 108.078 110.481 109.826C109.398 107.181 109.64 105.975 109.64 105.975C109.64 105.975 117.827 101.078 123.1 105.104C127.565 108.511 127.291 112.733 127.291 112.733Z" fill="#0F63AE"/>
<path d="M122.333 113.811C121.467 113.476 120.637 113.11 119.755 112.852C118.901 112.574 118.03 112.352 117.147 112.187C115.364 111.848 113.554 111.675 111.739 111.671C112.633 111.403 113.559 111.263 114.492 111.254C115.428 111.234 116.363 111.315 117.281 111.496C117.74 111.579 118.193 111.713 118.642 111.836C119.087 111.984 119.524 112.156 119.951 112.352C120.811 112.721 121.613 113.212 122.333 113.811Z" fill="#0F63AE"/>
<path d="M155.582 105.619C155.582 105.619 148.973 98.7683 142.622 106.65C141.983 111.084 143.859 113.682 145.535 113.419C147.21 113.156 151.448 112.821 151.448 112.821C151.448 112.821 155.448 112.275 155.582 105.619Z" fill="white"/>
<path d="M143.627 108.408C143.741 111.357 145.808 113.496 148.267 113.187C150.726 112.878 152.597 110.233 152.489 107.284C152.381 104.336 150.329 102.82 147.89 103.129C145.452 103.439 143.534 105.459 143.627 108.408Z" fill="#3396EF" stroke="#0F63AE" stroke-miterlimit="10"/>
<path d="M153.937 115.187C153.937 115.187 149.937 108.867 142.808 114.96C149.344 117.919 153.937 115.187 153.937 115.187Z" fill="white"/>
<path d="M150.783 107.492C150.864 105.242 149.704 103.373 148.19 103.318C146.676 103.263 145.383 105.043 145.301 107.293C145.22 109.544 146.38 111.413 147.894 111.468C149.408 111.523 150.701 109.743 150.783 107.492Z" fill="#0F63AE"/>
<path d="M152.933 107.311C153.13 106.483 152.712 105.674 152 105.505C151.288 105.336 150.552 105.87 150.355 106.699C150.158 107.527 150.576 108.335 151.288 108.504C152 108.673 152.736 108.139 152.933 107.311Z" fill="white"/>
<path d="M140.895 111.918C140.895 111.918 140.714 105.732 145.235 102.964C150.7 99.7574 157.179 105.644 157.179 105.644C156.458 107.686 155.356 109.571 153.932 111.202C155.221 108.737 155.267 107.521 155.267 107.521C155.267 107.521 150.112 101.654 145.421 104.943C143.072 106.6 141.451 109.098 140.895 111.918Z" fill="#0F63AE"/>
<path d="M144.38 113.615C144.949 113.16 145.586 112.797 146.267 112.537C147.643 112.004 149.14 111.861 150.592 112.125C151.318 112.241 152.017 112.489 152.654 112.857C151.958 112.724 151.253 112.637 150.545 112.599C149.159 112.523 147.769 112.655 146.421 112.991C145.731 113.146 145.071 113.409 144.38 113.615Z" fill="#0F63AE"/>
<path d="M147.055 111.202C147.351 111.202 147.591 110.932 147.591 110.599C147.591 110.266 147.351 109.996 147.055 109.996C146.759 109.996 146.519 110.266 146.519 110.599C146.519 110.932 146.759 111.202 147.055 111.202Z" fill="white"/>
<path d="M122.858 79.102L123.028 78.968C123.085 78.9216 123.141 78.8752 123.203 78.8339C127.507 76.0631 132.594 74.7642 137.699 75.1326C143.261 75.5089 152.571 78.2514 153.412 84.8757C153.591 85.9706 153.449 87.0941 153.002 88.1098C152.556 89.1255 151.824 89.9898 150.896 90.5978C149.272 91.6288 147.288 92.1443 145.452 92.6598C143.443 93.2593 141.363 93.5887 139.266 93.6393C136.901 93.6585 134.544 93.3462 132.266 92.7114C130.204 92.1959 128.327 91.0772 126.353 90.2266C124.668 89.5928 123.111 88.6622 121.755 87.479C120.26 86.0562 119.064 83.9168 120.115 81.9012C120.734 80.7155 121.811 79.901 122.858 79.102Z" fill="white"/>
<path d="M114.894 129.08C115.162 128.049 115.533 126.977 116.379 126.296C117.229 125.647 118.229 125.22 119.286 125.054C120.345 124.895 121.419 124.852 122.487 124.925C122.807 124.925 125.452 125.039 125.493 124.925C125.256 125.637 124.338 125.796 123.714 125.956C122.879 126.188 122.018 126.26 121.193 126.544C119.698 127.062 118.341 127.917 117.229 129.044C116.694 129.609 116.21 130.22 115.781 130.869C115.551 131.21 115.344 131.567 115.162 131.936C115.049 132.312 114.907 132.679 114.739 133.034C114.466 133.117 114.337 132.709 114.353 132.426C114.424 131.296 114.606 130.175 114.894 129.08Z" fill="white"/>
<path d="M135.56 140.214L139.617 138.369C139.617 138.369 139.565 138.472 139.488 138.652C139.308 139.049 139.014 139.848 138.735 140.626C138.528 141.212 138.152 141.722 137.655 142.094C137.158 142.466 136.561 142.682 135.941 142.714C135.044 142.756 134.003 142.797 133.075 142.797C132.266 142.794 131.476 142.546 130.81 142.086C130.143 141.626 129.632 140.975 129.343 140.219L128.611 138.343L135.56 140.214Z" fill="#F0F8FF"/>
<path d="M145.221 131.058C143.159 131.007 137.957 130.924 137.189 131.347C136.584 131.681 136.01 132.067 135.473 132.502C135.473 132.502 134.251 131.352 133.637 131.264C132.606 131.125 124.874 130.579 122.265 130.233C129.557 133.312 137.726 133.606 145.221 131.058Z" fill="#3396EF"/>
<path d="M145.623 131.966L144.417 133.224C143.535 134.158 142.593 135.032 141.597 135.843C139.411 137.575 137.313 138.42 135.204 138.42H134.967C130.988 138.302 126.673 135.75 122.136 130.853C123.791 134.224 128.06 140.56 134.952 140.369C141.205 140.214 144.489 134.461 145.623 131.966Z" fill="#3396EF"/>
<path d="M146.509 130.718L146.37 130.517L146.143 130.604C145.834 130.723 145.53 130.826 145.22 130.934C137.724 133.477 129.555 133.178 122.265 130.094L122.059 130.001L121.069 129.486C121.275 129.259 121.517 129.032 121.791 128.748C121.528 128.706 121.258 128.744 121.017 128.857C120.77 128.963 120.551 129.125 120.378 129.331C120.201 129.542 120.086 129.796 120.043 130.068C119.995 130.333 120.035 130.606 120.156 130.846C120.296 130.609 120.383 130.403 120.502 130.223C120.605 130.041 120.724 129.868 120.858 129.707L120.935 129.62L121.687 130.455L122.136 130.939C126.672 135.837 130.987 138.388 134.967 138.507H135.204C137.312 138.507 139.411 137.661 141.596 135.929C142.594 135.119 143.536 134.242 144.416 133.305L145.622 132.053C146.674 130.97 146.633 130.898 146.509 130.718Z" fill="#0F63AE"/>
<path d="M134.988 137.92C136.344 137.939 137.684 137.618 138.885 136.987C138.983 136.642 139.086 136.281 139.189 135.91C138.094 136.171 136.96 136.228 135.844 136.08C137.061 136.048 138.26 135.773 139.37 135.27C139.602 134.43 139.839 133.595 140.035 132.873C134.346 133.752 128.526 133.152 123.136 131.131C127.353 135.528 131.333 137.807 134.988 137.92Z" fill="white"/>
<path d="M133.889 148.451C135.626 148.451 137.034 147.673 137.034 146.714C137.034 145.754 135.626 144.977 133.889 144.977C132.152 144.977 130.745 145.754 130.745 146.714C130.745 147.673 132.152 148.451 133.889 148.451Z" fill="white"/>
<path d="M122.668 66.0709L100.439 68.8185L100.274 61.0859C100.274 61.0859 94.351 68.0246 94.351 69.8495C94.4353 71.3224 94.7108 72.778 95.1706 74.1798L122.668 66.0709Z" fill="white"/>
<path d="M129.786 64.772C124.858 61.3129 120.316 61.6789 120.316 61.6789C120.316 61.6789 125.301 58.8591 128.435 60.1324C125.224 57.1786 118.424 54.9774 111.996 55.0341C117.151 53.0648 122.626 52.2967 127.544 54.7299L132.431 71.8447C132.431 71.8447 129.369 65.5607 117.734 69.3136C123.007 66.2463 124.848 63.8905 129.786 64.772Z" fill="#F0F8FF"/>
<path d="M104.496 149.725C103.452 149.104 102.442 148.428 101.47 147.699C100.925 147.351 100.354 147.044 99.7635 146.782C94.8251 141.173 86.6339 133.858 84.6854 128.976C81.5924 121.244 86.4535 111.532 89.0464 106.413C91.6394 101.295 94.3508 86.2422 94.3508 86.2422C94.6348 91.5858 94.6348 96.9407 94.3508 102.284C93.8354 109.393 87.7835 112.857 89.0464 122.62C90.7476 133.714 106.382 137.394 109.666 140.029C112.95 142.663 113.79 145.885 114.244 148.462C114.319 148.95 114.34 149.444 114.306 149.936C114.244 149.926 107.542 151.292 104.496 149.725Z" fill="#F0F8FF"/>
<path d="M80.5872 118.521C81.9274 123.924 82.7677 126.986 82.1336 132.249C81.9621 133.614 81.6933 134.964 81.3295 136.29C80.5318 135.218 79.8412 134.07 79.2675 132.862C79.7057 130.713 79.4892 127.883 79.2211 125.687L77.9066 114.892C76.2467 82.6638 88.6598 70.0446 96.6808 59.3945C79.3036 85.8857 78.7211 110.98 80.5872 118.521Z" fill="#F0F8FF"/>
<path d="M91.3357 90.5874L84.8197 102.284C84.8197 102.284 86.8818 85.2262 87.6911 83.0146C84.3506 91.4174 81.5927 104.764 82.3608 111.522C86.9539 103.851 91.3357 90.5874 91.3357 90.5874Z" fill="white"/>
<path d="M101.166 95.2018C104.105 92.4026 104.476 87.9332 106.017 84.1803C107.426 80.7413 109.879 77.8315 113.03 75.8614C116.181 73.8913 119.872 72.9604 123.58 73.2L120.266 75.0146L119.75 74.4682C117.062 75.7038 114.732 77.6039 112.982 79.9892C111.399 82.144 110.342 84.6288 109.229 87.0517C108.115 89.4745 106.904 91.9129 105.105 93.8718C103.305 95.8307 100.769 97.2896 98.0989 97.2638C99.2083 96.7156 100.24 96.0222 101.166 95.2018Z" fill="white"/>
<path d="M142.565 114.785C142.968 114.641 143.215 114.831 143.643 114.965C147.169 116.089 151.401 114.403 154.499 116.424C154.8 116.592 155.043 116.847 155.195 117.156C155.484 117.857 154.922 118.625 154.288 119.048C152.339 120.347 149.231 119.77 147.205 118.894C145.499 118.162 143.184 116.615 142.565 114.785Z" fill="white"/>
<path d="M108.26 116.12C108.688 114.408 110.796 113.465 112.487 113.975L113.688 114.295C119.384 115.841 125.838 112.872 131.308 114.81C130.679 115.115 129.978 115.326 129.334 115.615C125.895 117.161 122.957 119.785 119.348 120.878C117.119 121.548 114.749 121.6 112.492 121.027C111.311 120.778 110.218 120.217 109.327 119.404C108.885 118.992 108.555 118.474 108.369 117.9C108.182 117.325 108.145 116.713 108.26 116.12Z" fill="white"/>
<path d="M92.5571 117.27C92.5571 117.27 97.4338 137.06 102.501 139.436C107.569 141.813 109.435 140.952 109.435 140.952V139.488L103.625 128.415C103.625 128.415 92.9644 119.594 92.5571 117.27Z" fill="#F0F8FF"/>
<path d="M105.115 75.958C104.347 76.6161 103.646 77.3482 103.022 78.1437C102.42 78.9073 101.864 79.706 101.357 80.5357C100.842 81.3605 100.383 82.2369 99.8981 83.1132C99.661 83.5566 99.4393 84.0102 99.1764 84.4587C98.9443 84.9298 98.6861 85.3876 98.4032 85.8299C98.3843 85.2967 98.4015 84.7628 98.4547 84.2319C98.5372 83.7164 98.63 83.2009 98.764 82.6854C99.049 81.6487 99.4794 80.6577 100.042 79.7418C100.609 78.8115 101.329 77.9836 102.172 77.2932C103.006 76.5772 104.027 76.114 105.115 75.958Z" fill="#F0F8FF"/>
<path d="M127.693 55.5552C127.693 55.5552 131.028 51.4776 136.359 52.2715C141.689 53.0653 146.72 57.6018 146.72 57.6018C146.72 57.6018 136.353 52.2715 132.575 56.2202C137.637 56.6842 145.437 61.1072 145.437 61.1072L130.013 63.5971L127.693 55.5552Z" fill="#F0F8FF"/>
<path d="M147.911 62.0026C154.942 64.5182 161.396 68.9102 165.814 74.9415C170.217 81.0572 172.203 88.5847 171.392 96.0766C170.118 108.036 156.283 113.088 156.283 113.088C156.798 112.444 157.633 110.382 157.978 109.624C161.484 101.819 159.427 93.128 154.226 86.3132C149.024 79.4984 142.694 74.9724 134.508 72.5084C134.055 72.4167 133.635 72.2048 133.292 71.8949C133.044 71.5466 132.869 71.1522 132.776 70.7351C131.472 67.1266 131.23 66.6936 130.328 62.946C134.271 55.7239 142.225 59.9664 147.911 62.0026Z" fill="white"/>
<path d="M99.7639 113.284C99.7639 113.284 98.6762 106.191 100.996 103.681C100.374 103.86 99.7954 104.165 99.2947 104.575C98.794 104.985 98.3819 105.493 98.0834 106.067C98.0834 106.067 97.4235 100.34 99.7639 98.7627C95.2636 101.067 95.1244 103.892 95.1244 103.892L99.4907 113.573L99.7639 113.284Z" fill="#F0F8FF"/>
<path d="M139.504 61.5601C140.184 61.2714 170.068 68.4524 167.985 92.3461C165.712 86.4641 164.856 77.4531 154.881 72.6847C159.124 75.8293 159.675 78.9687 159.675 78.9687C159.675 78.9687 144.159 65.5965 134.132 65.3439C141.38 65.3439 146.504 67.4059 146.185 67.1585C145.865 66.911 139.504 61.5601 139.504 61.5601Z" fill="white"/>
<path d="M131.838 68.2197C131.838 68.2197 182.047 76.3954 156.283 113.068C158.938 106.593 160.994 104.144 158.649 95.0253C157.793 91.7004 156.015 88.7363 153.906 86.0248C143.54 72.6787 132.704 72.5086 132.704 72.5086L131.838 68.2197Z" fill="#F0F8FF"/>
<path d="M147.911 62.0027C154.942 64.5183 161.396 68.9103 165.814 74.9415C170.217 81.0573 172.203 88.5848 171.391 96.0767C170.118 108.036 156.282 113.088 156.282 113.088C156.798 112.444 157.633 110.382 157.978 109.624C161.484 101.819 159.427 93.1281 154.225 86.3133C149.024 79.4985 144.575 75.6426 136.41 73.1167C133.023 72.0857 132.889 73.0084 132.58 72.6682C132.271 72.328 132.064 70.6578 131.977 70.2454C131.08 66.4978 130.915 67.3432 130.018 63.5955C134.271 54.5383 142.225 59.9665 147.911 62.0027Z" stroke="#0F63AE" stroke-linecap="round" stroke-linejoin="round"/>
<path d="M132.58 72.6696L127.023 53.2041" stroke="#0F63AE" stroke-linecap="round" stroke-linejoin="round"/>
<path d="M154.227 86.304C149.02 79.5147 144.576 75.6433 136.411 73.1173C133.024 72.0863 133.199 72.6688 132.58 72.6688" stroke="#0F63AE" stroke-linecap="round" stroke-linejoin="round"/>
<path d="M99.8103 107.46C99.068 119.925 104.599 134.235 111.96 142.947C113.373 144.575 114.18 146.642 114.244 148.797C114.244 149.179 114.244 149.555 114.203 149.926C110.981 150.267 107.548 151.292 104.501 149.725C103.457 149.105 102.447 148.428 101.475 147.699C100.183 146.865 98.754 146.265 97.2535 145.926C94.4624 145.329 91.7585 144.38 89.2067 143.101C86.884 141.902 84.7902 140.303 83.0208 138.379C81.5316 136.717 80.2729 134.862 79.2783 132.864C79.4896 132.137 79.6804 131.42 79.8505 130.724C79.3968 120.966 71.417 99.4958 89.1912 69.1436C106.579 39.4513 126.92 52.7561 126.92 52.7561L132.59 72.6696C111.971 80.8092 113.924 92.4851 102.831 101.599C101.952 102.316 101.229 103.206 100.71 104.215C100.19 105.223 99.8836 106.328 99.8103 107.46V107.46Z" stroke="#0F63AE" stroke-miterlimit="10"/>
<path d="M99.4244 147.168C98.2852 146.08 97.2026 144.967 96.1355 143.828C95.0684 142.688 94.0271 141.539 93.0115 140.358C90.977 138.008 89.0404 135.58 87.2018 133.074C89.1779 135.48 91.2399 137.793 93.3879 140.013C94.4601 141.126 95.5633 142.214 96.6819 143.286C97.8006 144.359 98.9399 145.405 100.105 146.379L99.4244 147.168Z" fill="#0F63AE"/>
<path d="M114.084 150.143C113.489 149.931 112.918 149.66 112.378 149.333C111.853 149.019 111.347 148.674 110.862 148.302C109.906 147.571 109.014 146.759 108.197 145.874C107.386 145 106.635 144.072 105.949 143.096C105.604 142.611 105.29 142.106 104.96 141.611L104.063 140.064L105.068 141.523C105.434 141.992 105.774 142.472 106.156 142.926C106.896 143.839 107.699 144.7 108.558 145.503C109.41 146.299 110.327 147.022 111.3 147.663C111.785 147.975 112.288 148.259 112.806 148.514C113.3 148.766 113.818 148.968 114.352 149.117L114.084 150.143Z" fill="#0F63AE"/>
<path d="M99.986 114.197C99.986 114.197 94.233 99.8556 93.1092 100.99C91.9854 102.124 89.9594 110.655 92.2586 117.043C94.5577 123.43 98.8261 127.409 101.125 127.683C102.45 127.966 102.837 126.554 102.837 126.554C101.39 122.565 100.433 118.416 99.986 114.197Z" fill="white" stroke="#0F63AE" stroke-miterlimit="10"/>
<path d="M94.8667 102.938C94.8667 102.938 92.2067 108.253 93.1501 112.64C94.0934 117.027 96.439 123.11 101.713 123.466C100.099 117.171 99.9857 114.186 99.9857 114.186L94.7584 102.742" fill="#F0F8FF"/>
<path d="M97.3252 108.542C97.1084 108.693 96.908 108.865 96.7272 109.058C96.5342 109.269 96.3616 109.499 96.2117 109.743C95.8938 110.242 95.6588 110.788 95.5157 111.362C95.3762 111.958 95.319 112.57 95.3456 113.182C95.3456 113.491 95.4023 113.8 95.4281 114.115C95.4539 114.429 95.5518 114.728 95.6137 115.037C95.5054 114.744 95.3869 114.45 95.2838 114.146C95.1807 113.842 95.0982 113.532 95.0466 113.218C94.92 112.576 94.8784 111.921 94.9229 111.269C94.9898 110.596 95.1639 109.938 95.4384 109.321C95.7181 108.664 96.1285 108.071 96.6447 107.578L97.3252 108.542Z" fill="#0F63AE"/>
<path d="M97.2327 120.471C97.8191 121.14 98.5344 121.683 99.3359 122.069C99.7155 122.251 100.118 122.381 100.532 122.455C100.929 122.522 101.333 122.533 101.733 122.486V123.677C101.229 123.63 100.736 123.507 100.269 123.311C99.8208 123.124 99.3995 122.878 99.0163 122.579C98.2857 122.004 97.679 121.287 97.2327 120.471Z" fill="#0F63AE"/>
<path d="M99.7741 114.295C99.7741 114.295 94.2324 99.8607 93.1035 100.99C91.9745 102.119 89.9537 110.655 92.2529 117.043C94.552 123.43 98.8204 127.409 101.12 127.683C102.444 127.966 102.831 126.554 102.831 126.554C101.243 122.631 100.214 118.504 99.7741 114.295Z" stroke="#0F63AE" stroke-linecap="round" stroke-linejoin="round"/>
<path d="M168.541 111.919C168.735 114.126 168.667 116.347 168.34 118.538C168.196 119.641 167.984 120.729 167.737 121.812C167.624 122.327 167.469 122.889 167.309 123.42C167.149 123.951 167.015 124.492 166.825 125.018C166.117 127.135 165.173 129.165 164.01 131.07C162.853 132.972 161.408 134.683 159.726 136.143C160.917 134.32 161.995 132.427 162.953 130.472C163.873 128.533 164.677 126.542 165.361 124.508C165.556 123.992 165.696 123.477 165.876 122.961L166.113 122.188L166.33 121.415C166.654 120.384 166.892 119.353 167.17 118.285C167.67 116.213 168.124 114.089 168.541 111.919Z" fill="white"/>
<path d="M33.3997 97.6854C33.3997 97.6854 19.9402 80.8958 18.4144 68.9622C16.8885 57.0286 16.471 55.0903 16.471 55.0903V46.4868L13.8317 43.435L17.5793 41.2391L13.8317 32.8881C13.8317 32.8881 29.0026 23.0577 43.2972 20.841C57.5918 18.6244 76.9433 21.4648 76.9433 21.4648C76.9433 21.4648 97.7795 33.584 92.506 55.4872C87.2326 77.3905 88.346 78.3854 88.346 78.3854L33.3997 97.6854Z" fill="#0F63AE" stroke="#0F63AE" stroke-miterlimit="10"/>
<path d="M82.2011 40.337C82.2011 40.337 87.9489 54.879 88.9025 57.4204C89.8562 59.9617 87.5777 68.8849 87.5777 68.8849C87.5777 68.8849 87.4385 84.4579 87.4385 86.9581C87.4385 89.4582 84.1755 103.139 73.3862 112.733C67.6797 115.784 59.571 113.846 59.571 113.846C59.571 113.846 38.8895 104.284 34.482 99.3041C30.0746 94.3244 28.2961 81.2258 28.2961 81.2258C28.2961 81.2258 27.6415 67.3539 27.492 66.3642C27.2342 64.3022 29.4869 46.7755 32.75 44.0485C45.2352 33.6768 71.3242 28.6817 82.2011 40.337Z" fill="white"/>
<path d="M64.2418 59.7969C61.1797 57.7349 57.9321 53.5079 57.9321 53.5079L45.215 56.441C45.215 56.441 39.3074 47.8529 43.1375 46.3941C47.1017 45.0693 52.8391 40.0381 52.8391 40.0381L35.1938 42.3423C35.1938 42.3423 30.4255 43.0382 28.7192 55.1575L27.0129 67.2973C27.0129 67.2973 28.3996 86.9582 30.8997 92.3141C33.3999 97.6701 31.2915 99.1444 50.5812 109.413C43.0241 100.748 41.1787 85.3344 46.5759 84.5405C51.9731 83.7466 58.3755 86.4375 62.8757 80.8857C67.376 75.3338 66.1955 68.0705 72.3711 69.4005C74.7423 77.3597 78.1497 84.6642 83.1603 85.1333C88.1709 85.6024 87.4389 84.5405 87.4389 84.5405C87.4389 84.5405 87.4801 70.5707 87.5678 68.8747C87.6554 67.1787 88.5988 58.9979 88.5988 58.9979L80.1705 56.4204L74.1083 60.0598C74.1083 60.0598 68.9534 62.9517 64.2418 59.7969Z" fill="#F0F8FF"/>
<path d="M75.309 88.1492C75.309 88.1492 72.8501 87.2729 71.4015 87.345C69.3986 87.5183 67.45 88.0878 65.6691 89.0204C65.6691 89.0204 70.7468 89.7215 71.6386 89.572C74.5925 89.0926 75.309 88.1492 75.309 88.1492Z" fill="#F0F8FF"/>
<path d="M82.2014 40.337C82.2014 40.337 87.9491 54.879 88.9028 57.4204C89.8564 59.9617 87.578 68.8849 87.578 68.8849C87.578 68.8849 87.4388 84.4579 87.4388 86.9581C87.4388 89.2417 84.7067 100.876 75.9845 110.186C74.2886 111.99 72.2833 113.758 69.8502 114.191C67.8573 114.484 65.8394 114.567 63.8292 114.439C61.4281 114.28 59.0822 113.648 56.9268 112.578C51.2048 109.82 37.9361 103.181 34.5029 99.3041C30.0955 94.3193 28.317 81.2258 28.317 81.2258C28.317 81.2258 26.8788 69.4107 27.0231 65.8023C27.2087 61.1989 29.4975 46.7548 32.7605 44.0485C45.2354 33.6768 71.3245 28.6817 82.2014 40.337Z" stroke="#0F63AE" stroke-miterlimit="10"/>
<path d="M74.7005 66.0862C74.684 66.101 74.67 66.1184 74.6592 66.1377C73.9667 67.2366 73.5887 68.5043 73.5664 69.803C73.5664 69.9782 73.5406 70.1587 73.5303 70.3442C73.8765 69.3942 74.4014 68.5193 75.0768 67.7667C75.5626 67.1381 76.2005 66.6434 76.9303 66.3294C77.6601 66.0153 78.4578 65.8922 79.2483 65.9716C80.0389 66.051 80.7962 66.3304 81.4489 66.7833C82.1017 67.2362 82.6284 67.8479 82.9795 68.5606C83.8873 70.1712 84.2575 72.0296 84.0363 73.8651C83.9227 75.0041 83.5993 76.1122 83.0826 77.1335C83.372 77.017 83.6457 76.8646 83.8971 76.6798C84.7298 75.9914 85.2712 75.0135 85.4127 73.9425C85.191 70.4164 83.0568 60.9208 74.7005 66.0862Z" fill="white"/>
<path d="M85.4331 74.5865C85.4331 74.4113 85.4331 74.1947 85.4331 73.9525C85.2916 75.0235 84.7501 76.0014 83.9175 76.6898C83.6661 76.8745 83.3924 77.0269 83.103 77.1434L82.9793 77.3703C82.6675 77.4782 82.3466 77.5576 82.0204 77.6074C81.1643 77.7194 80.2966 77.7108 79.4429 77.5816H79.2882C78.2572 77.4321 77.386 77.1795 76.489 77.1022C75.8929 77.0465 75.2916 77.0918 74.7105 77.2362L74.3188 76.1691C74.1435 76.2877 73.9528 75.3185 73.9476 75.1072C73.9533 74.5601 73.8517 74.0171 73.6486 73.5091C73.4799 73.0486 73.396 72.5613 73.4012 72.0709C73.4012 71.6636 73.4012 71.2512 73.4012 70.8336C73.4527 70.6738 73.5094 70.5192 73.5661 70.3645C73.6228 70.2099 73.5661 69.9985 73.6022 69.8232C73.6246 68.5246 74.0025 67.2569 74.6951 66.158C74.7059 66.1387 74.7198 66.1212 74.7363 66.1065L74.4012 66.3075C74.4012 66.3075 74.4631 66.1065 74.5817 65.792C73.8499 66.8077 73.4161 68.0074 73.329 69.2562C73.2508 70.0423 73.2215 70.8326 73.2414 71.6224C73.2245 72.2981 73.3186 72.972 73.5197 73.6174C73.6276 73.9005 73.7054 74.1943 73.7517 74.4937C73.7929 74.7979 73.7826 75.1123 73.8393 75.4165C73.8703 75.6072 73.9527 76.2104 74.2105 76.3238C74.3291 76.6485 74.4476 76.9733 74.5714 77.3032C74.5806 77.3306 74.5978 77.3545 74.6208 77.372C74.6437 77.3894 74.6714 77.3996 74.7002 77.4012H74.7776C76.4993 76.9836 78.1799 77.6589 79.8862 77.8291C81.2884 77.9631 82.8246 77.8961 84.0103 77.061C85.5929 75.9526 86.0104 73.9679 85.8816 72.0348C85.7857 72.8939 85.6359 73.7462 85.4331 74.5865Z" fill="#0F63AE"/>
<path d="M74.0713 74.7928C74.079 75.0247 74.1048 75.2557 74.1486 75.4836C74.1682 75.592 74.1958 75.6989 74.2311 75.8032C74.2311 75.8496 74.2672 75.896 74.2827 75.9372C74.279 75.9525 74.279 75.9684 74.2827 75.9836C74.3143 75.9869 74.3444 75.9987 74.3698 76.0178C74.3953 76.0368 74.415 76.0625 74.427 76.0919C74.5404 76.4064 74.6538 76.7208 74.7724 77.0353C75.281 76.932 75.8014 76.8991 76.3189 76.9373C75.8518 76.3954 75.5055 75.7602 75.3028 75.074C75.1002 74.3878 75.0459 73.6664 75.1436 72.9576C75.175 72.6568 75.2284 72.3588 75.3034 72.0658C74.9737 71.7943 74.7403 71.4237 74.638 71.0091C74.5357 70.5944 74.5698 70.1578 74.7354 69.7642C74.901 69.3705 75.1892 69.0407 75.5571 68.8238C75.925 68.607 76.3531 68.5146 76.7777 68.5604C77.1364 68.5987 77.4773 68.7362 77.7623 68.9573C78.1454 68.8062 78.5587 68.7479 78.9686 68.7872C80.8193 68.9779 82.1132 71.1585 81.8554 73.6484C81.8101 74.4077 81.5891 75.146 81.2098 75.8053C80.8305 76.4646 80.3033 77.0268 79.6697 77.4477C80.4832 77.5688 81.3101 77.5688 82.1235 77.4477C82.7933 76.3511 83.2073 75.1177 83.3349 73.8391C83.5425 72.154 83.2046 70.4467 82.371 68.9676C82.0566 68.3664 81.6037 67.8486 81.0498 67.4569C80.4959 67.0652 79.8567 66.8109 79.1851 66.7148C79.0614 66.7148 78.9377 66.7148 78.814 66.7148C78.1985 66.738 77.5947 66.8899 77.0416 67.1607C76.4884 67.4315 75.9981 67.8152 75.6024 68.2871C74.4876 69.5671 73.8088 71.1685 73.6641 72.8597C73.6641 72.9267 73.6641 72.9937 73.6641 73.0607C73.7001 73.2102 73.7414 73.3597 73.7878 73.5041C73.9385 73.9193 74.0339 74.3526 74.0713 74.7928Z" fill="white"/>
<path d="M74.0714 74.7927C74.0791 75.0246 74.1049 75.2556 74.1487 75.4834C74.1683 75.5919 74.1959 75.6987 74.2312 75.8031C74.2312 75.8494 74.2673 75.8958 74.2828 75.9371C74.2791 75.9523 74.2791 75.9682 74.2828 75.9835C74.3144 75.9867 74.3445 75.9985 74.3699 76.0176C74.3954 76.0367 74.4151 76.0623 74.4271 76.0917C74.5405 76.4062 74.6539 76.7207 74.7725 77.0351C75.288 76.9269 79.8451 78.1383 82.3917 77.5506C83.0671 76.4959 83.484 75.2966 83.6083 74.0503C83.72 72.2623 83.281 70.4829 82.3504 68.952C82.036 68.3508 81.5832 67.833 81.0293 67.4413C80.4753 67.0496 79.8362 66.7953 79.1646 66.6992C79.0409 66.6992 78.9172 66.6992 78.7935 66.6992C78.178 66.7224 77.5742 66.8742 77.021 67.145C76.4679 67.4159 75.9776 67.7996 75.5819 68.2715C74.4671 69.5515 73.7883 71.1528 73.6436 72.844C73.6436 72.9111 73.6436 72.9781 73.6436 73.0451C73.6796 73.1946 73.7209 73.3441 73.7673 73.4884C73.9264 73.9077 74.0287 74.3463 74.0714 74.7927Z" fill="#3396EF"/>
<path d="M74.2422 75.9937C74.2608 75.9891 74.2803 75.9891 74.2989 75.9937C74.2805 75.9878 74.2606 75.9878 74.2422 75.9937Z" fill="white"/>
<path d="M74.2422 75.9937C74.2608 75.9891 74.2803 75.9891 74.2989 75.9937C74.2805 75.9878 74.2606 75.9878 74.2422 75.9937Z" fill="#3396EF"/>
<path d="M74.2422 75.9937C74.2606 75.9878 74.2805 75.9878 74.2989 75.9937C74.2803 75.9891 74.2608 75.9891 74.2422 75.9937Z" fill="#0F63AE"/>
<path d="M82.9802 68.5605C82.6308 67.8449 82.1046 67.2303 81.4514 66.7749C80.7982 66.3194 80.0396 66.0381 79.2473 65.9576C78.4551 65.8771 77.6554 66 76.924 66.3147C76.1925 66.6295 75.5534 67.1257 75.0672 67.7563C74.3918 68.5089 73.8669 69.3838 73.5207 70.3338C73.464 70.4885 73.4072 70.6431 73.3557 70.8029C73.3557 71.2205 73.3557 71.6329 73.3557 72.0402C73.3506 72.5306 73.4344 73.0179 73.6031 73.4784C73.6031 73.3186 73.6031 73.1537 73.6341 72.9938C73.6341 72.9268 73.6341 72.8598 73.6341 72.7928C73.7788 71.1016 74.4576 69.5002 75.5724 68.2203C75.9681 67.7483 76.4584 67.3646 77.0116 67.0938C77.5647 66.823 78.1685 66.6711 78.784 66.648C78.9077 66.648 79.0314 66.648 79.1551 66.648C79.8267 66.744 80.4659 66.9984 81.0198 67.3901C81.5737 67.7817 82.0266 68.2995 82.341 68.9007C83.1746 70.3798 83.5125 72.0871 83.305 73.7723C83.1774 75.0508 82.7633 76.2842 82.0935 77.3808C81.2893 77.5251 76.5673 76.9787 75.7631 76.8653C75.6806 76.9117 76.0724 77.1952 75.9848 77.2365C76.8354 77.3499 81.0986 77.8499 81.944 77.721C82.2829 77.6107 82.6122 77.4728 82.9286 77.3086L83.0524 77.0818C83.5691 76.0605 83.8924 74.9524 84.006 73.8135C84.2255 71.9982 83.8665 70.1599 82.9802 68.5605Z" fill="#0F63AE"/>
<path d="M81.9383 73.7153C82.2012 71.1893 80.9073 68.9881 79.0154 68.7922C78.6004 68.7528 78.182 68.8111 77.7936 68.9624C77.1864 69.2908 76.6526 69.7394 76.2245 70.281C75.7964 70.8225 75.4831 71.4455 75.3037 72.1121C75.2287 72.4068 75.1753 72.7066 75.1439 73.0091C75.0443 73.7279 75.099 74.4596 75.3044 75.1556C75.5097 75.8516 75.861 76.4959 76.3347 77.0455C76.3811 77.0919 76.3347 77.2105 76.3863 77.2569C77.2936 77.3342 78.2679 77.5198 79.3143 77.6744H79.469C79.5574 77.6366 79.6435 77.5936 79.7267 77.5455C80.365 77.12 80.8965 76.5531 81.28 75.8888C81.6636 75.2245 81.8888 74.4808 81.9383 73.7153Z" fill="#0F63AE"/>
<path d="M74.5929 70.3339C74.5549 70.6803 74.6086 71.0306 74.7486 71.3497C74.8885 71.6688 75.1098 71.9456 75.3903 72.1523C75.6708 72.3591 76.0007 72.4886 76.347 72.5278C76.6932 72.567 77.0437 72.5146 77.3633 72.3758C77.683 72.237 77.9606 72.0168 78.1683 71.737C78.3761 71.4573 78.5068 71.1279 78.5473 70.7818C78.5878 70.4357 78.5367 70.085 78.3991 69.7648C78.2615 69.4447 78.0422 69.1663 77.7632 68.9575C77.4782 68.7364 77.1373 68.5989 76.7786 68.5606C76.5187 68.5334 76.2559 68.5578 76.0053 68.6322C75.7548 68.7067 75.5214 68.8297 75.3184 68.9944C75.1154 69.1591 74.9469 69.3622 74.8224 69.592C74.6979 69.8218 74.6199 70.0739 74.5929 70.3339Z" fill="white"/>
<path d="M74.7004 66.0859C83.0568 60.9309 85.191 70.4162 85.4126 73.9525C85.4126 74.1948 85.4126 74.4113 85.4126 74.5866C85.6061 73.7371 85.7456 72.8762 85.8302 72.0091C86.5622 64.0961 81.5567 60.8587 78.8296 61.0288C76.4171 61.1783 74.9943 64.4621 74.5251 65.7663C74.4066 66.0911 74.3447 66.2818 74.3447 66.2818L74.7004 66.0859Z" fill="#0F63AE"/>
<path d="M62.8866 54.302C63.1348 54.918 63.3465 55.548 63.5207 56.1888C63.8452 57.3745 64.0931 58.5798 64.263 59.7973C61.9329 59.0756 59.5925 58.3797 57.2573 57.6786C54.5509 56.8692 51.7362 56.0496 48.9422 56.4568C46.4059 56.8229 44.1325 58.1735 41.9725 59.5499C43.9827 56.4448 46.8171 53.9602 50.1588 52.374C51.9321 51.5389 54.0766 50.9873 55.8036 51.9152C56.1488 52.1501 56.5231 52.339 56.917 52.4771C57.1661 52.5131 57.4202 52.4877 57.6572 52.4032C57.8942 52.3186 58.107 52.1776 58.2772 51.9922C58.4473 51.8068 58.5697 51.5827 58.6336 51.3393C58.6975 51.0959 58.7011 50.8406 58.644 50.5955C59.0628 50.6622 59.4542 50.8463 59.7727 51.1264C60.0911 51.4065 60.3236 51.7712 60.4431 52.1781C60.7842 51.6877 61.05 51.1491 61.2318 50.5801C61.2318 50.6522 61.4432 50.9925 61.4793 51.0956C61.5772 51.2915 61.6649 51.4925 61.7577 51.6987C61.9381 52.1008 62.1082 52.5081 62.2732 52.9102C62.4381 53.3123 62.6959 53.8226 62.8866 54.302Z" fill="#0F63AE"/>
<path d="M74.3037 56.7042C74.0717 57.3176 73.8552 57.9414 73.6799 58.5755C73.3494 59.7632 73.0827 60.9678 72.8809 62.184C74.8656 61.3592 76.8503 60.555 78.8401 59.7508C81.1444 58.8229 83.5364 57.8795 85.851 58.1424C87.9491 58.3847 89.7843 59.5962 91.5216 60.8437C90.11 58.0002 87.8442 55.6695 85.0416 54.1782C83.5982 53.441 81.83 53.0029 80.3454 54.0029C80.051 54.2442 79.7271 54.4468 79.3814 54.6061C78.5308 54.8948 77.7163 53.8225 78.0359 52.8379C77.6535 52.9537 77.3071 53.1657 77.03 53.4536C76.7529 53.7415 76.5544 54.0957 76.4533 54.4824C76.1843 53.9983 75.988 53.4772 75.8708 52.9358C75.8144 53.1164 75.7366 53.2894 75.6388 53.4513C75.5512 53.6524 75.4635 53.8586 75.3811 54.0596C75.2109 54.4669 75.046 54.8793 74.8656 55.2865C74.6851 55.6938 74.4841 56.2454 74.3037 56.7042Z" fill="#0F63AE"/>
<path d="M59.54 64.2919C58.442 63.3109 57.1195 62.6152 55.6891 62.2659C55.0193 62.076 54.3215 62.0045 53.6271 62.0546C52.9049 62.1007 52.1913 62.2376 51.5032 62.4618C50.7801 62.6828 50.078 62.9674 49.4051 63.3124C48.7218 63.6465 48.0652 64.0326 47.441 64.4671C46.2134 65.2697 45.208 66.369 44.5181 67.6633C44.2164 68.3118 44.0679 69.021 44.0839 69.7361C44.1 70.4512 44.2803 71.153 44.6109 71.7873C44.9374 72.5029 45.3494 73.1762 45.8378 73.7926C46.0681 74.0841 46.3196 74.3581 46.5905 74.6123C46.2187 73.2836 46.1032 71.8962 46.2502 70.5243C46.4392 68.3706 47.3074 66.3325 48.7298 64.7043C50.1217 63.1887 51.8228 62.4515 53.5859 62.6423C57.1429 63.0083 59.6431 67.1478 59.1533 71.8647C59.0007 73.4258 58.5061 74.9341 57.7048 76.2825C58.3337 76.5094 58.9574 76.7568 59.5709 77.0043C61.1174 75.8083 61.8546 73.7927 62.0917 71.9059C62.0917 71.8028 62.0917 71.6997 62.1226 71.6017C62.142 70.4387 62.0121 69.2779 61.736 68.1479C61.3851 66.68 60.6234 65.3425 59.54 64.2919Z" fill="white"/>
<path d="M50.1889 75.5353C49.6193 74.8954 49.1952 74.1395 48.946 73.3198C48.6969 72.5001 48.6284 71.6362 48.7455 70.7875C48.7848 70.4397 48.8485 70.0952 48.9363 69.7565C48.5526 69.4354 48.2818 68.9999 48.1638 68.5138C48.0457 68.0276 48.0865 67.5164 48.2802 67.0552C48.474 66.5939 48.8104 66.2069 49.2402 65.9508C49.67 65.6948 50.1705 65.5832 50.6684 65.6324C51.0902 65.6778 51.4914 65.8383 51.8282 66.0964C52.279 65.9211 52.7645 65.854 53.2459 65.9005C55.4265 66.1273 56.9524 68.6894 56.6482 71.6226C56.5272 73.0928 55.8877 74.4722 54.8439 75.5147C55.5829 75.6468 56.3116 75.8311 57.0245 76.0663C57.8149 74.7728 58.3014 73.3169 58.4473 71.8082C58.8958 67.4779 56.6792 63.689 53.5088 63.359C51.9984 63.1992 50.4776 63.8745 49.2456 65.2045C47.9222 66.7199 47.1168 68.6179 46.9464 70.6225C46.7693 72.1491 46.9457 73.696 47.4619 75.1435C47.8544 75.3168 48.269 75.4347 48.694 75.494C49.1902 75.5504 49.6903 75.5642 50.1889 75.5353Z" fill="white"/>
<path d="M48.7201 75.4736C48.2952 75.4143 47.8805 75.2963 47.488 75.123C47.519 75.2055 47.5551 75.2829 47.5911 75.3653H47.6324C48.5033 75.6467 49.4226 75.7467 50.3336 75.6592C50.283 75.6154 50.2348 75.569 50.1893 75.52C49.6991 75.5457 49.2077 75.5302 48.7201 75.4736Z" fill="#0F63AE"/>
<path d="M54.8439 75.499L54.6841 75.6434C55.4454 75.768 56.1953 75.9542 56.9265 76.2001L57.0245 76.0506C56.3116 75.8155 55.5829 75.6311 54.8439 75.499Z" fill="#0F63AE"/>
<path d="M53.5088 63.3434C51.9984 63.1836 50.4776 63.8589 49.2456 65.1889C47.9192 66.7085 47.1136 68.6123 46.9464 70.6224C46.7693 72.1489 46.9457 73.6958 47.4619 75.1433C47.4928 75.2258 47.5289 75.3031 47.565 75.3856H47.6062C48.4772 75.667 49.3965 75.767 50.3075 75.6795C50.2559 75.6382 54.7151 75.6021 54.6584 75.6485C55.4197 75.7731 56.1696 75.9593 56.9008 76.2053L56.9988 76.0558C57.7891 74.7624 58.2756 73.3064 58.4216 71.7977C58.8958 67.4623 56.6792 63.6733 53.5088 63.3434Z" fill="#3396EF"/>
<path d="M62.8501 67.9677C62.7696 67.0862 62.572 66.2194 62.2625 65.3902C61.9275 64.5415 61.4517 63.7555 60.8551 63.0652C59.6428 61.6904 58.0666 60.6861 56.3084 60.1681C55.4078 59.8724 54.4613 59.7414 53.5143 59.7815C52.5953 59.824 51.6856 59.9851 50.8079 60.2609C49.1179 60.8029 47.5343 61.6331 46.1271 62.7147C44.6369 63.7983 43.4942 65.2922 42.8382 67.014C42.5126 67.9182 42.4221 68.8903 42.5753 69.839C42.7351 70.7416 43.0866 71.5995 43.6063 72.3546C44.1075 73.0577 44.7024 73.689 45.3745 74.2311C45.7235 74.5122 46.1 74.7575 46.4983 74.9631C48.349 76.19 50.4625 75.7621 52.5555 75.6693C55.0041 75.5559 57.2878 76.4271 59.5251 77.3241C59.5485 77.3405 59.5764 77.3493 59.605 77.3493C59.6336 77.3493 59.6615 77.3405 59.6849 77.3241C61.0326 76.2296 61.9464 74.6908 62.2625 72.9836C62.3346 72.6382 62.3862 72.2876 62.4326 71.9526C62.799 70.658 62.9402 69.3101 62.8501 67.9677ZM54.6845 75.6436C54.2055 75.5638 53.7214 75.5173 53.2359 75.5044C52.272 75.5044 51.2925 75.623 50.3336 75.6745C49.4226 75.762 48.5033 75.662 47.6324 75.3807H47.5912C47.5551 75.2982 47.519 75.2209 47.4881 75.1384C46.9718 73.6908 46.7955 72.144 46.9726 70.6174C47.144 68.6146 47.9494 66.7186 49.2717 65.2046C50.5038 63.854 52.0245 63.1993 53.5349 63.3591C56.7053 63.689 58.922 67.4831 58.4735 71.8082C58.3275 73.3169 57.841 74.7729 57.0507 76.0663L56.9527 76.2158C56.2136 75.9632 55.455 75.7718 54.6845 75.6436ZM59.5664 77.0045C58.9529 76.7571 58.3291 76.489 57.7002 76.2828C58.5016 74.9344 58.9962 73.426 59.1488 71.8649C59.6385 67.148 57.1383 63.0085 53.5813 62.6425C51.8389 62.4569 50.1171 63.1941 48.7253 64.7045C47.3029 66.3328 46.4346 68.3708 46.2457 70.5246C46.0987 71.8965 46.2141 73.2838 46.5859 74.6126C46.3151 74.3584 46.0635 74.0844 45.8333 73.7929C45.3448 73.1765 44.9329 72.5031 44.6064 71.7876C44.2758 71.1533 44.0955 70.4515 44.0794 69.7364C44.0633 69.0213 44.2119 68.3121 44.5136 67.6635C45.2035 66.3692 46.2088 65.2699 47.4365 64.4674C48.0607 64.0328 48.7173 63.6468 49.4006 63.3127C50.0734 62.9677 50.7755 62.683 51.4987 62.4621C52.1868 62.2378 52.9003 62.101 53.6226 62.0548C54.317 62.0047 55.0148 62.0762 55.6846 62.2662C57.115 62.6154 58.4374 63.3112 59.5354 64.2921C60.617 65.3434 61.3769 66.6809 61.7263 68.1481C62.0024 69.2781 62.1323 70.4389 62.113 71.602C62.113 71.7 62.113 71.8031 62.082 71.9062C61.8501 73.7929 61.149 75.8085 59.5664 77.0045Z" fill="#0F63AE"/>
<path d="M56.6483 71.6065C56.9525 68.6733 55.4266 66.1112 53.246 65.8844C52.7646 65.838 52.2791 65.9051 51.8284 66.0803C50.6685 66.4772 49.1735 69.0445 48.9364 69.7455C48.8486 70.0843 48.7849 70.4288 48.7456 70.7766C48.6286 71.6252 48.697 72.4892 48.9462 73.3089C49.1954 74.1286 49.6194 74.8844 50.1891 75.5244C50.2346 75.5733 50.2828 75.6198 50.3334 75.6635C51.2922 75.612 52.2717 75.478 53.2357 75.4934C53.7212 75.5063 54.2052 75.5528 54.6843 75.6326C55.8235 74.5865 56.5251 73.1483 56.6483 71.6065Z" fill="#0F63AE"/>
<path d="M48.1008 67.7044C48.058 68.0905 48.1119 68.4811 48.2577 68.841C48.4035 69.201 48.6366 69.519 48.9359 69.7665C49.2943 70.0567 49.7297 70.2359 50.1886 70.282C50.6491 70.3344 51.1147 70.249 51.5265 70.0364C51.9384 69.8239 52.2779 69.494 52.5019 69.0883C52.726 68.6827 52.8247 68.2196 52.7853 67.7579C52.746 67.2961 52.5704 66.8564 52.2809 66.4946C51.9914 66.1327 51.601 65.8649 51.1591 65.7252C50.7173 65.5854 50.2439 65.58 49.7989 65.7096C49.354 65.8391 48.9576 66.0979 48.6598 66.453C48.3621 66.8082 48.1765 67.2437 48.1266 67.7044H48.1008Z" fill="white"/>
<path d="M71.3242 89.629C72.7676 89.1702 74.2832 88.83 75.4947 88.0309C76.0803 87.6834 76.5596 87.1821 76.8804 86.5813C77.2012 85.9806 77.3513 85.3035 77.3144 84.6234C77.2113 83.3037 76.371 82.0871 75.6132 80.7365C74.8636 79.3801 74.214 77.9707 73.6698 76.5197C73.1366 75.0643 72.7094 73.5724 72.3913 72.0554C72.0783 70.5402 71.8853 69.0027 71.8139 67.4571C71.6954 65.8868 71.8953 64.3087 72.4016 62.8175C72.6593 62.0721 73.0665 61.3871 73.5984 60.8047C74.1303 60.2223 74.7756 59.7547 75.4947 59.4307C74.2738 60.2927 73.4189 61.5796 73.0976 63.0392C72.7888 64.4726 72.7399 65.9497 72.9532 67.4004C73.1283 68.8788 73.3917 70.3455 73.7419 71.7925C74.0782 73.2385 74.5087 74.6608 75.0307 76.0506C75.5408 77.446 76.1383 78.8079 76.8195 80.1282C77.1494 80.7932 77.5361 81.4582 77.8505 82.1902C78.211 82.95 78.406 83.7775 78.4227 84.6183C78.4212 85.4794 78.1686 86.3214 77.6959 87.0412C77.2384 87.7378 76.5957 88.293 75.84 88.6444C74.376 89.33 72.8243 89.4589 71.3242 89.629Z" fill="#0F63AE"/>
<path opacity="0.76" d="M63.5248 69.8744C63.5248 69.7095 63.5248 69.5651 63.5248 69.4466C63.5698 68.7176 63.4277 67.9891 63.1119 67.3305C62.7961 66.6718 62.3172 66.1049 61.7205 65.6835C60.6896 64.9876 56.3543 64.2607 52.8644 63.9824C52.7922 63.9824 52.5551 63.9824 52.1221 63.9514C47.5136 63.838 43.5804 64.3896 42.8432 64.9824C41.6988 65.9052 41.1163 69.6219 42.1215 74.2304C42.9206 77.8749 44.7557 78.9523 47.426 79.5141C48.763 79.7494 50.1209 79.8444 51.4777 79.7977C53.8884 79.7838 56.2882 79.4721 58.6224 78.8698C62.8082 77.4419 63.4217 73.055 63.5248 69.8744ZM85.3352 64.7659C82.3454 64.869 78.4792 65.3742 77.5307 66.0031C76.966 66.4047 76.5127 66.9432 76.2134 67.5681C75.914 68.193 75.7784 68.8838 75.8193 69.5755C75.8193 69.6889 75.8193 69.8229 75.8193 69.9827C75.8863 73.0756 76.4172 77.2975 80.2216 78.5605C82.2301 79.061 84.2969 79.2882 86.3662 79.2358C87.4777 79.2404 88.5862 79.1193 89.6705 78.8749C91.7892 78.313 93.2171 77.3285 93.8512 74.1324C94.6502 70.1322 94.2378 66.8846 93.3769 66.0392C92.8202 65.4979 89.7375 64.8587 85.9693 64.7659C85.5981 64.7608 85.3765 64.7659 85.3352 64.7659Z" fill="url(#paint0_linear_1729_20868)"/>
<path d="M65.5565 63.7147C64.614 63.2391 63.6306 62.8492 62.6181 62.5497C61.6133 62.2328 60.5909 61.9746 59.556 61.7764C57.487 61.3644 55.3863 61.1316 53.2772 61.0805C51.1688 61.0135 49.05 61.0805 46.9416 61.0805C45.9106 61.0805 44.828 61.1321 43.7713 61.1785C42.7145 61.2249 41.6628 61.2764 40.6112 61.395C42.7091 61.1123 44.8205 60.9402 46.9365 60.8795C49.05 60.8021 51.1636 60.7661 53.2875 60.8073C55.4116 60.869 57.5255 61.1262 59.6024 61.5754C61.6815 61.9918 63.6878 62.7127 65.5565 63.7147Z" fill="white"/>
<path d="M69.8191 67.581C70.1645 67.581 72.0771 67.8078 72.7163 70.2874C73.4225 73.0041 74.1391 79.8861 79.4179 81.3656C84.0059 82.6389 89.2382 82.2575 90.9394 81.6698C92.6406 81.0821 94.548 79.3448 95.4243 76.1539C96.3729 72.7051 97.9658 69.045 98.0018 68.6636C98.0018 68.6636 97.0585 63.1734 96.6461 63.0909C94.2232 62.5754 87.8825 61.1166 82.0418 61.4465C74.8247 61.8537 71.8038 64.7096 71.8038 64.7096L69.7882 64.6581L69.8191 67.581ZM76.6599 64.6581C78.5518 63.4209 85.2379 62.8899 85.2379 62.8899C86.1143 62.8487 92.7798 63.4054 94.3108 64.9519C95.8419 66.4984 95.5996 70.4214 94.8263 74.329C94.0531 78.2365 92.5684 79.9995 90.1043 80.6852C87.6402 81.3708 82.3253 81.51 79.4849 80.4738C74.2525 78.5767 74.2989 71.2823 74.237 69.6482C74.1741 68.6778 74.3643 67.7077 74.7891 66.833C75.2138 65.9582 75.8584 65.2088 76.6599 64.6581V64.6581Z" stroke="#0F63AE"/>
<path d="M73.8857 63.9208C73.8857 63.9208 78.216 61.168 85.9744 61.6783C92.6759 62.1217 95.0266 63.0187 95.0266 63.0187" stroke="#0F63AE"/>
<path d="M73.8857 63.9209C75.456 63.0154 77.1645 62.3745 78.9429 62.0238C80.7169 61.6616 82.5245 61.4888 84.335 61.5083C86.1402 61.5604 87.9416 61.7032 89.7324 61.9362C91.5285 62.13 93.3016 62.4978 95.0266 63.0342C94.1608 62.7887 93.2789 62.6044 92.3872 62.4826C91.5006 62.3383 90.6088 62.2249 89.7118 62.1321C87.923 61.9517 86.1032 61.7867 84.335 61.7661C82.5386 61.7397 80.7441 61.8951 78.9789 62.23C78.0966 62.3999 77.2255 62.6237 76.3705 62.9002C75.5109 63.1585 74.6787 63.5004 73.8857 63.9209V63.9209Z" stroke="#0F63AE"/>
<path d="M69.8146 64.6576H67.7835C67.7835 64.6576 64.6441 61.6213 56.695 60.7965C49.8078 60.0593 42.2248 61.4151 38.9152 61.8584C38.3378 61.9357 36.8532 66.7041 36.9563 67.2454C36.9563 67.2454 38.9152 72.9779 40.2143 76.9524C41.3999 80.5867 43.9311 82.4786 46.0859 82.9941C48.2407 83.5096 54.5299 83.5664 59.7468 81.9013C65.4586 80.0815 66.1752 73.0294 66.8917 70.2611C67.5412 67.7558 69.4692 67.5805 69.8198 67.5702L69.8146 64.6576ZM65.3143 69.591C65.2524 71.2561 65.3143 78.7206 59.7004 80.9321C56.4991 82.1951 50.2563 82.3807 47.1633 81.793C44.0703 81.2053 42.0753 79.2722 41.0442 74.7924C40.0132 70.3127 39.6524 65.6731 41.6628 64.0081C43.6733 62.343 51.973 62.0698 53.004 62.1574C53.004 62.1574 60.6438 63.0492 62.711 64.4153C63.5529 64.9818 64.2346 65.7556 64.6906 66.6621C65.1466 67.5686 65.3614 68.5773 65.3143 69.591V69.591Z" stroke="#0F63AE"/>
<path d="M65.6496 63.7709C65.6496 63.7709 61.01 60.7139 52.1279 60.8119C43.8231 60.8995 40.6991 61.781 40.6991 61.781" stroke="#0F63AE"/>
<path d="M65.6496 63.7717C64.7228 63.2554 63.7472 62.8324 62.737 62.5087C61.7382 62.1596 60.7169 61.8788 59.68 61.6684C57.6087 61.2242 55.4987 60.9842 53.3805 60.9518C51.2618 60.9003 49.1379 60.9879 47.0192 61.0859C45.9882 61.1426 44.9005 61.2199 43.8488 61.323C42.7908 61.4138 41.7391 61.567 40.6991 61.7818C42.774 61.311 44.8846 61.0144 47.0089 60.8951C49.1328 60.7508 51.2515 60.6735 53.3857 60.6992C55.5182 60.7381 57.6412 60.9955 59.7213 61.4673C61.8081 61.9129 63.8097 62.6909 65.6496 63.7717V63.7717Z" stroke="#0F63AE"/>
<path d="M69.8191 67.581C70.1645 67.581 72.0771 67.8078 72.7163 70.2874C73.4225 73.0041 74.1391 79.8861 79.4179 81.3656C84.0059 82.6389 89.2382 82.2575 90.9394 81.6698C92.6406 81.0821 94.548 79.3448 95.4243 76.1539C96.3729 72.7051 97.9658 69.045 98.0018 68.6636C98.0018 68.6636 97.0585 63.1734 96.6461 63.0909C94.2232 62.5754 87.8825 61.1166 82.0418 61.4465C74.8247 61.8537 71.8038 64.7096 71.8038 64.7096L69.7882 64.6581L69.8191 67.581ZM76.6599 64.6581C78.5518 63.4209 85.2379 62.8899 85.2379 62.8899C86.1143 62.8487 92.7798 63.4054 94.3108 64.9519C95.8419 66.4984 95.5996 70.4214 94.8263 74.329C94.0531 78.2365 92.5684 79.9995 90.1043 80.6852C87.6402 81.3708 82.3253 81.51 79.4849 80.4738C74.2525 78.5767 74.2989 71.2823 74.237 69.6482C74.1741 68.6778 74.3643 67.7077 74.7891 66.833C75.2138 65.9582 75.8584 65.2088 76.6599 64.6581Z" fill="#0F63AE"/>
<path d="M73.8857 63.9209C75.456 63.0154 77.1645 62.3745 78.9429 62.0238C80.7169 61.6616 82.5245 61.4888 84.335 61.5083C86.1402 61.5604 87.9416 61.7032 89.7324 61.9362C91.5285 62.13 93.3016 62.4978 95.0266 63.0342C94.1608 62.7887 93.2789 62.6044 92.3872 62.4826C91.5006 62.3383 90.6088 62.2249 89.7118 62.1321C87.923 61.9517 86.1032 61.7867 84.335 61.7661C82.5386 61.7397 80.7441 61.8951 78.9789 62.23C78.0966 62.3999 77.2255 62.6237 76.3705 62.9002C75.5109 63.1585 74.6787 63.5004 73.8857 63.9209Z" fill="white"/>
<path d="M69.8146 64.6576H67.7835C67.7835 64.6576 64.6441 61.6213 56.695 60.7965C49.8078 60.0593 42.2248 61.4151 38.9152 61.8584C38.3378 61.9357 36.8532 66.7041 36.9563 67.2454C36.9563 67.2454 38.9152 72.9779 40.2143 76.9524C41.3999 80.5867 43.9311 82.4786 46.0859 82.9941C48.2407 83.5096 54.5299 83.5664 59.7468 81.9013C65.4586 80.0815 66.1752 73.0294 66.8917 70.2611C67.5412 67.7558 69.4692 67.5805 69.8198 67.5702L69.8146 64.6576ZM65.3143 69.591C65.2524 71.2561 65.3143 78.7206 59.7004 80.9321C56.4991 82.1951 50.2563 82.3807 47.1633 81.793C44.0703 81.2053 42.0753 79.2722 41.0442 74.7924C40.0132 70.3127 39.6524 65.6731 41.6628 64.0081C43.6733 62.343 51.973 62.0698 53.004 62.1574C53.004 62.1574 60.6438 63.0492 62.711 64.4153C63.5529 64.9818 64.2346 65.7556 64.6906 66.6621C65.1466 67.5686 65.3614 68.5773 65.3143 69.591Z" fill="#0F63AE"/>
<path d="M65.6496 63.7717C64.7228 63.2554 63.7472 62.8324 62.737 62.5087C61.7382 62.1596 60.7169 61.8788 59.68 61.6684C57.6087 61.2242 55.4987 60.9842 53.3805 60.9518C51.2618 60.9003 49.1379 60.9879 47.0192 61.0859C45.9882 61.1426 44.9005 61.2199 43.8488 61.323C42.7908 61.4138 41.7391 61.567 40.6991 61.7818C42.774 61.311 44.8846 61.0144 47.0089 60.8951C49.1328 60.7508 51.2515 60.6735 53.3857 60.6992C55.5182 60.7381 57.6412 60.9955 59.7213 61.4673C61.8081 61.9129 63.8097 62.6909 65.6496 63.7717Z" fill="white"/>
<path d="M26.4765 72.2724C26.4765 72.2724 21.1152 58.0805 19.7491 59.0548C18.383 60.0291 15.4343 67.9679 17.5273 74.2622C19.6202 80.5565 24.1257 84.7476 26.6981 85.227C27.0895 85.3466 27.5112 85.3187 27.8834 85.1487C28.2557 84.9787 28.5529 84.6784 28.7189 84.3043C27.4118 80.4184 26.6569 76.3682 26.4765 72.2724Z" fill="white" stroke="#0F63AE" stroke-miterlimit="10"/>
<path d="M21.5847 61.0755C21.5847 61.0755 18.1669 65.8852 18.8834 70.1536C19.6 74.4219 21.7703 80.4173 27.6934 81.2679C26.3686 75.123 26.4768 72.2723 26.4768 72.2723L21.4816 60.8848" fill="#F0F8FF"/>
<path d="M23.8423 66.7047C23.6058 66.8136 23.3813 66.9467 23.1721 67.1017C22.9487 67.271 22.74 67.459 22.5484 67.6636C22.1553 68.0805 21.8456 68.5687 21.6359 69.1018C21.424 69.6592 21.3072 70.2482 21.2905 70.8443C21.2829 71.1487 21.2932 71.4534 21.3215 71.7567C21.3575 72.0608 21.4143 72.365 21.4658 72.6743C21.3679 72.3805 21.2544 72.0866 21.1668 71.7876C21.0792 71.4886 21.007 71.1742 20.9812 70.8597C20.8921 70.2167 20.9113 69.5633 21.0379 68.9266C21.3329 67.5751 22.1309 66.3864 23.2701 65.6016L23.8423 66.7047Z" fill="#0F63AE"/>
<path d="M22.847 77.9893C23.4832 78.7139 24.2602 79.3015 25.1307 79.7162C25.5482 79.9152 25.9877 80.064 26.4401 80.1595C26.8771 80.2524 27.3236 80.2922 27.7701 80.2781L27.6773 81.5153C27.144 81.4228 26.6244 81.2635 26.1308 81.0411C25.6531 80.8326 25.2029 80.5659 24.7905 80.2472C23.9944 79.6361 23.3328 78.8675 22.847 77.9893Z" fill="#0F63AE"/>
<path d="M26.2342 72.3443C26.2342 72.3443 21.1152 58.0803 19.7491 59.0546C18.383 60.0289 15.4343 67.9677 17.5273 74.262C19.6202 80.5563 24.1257 84.7474 26.6981 85.2268C27.0895 85.3464 27.5112 85.3185 27.8834 85.1485C28.2557 84.9785 28.5529 84.6781 28.7189 84.304C27.2487 80.4783 26.4095 76.4391 26.2342 72.3443V72.3443Z" stroke="#0F63AE" stroke-linecap="round" stroke-linejoin="round"/>
<path d="M68.0044 110.356C69.8351 110.356 71.3191 109.537 71.3191 108.526C71.3191 107.516 69.8351 106.696 68.0044 106.696C66.1737 106.696 64.6897 107.516 64.6897 108.526C64.6897 109.537 66.1737 110.356 68.0044 110.356Z" fill="white"/>
<path d="M68.8092 102.511L73.0827 100.557C73.0827 100.557 74.6602 100.47 74.5725 100.655C74.3869 101.078 73.5415 102.516 73.0879 103.269C71.9022 105.305 70.5464 105.073 69.2061 105.14C68.2627 105.192 67.1441 105.233 66.1853 105.233C64.4428 105.233 63.0922 105.109 60.8446 102.542L58.7826 99.7686L68.8092 102.511Z" fill="#F0F8FF"/>
<path d="M73.9017 98.7476C73.9017 98.794 73.9017 98.8404 73.9429 98.8868C74.1079 98.7424 74.2729 98.5929 74.4584 98.4537C74.5546 98.382 74.6665 98.3342 74.7849 98.3145C74.9033 98.2947 75.0246 98.3036 75.1389 98.3403C75.6299 98.4337 76.102 98.6079 76.5359 98.8558C76.8823 98.2267 77.1754 97.5697 77.4123 96.8918C77.5566 96.5154 77.701 96.1391 77.8608 95.7525C77.8917 95.6855 77.9226 95.603 77.9587 95.5205C76.5331 96.4211 75.0005 97.1398 73.3965 97.6599C73.6204 97.9939 73.7909 98.3609 73.9017 98.7476Z" fill="#0F63AE"/>
<path d="M58.1066 98.7626C58.153 98.8038 58.2097 98.8399 58.2613 98.8811C59.4676 99.1234 60.6739 99.3502 61.8698 99.541C63.5091 99.8039 65.1588 100.026 66.8187 100.185C68.4457 100.408 70.0996 100.335 71.7005 99.9688C72.3505 99.7936 72.9707 99.5225 73.5409 99.1647C73.5204 99.0251 73.4893 98.8872 73.4481 98.7523C73.3302 98.4033 73.1561 98.0759 72.9326 97.7831C72.4738 97.912 72.0201 98.0305 71.5562 98.113C70.2934 98.3225 69.0073 98.352 67.7363 98.2007C66.4011 98.0666 65.0763 97.9017 63.7566 97.7161C62.4369 97.5305 61.1791 97.3604 59.9264 97.0923C59.1892 96.9325 58.3799 96.6284 58.1273 96.0098C57.2162 96.2726 56.2494 96.2726 55.3384 96.0098C56.1684 97.0162 57.0956 97.9382 58.1066 98.7626Z" fill="#3396EF"/>
<path d="M73.9425 98.8868C73.9425 98.8404 73.9425 98.794 73.9013 98.7476C73.7868 98.3621 73.6129 97.9969 73.3858 97.665C73.2466 97.7114 73.1125 97.7424 72.9785 97.7836C73.202 98.0764 73.3761 98.4038 73.494 98.7528C73.5353 98.8877 73.5663 99.0256 73.5868 99.1652L73.7105 99.093C73.7922 99.0292 73.8696 98.9604 73.9425 98.8868Z" fill="#3396EF"/>
<path d="M75.3508 98.7523C75.1136 98.6905 74.9023 98.6028 74.6806 98.7523C74.4589 98.9018 74.2218 99.1751 73.9537 99.3555C71.5721 100.979 68.2832 100.716 65.4943 100.386C63.2914 100.129 61.1108 99.7851 58.9525 99.3555C61.4476 100.979 65.1695 101.933 67.8398 102.119C70.2051 102.342 72.5829 101.85 74.6651 100.706C75.3306 100.324 75.9001 99.7951 76.3302 99.1596C76.1803 99.0683 76.0235 98.989 75.8611 98.9225C75.6961 98.8606 75.526 98.8039 75.3508 98.7523Z" fill="white"/>
<path d="M74.4482 98.4589C74.2729 98.5981 74.1079 98.7476 73.9326 98.892C73.8531 98.9663 73.7687 99.0351 73.68 99.0982L73.5563 99.1703C72.9862 99.5282 72.3659 99.7993 71.716 99.9745C70.115 100.34 68.4612 100.414 66.8341 100.191C65.1742 100.031 63.5246 99.8096 61.8853 99.5467C60.6635 99.3559 59.4572 99.1291 58.2767 98.8868C58.4932 99.0569 58.7252 99.2219 58.9675 99.4023C61.1292 99.8216 63.3098 100.165 65.5093 100.433C68.3239 100.763 71.5871 101.026 73.9687 99.4023C74.2368 99.2219 74.4378 98.9796 74.6956 98.7992C74.9533 98.6188 75.1286 98.7322 75.3658 98.7992C75.6029 98.8662 75.7111 98.9074 75.8813 98.9745C76.0436 99.041 76.2005 99.1203 76.3504 99.2116C76.4174 99.1136 76.4844 99.0105 76.5463 98.9074C76.1123 98.6595 75.6402 98.4853 75.1492 98.3919C75.0358 98.3451 74.9126 98.3267 74.7904 98.3384C74.6682 98.3501 74.5507 98.3914 74.4482 98.4589Z" fill="#0F63AE"/>
<path d="M58.2305 95.6186C58.2585 95.6071 58.2885 95.6015 58.3188 95.6021C58.349 95.6028 58.3788 95.6095 58.4064 95.6221C58.4339 95.6347 58.4586 95.6527 58.4789 95.6752C58.4991 95.6976 58.5146 95.724 58.5243 95.7526C58.5838 95.9426 58.6908 96.1143 58.8351 96.2514C58.9794 96.3885 59.1564 96.4865 59.3491 96.5362C59.8165 96.7037 60.3004 96.8212 60.7925 96.8867C61.3854 96.9898 61.9782 97.0878 62.5762 97.1806C63.7894 97.3696 65.0094 97.5414 66.2363 97.6961C67.4537 97.8686 68.6823 97.9513 69.9118 97.9435C71.1088 97.8879 72.2914 97.6587 73.4224 97.2631C75.0896 96.7055 76.6783 95.9362 78.1496 94.9742C78.2991 94.567 78.4692 94.0979 78.6651 93.603C78.8817 92.9947 79.0724 92.4585 79.2477 91.9946C77.8816 92.7215 75.3556 93.4329 70.6903 93.6597C64.2583 93.9471 57.8451 92.7678 51.9362 90.2109V90.2934C51.9877 90.4429 52.0238 90.5769 52.0599 90.6543C52.8445 92.3819 53.8178 94.0174 54.9622 95.531C55.9976 95.9894 57.172 96.0209 58.2305 95.6186Z" fill="white"/>
<path d="M58.1742 96.0102C58.4268 96.6288 59.2361 96.933 59.9733 97.0928C61.226 97.3609 62.5508 97.5361 63.8035 97.7166C65.0562 97.897 66.448 98.0671 67.7832 98.2011C69.0542 98.3525 70.3403 98.323 71.6031 98.1135C72.067 98.031 72.5207 97.9125 72.9795 97.7836C73.1135 97.7423 73.2476 97.7114 73.3867 97.665C74.9907 97.1449 76.5234 96.4262 77.949 95.5257C78.0108 95.3659 78.083 95.1854 78.1552 94.9844C76.6838 95.9464 75.0951 96.7156 73.428 97.2732C72.2947 97.6658 71.1104 97.8916 69.9122 97.9434C68.6803 97.9429 67.45 97.8516 66.2315 97.6702C65.0046 97.5258 63.7846 97.354 62.5714 97.1547C61.9734 97.0619 61.3806 96.9639 60.7878 96.8608C60.2956 96.7953 59.8118 96.6778 59.3444 96.5103C59.1516 96.4606 58.9747 96.3626 58.8303 96.2255C58.686 96.0884 58.579 95.9167 58.5196 95.7267C58.5098 95.698 58.4944 95.6717 58.4741 95.6492C58.4538 95.6268 58.4291 95.6087 58.4016 95.5962C58.3741 95.5836 58.3443 95.5768 58.314 95.5762C58.2838 95.5756 58.2537 95.5812 58.2257 95.5927C57.1707 95.9828 56.0047 95.944 54.978 95.4844C55.1121 95.6545 55.2409 95.8298 55.3801 95.9999C56.2918 96.2671 57.2605 96.2707 58.1742 96.0102Z" fill="#0F63AE"/>
<path d="M77.9481 95.5255C77.912 95.608 77.881 95.6905 77.8501 95.7575C77.6903 96.1441 77.546 96.5205 77.4016 96.8968C77.1647 97.5747 76.8716 98.2317 76.5253 98.8609C76.7557 98.991 76.9644 99.1562 77.1439 99.3506C77.549 98.6566 77.8889 97.9266 78.1594 97.17C78.2935 96.8091 78.4326 96.438 78.5924 96.0668C78.7523 95.6957 78.9017 95.2884 79.108 94.7832C78.8605 94.9585 78.6182 95.1389 78.3656 95.2987C78.2007 95.3657 78.0718 95.4534 77.9481 95.5255Z" fill="#0F63AE"/>
<path d="M58.1068 98.7631C57.1125 97.9397 56.2008 97.0212 55.385 96.0206C55.1445 95.9597 54.9085 95.8821 54.6787 95.7887C54.5395 95.732 54.4158 95.6598 54.2869 95.5928H54.2044L54.0962 95.6237C54.8646 96.6713 55.7274 97.6462 56.6737 98.5363C57.1892 98.6497 57.7047 98.758 58.246 98.8611C58.2099 98.8405 58.1532 98.8044 58.1068 98.7631Z" fill="#0F63AE"/>
<path d="M54.2043 95.6132H54.2867L53.9517 95.4482L54.096 95.6648L54.2043 95.6132Z" fill="#0F63AE"/>
<path d="M76.3301 99.1646C75.9 99.8001 75.3305 100.329 74.665 100.711C72.5874 101.858 70.2134 102.356 67.85 102.139C65.1797 101.943 61.4577 101 58.9627 99.3759C58.3853 99.2677 57.8079 99.144 57.2357 99.0254L57.6172 99.3605C60.1947 101.474 64.6796 102.685 67.7933 102.917C68.149 102.917 68.5098 102.959 68.8655 102.959C71.0275 102.995 73.161 102.462 75.0516 101.412C75.7845 100.986 76.4174 100.408 76.9074 99.7162C76.7547 99.4948 76.5582 99.3071 76.3301 99.1646Z" fill="#0F63AE"/>
<path d="M76.33 99.1646C76.5583 99.2954 76.7582 99.4707 76.9176 99.6801C77.0001 99.5615 77.0723 99.4481 77.1445 99.3296C76.9649 99.1352 76.7562 98.97 76.5259 98.8398C76.464 98.9739 76.397 99.0667 76.33 99.1646Z" fill="#0F63AE"/>
<path d="M58.2611 98.8814C57.7456 98.7783 57.2301 98.6701 56.6888 98.5566C56.8641 98.7164 57.0445 98.8659 57.2043 99.0258C57.7766 99.1443 58.3539 99.268 58.9313 99.3763C58.7096 99.2165 58.4776 99.0515 58.2611 98.8814Z" fill="#0F63AE"/>
<path d="M52.0809 90.6346C52.0449 90.5573 52.0088 90.4232 51.9572 90.2737V90.1913C57.859 92.7564 64.2666 93.9463 70.6959 93.6709C75.3612 93.4441 77.9129 92.7327 79.2532 92.0058C79.078 92.4698 78.8872 93.0059 78.6707 93.6142C78.4955 94.1297 78.3253 94.5782 78.1552 94.9855C78.547 94.7277 78.9182 94.47 79.279 94.1761C79.3151 94.0782 79.346 93.9802 79.3821 93.8771C79.712 92.9595 80.1245 91.8151 80.4131 91.1037C80.5997 90.8995 80.731 90.6511 80.7946 90.382C80.8131 90.3129 80.8117 90.24 80.7908 90.1717C80.7698 90.1033 80.7301 90.0422 80.676 89.9954C80.5987 89.9266 80.4972 89.8913 80.3939 89.8971C80.2905 89.9029 80.1937 89.9493 80.1245 90.0263C79.9743 90.2266 79.8497 90.4448 79.7533 90.6758C79.1192 91.3511 77.0933 92.5781 70.6237 92.8874C63.9534 93.1778 57.3119 91.8495 51.2664 89.0159C51.1774 88.9718 51.075 88.9626 50.9796 88.9903C50.8841 89.018 50.8025 89.0805 50.7509 89.1654C50.7016 89.2518 50.688 89.3541 50.7131 89.4504C50.7381 89.5467 50.7998 89.6294 50.885 89.6809C51.0313 89.938 51.1423 90.2138 51.2149 90.5006C51.2603 90.6544 51.3136 90.8059 51.3747 90.9542C51.7995 91.8763 52.271 92.7761 52.7872 93.6503L53.1223 93.7534C53.3491 93.8101 53.2563 94.0627 53.0552 94.0833C53.1687 94.2638 53.2769 94.4493 53.3955 94.5988C53.89 94.9513 54.4226 95.247 54.9832 95.4804C53.8409 93.9765 52.8676 92.3515 52.0809 90.6346Z" fill="#0F63AE"/>
<path d="M54.6786 95.7881C54.9084 95.8816 55.1444 95.9591 55.3849 96.0201C55.2457 95.8551 55.1168 95.6798 54.9828 95.5046C54.4222 95.2712 53.8895 94.9755 53.395 94.623C53.5754 94.9014 53.761 95.1643 53.9518 95.4221L54.2868 95.587C54.4157 95.6592 54.5394 95.7314 54.6786 95.7881Z" fill="#0F63AE"/>
<path d="M77.9481 95.5252C78.0718 95.453 78.2007 95.3808 78.3193 95.3035C78.5719 95.1385 78.8348 94.9581 79.0616 94.788C79.1286 94.5921 79.2008 94.391 79.2781 94.1797C78.9173 94.4632 78.5461 94.7313 78.1543 94.989C78.0822 95.1849 78.01 95.3654 77.9481 95.5252Z" fill="#0F63AE"/>
<path d="M53.1217 93.7574L52.7866 93.6543L53.0547 94.0873C53.2557 94.0667 53.3485 93.8193 53.1217 93.7574Z" fill="#0F63AE"/>
<path d="M52.8129 87.3457C52.1605 87.8794 51.5629 88.4769 51.0292 89.1293C50.787 89.4491 50.5813 89.7949 50.4158 90.1604C50.2302 90.5264 50.122 90.9285 49.9518 91.3718C49.7697 90.9317 49.7195 90.4481 49.8075 89.9799C49.8836 89.4963 50.0824 89.0401 50.3849 88.6551C50.6761 88.2741 51.0451 87.9596 51.4674 87.7323C51.8782 87.4969 52.3398 87.3643 52.8129 87.3457Z" fill="#0F63AE"/>
<path d="M36.9515 34.3318L33.6265 43.348C33.6265 43.348 30.219 45.2193 28.7189 54.2561C28.5694 36.997 28.7189 33.6359 28.7189 33.6359L23.5638 27.9344L35.6782 26.8467L36.9515 34.3318Z" fill="#0F63AE"/>
<path d="M68.2827 47.2711C68.2827 47.2711 70.6437 43.8173 73.0046 43.2451C75.3656 42.6729 80.2215 41.4409 80.2215 41.4409C80.2215 41.4409 80.9123 43.6627 85.0774 40.4718C89.2426 37.2809 93.2634 29.7856 91.32 23.6822C89.3766 17.5788 70.2313 9.11442 57.4625 12.5837C44.6938 16.0529 41.2606 15.9808 41.2606 15.9808L18.3315 19.7954L35.6521 21.2543L27.7238 23.4915L18.7852 27.8371C18.7852 27.8371 21.4967 28.2598 24.3061 28.6825C27.1155 29.1052 30.0384 29.5279 30.4559 29.5279C31.2859 29.5279 30.8168 44.2246 35.5387 44.4772C40.2606 44.7298 43.1679 44.8896 43.1679 44.8896C43.1679 44.8896 38.013 42.1162 38.4512 42.1162C38.8894 42.1162 55.5191 44.7504 55.5191 44.7504L54.2665 40.312L65.7877 47.2711H68.2827Z" fill="#0F63AE" stroke="#0F63AE" stroke-miterlimit="10"/>
<path d="M19.7496 59.0554L26.0388 71.8091L24.8171 54.2561L27.0028 42.5283L22.7602 54.2561L22.3375 45.5853L18.7856 60.4215L19.7496 59.0554Z" fill="#0F63AE"/>
<path d="M71.3249 44.0694C71.3249 44.0694 75.1757 31.9807 72.8714 29.5218C70.5671 27.0628 58.2826 23.377 58.2826 23.377L71.3043 25.9545C72.6025 26.2125 73.766 26.9255 74.5854 27.965C75.4047 29.0046 75.8261 30.3025 75.7737 31.625C75.6139 35.6769 75.0108 41.1568 72.99 43.2652C72.4146 43.4889 71.8578 43.7578 71.3249 44.0694Z" fill="#0F63AE"/>
<path d="M79.7579 41.2084C80.392 40.0176 80.9848 38.7804 81.521 37.5328C82.0735 36.2949 82.5185 35.0117 82.851 33.6975C83.0254 33.0601 83.0848 32.3968 83.0263 31.7386C82.9611 31.4185 82.8463 31.1107 82.686 30.8261C82.5294 30.5236 82.3574 30.2294 82.1705 29.9446C81.4185 28.805 80.5247 27.7657 79.5105 26.8516C80.5895 27.7158 81.5543 28.7135 82.3819 29.8209C82.588 30.1009 82.779 30.3917 82.9541 30.6921C83.0469 30.8416 83.119 31.0014 83.2067 31.156C83.287 31.3201 83.3476 31.4932 83.3871 31.6715C83.5027 32.3778 83.4887 33.0993 83.3459 33.8006C83.0865 35.1699 82.7123 36.515 82.2272 37.8215C81.7581 39.1309 81.2426 40.3991 80.6807 41.6775L79.7579 41.2084Z" fill="#0F63AE"/>
<path d="M53.7563 40.404C53.6114 39.1246 53.3945 37.8545 53.1067 36.5995C52.968 35.9779 52.7819 35.3678 52.55 34.7746L52.3592 34.3571C52.2899 34.2323 52.2106 34.1134 52.1221 34.0014L51.9932 33.857L51.8025 33.6972C51.6685 33.589 51.5499 33.4756 51.4262 33.3673C49.4776 31.594 47.6166 29.7588 45.7556 27.9287C47.7455 29.6299 49.7302 31.3465 51.7716 32.9704L52.1582 33.2642L52.3489 33.4085L52.5654 33.6096C52.6868 33.7389 52.7988 33.8767 52.9005 34.022C52.983 34.1766 53.0706 34.3261 53.148 34.4808C53.4347 35.0899 53.6725 35.7208 53.8594 36.3675C54.2432 37.6408 54.553 38.9351 54.7873 40.2441L53.7563 40.404Z" fill="#0F63AE"/>
<path d="M38.312 42.6316C37.8921 42.4849 37.4894 42.2931 37.1109 42.0594C36.7164 41.8244 36.3672 41.5206 36.0799 41.1624C35.929 40.9726 35.8121 40.758 35.7345 40.5283C35.6595 40.3039 35.6213 40.0689 35.6211 39.8324C35.6211 39.4148 35.6211 39.0024 35.6211 38.5952C35.683 36.961 35.817 35.3423 35.9613 33.7236C35.9613 35.3475 36.0283 36.9713 36.1366 38.5849C36.1675 38.9869 36.2036 39.389 36.2552 39.7757C36.2697 39.954 36.315 40.1284 36.3892 40.2912C36.4572 40.4408 36.5515 40.5769 36.6676 40.6933C37.2081 41.178 37.8654 41.5137 38.5749 41.6676L38.312 42.6316Z" fill="#0F63AE"/>
<path d="M56.7972 27.2227C56.7972 27.2227 70.52 29.8002 70.52 32.3777C70.52 34.9552 68.5456 43.4353 68.5456 43.4353C68.5456 43.4353 69.6333 33.4654 68.4477 32.7747C67.262 32.0839 56.7972 27.2227 56.7972 27.2227Z" fill="#0F63AE"/>
<path d="M75.3397 19.8203C75.3397 19.8203 85.2271 20.3358 88.98 26.2384C90.3513 28.4086 87.0881 36.033 87.0881 36.033C87.0881 36.033 87.8614 30.914 87.5108 27.4446C87.3716 26.0579 75.3397 19.8203 75.3397 19.8203Z" fill="#0F63AE"/>
<path d="M99.3775 167.019C99.8929 167.153 100.496 167.318 101.244 167.498L102.512 167.792L103.543 168.014C108.407 168.994 113.339 169.601 118.296 169.828L119.729 169.89C120.894 169.932 122.09 169.952 123.286 169.957H125.41C128.57 169.901 131.766 169.715 134.921 169.395C136.828 169.2 138.787 168.952 140.741 168.653C142.607 168.37 144.349 168.06 146.081 167.71L146.473 167.607L146.215 167.277C144.952 165.679 142.38 164.05 141.333 163.426L141.019 163.24H140.942C140.426 163.277 137.766 163.483 134.055 163.694L131.477 163.828H131.075C128.096 163.972 125.255 164.076 122.636 164.127H121.605L119.353 164.153H117.131C110.837 164.106 106.507 163.699 104.244 162.947C103.926 162.845 103.617 162.715 103.321 162.56L103.182 162.478L103.048 162.575C101.464 163.643 99.9667 164.832 98.5681 166.132L98.4032 166.308L98.1145 166.612L98.5166 166.73L99.3775 167.019Z" fill="#0F63AE" stroke="#0F63AE" stroke-linecap="round" stroke-linejoin="round"/>
<path d="M64.5658 177.844L63.1637 133.878C63.1616 133.831 63.1689 133.784 63.1852 133.74C63.2015 133.695 63.2265 133.655 63.2586 133.62C63.2908 133.586 63.3295 133.558 63.3725 133.538C63.4155 133.519 63.4619 133.508 63.5091 133.507C63.6053 133.504 63.6987 133.539 63.7691 133.605C63.8396 133.671 63.8813 133.761 63.8854 133.858L65.272 178.159C65.0304 178.069 64.7946 177.964 64.5658 177.844Z" fill="#0F63AE"/>
<path d="M66.7101 178.675C72.5508 164.705 97.1249 166.153 98.1559 166.225C98.2033 166.229 98.2496 166.242 98.2921 166.263C98.3346 166.284 98.3724 166.313 98.4036 166.349C98.4347 166.385 98.4584 166.427 98.4734 166.472C98.4884 166.517 98.4944 166.565 98.491 166.612C98.4876 166.659 98.475 166.706 98.4537 166.748C98.4324 166.791 98.403 166.829 98.3671 166.86C98.3312 166.891 98.2895 166.915 98.2444 166.93C98.1994 166.945 98.1518 166.951 98.1044 166.947C97.857 166.947 73.0714 165.37 67.4266 178.866C67.1841 178.817 66.9448 178.753 66.7101 178.675Z" fill="#0F63AE"/>
<path d="M38.2509 62.8848L23.559 65.6221L25.6777 70.839L36.9518 67.2408L38.2509 62.8848Z" fill="#0F63AE"/>
<path d="M145.941 166.927L150.21 166.447L149.107 167.406L146.472 167.829L145.941 166.927Z" fill="#0F63AE"/>
<path d="M11.7281 124.215L12.0922 125.093L20.9475 118.174L21.2398 116.587L11.7281 124.215Z" fill="#0F63AE"/>
<defs>
<linearGradient id="paint0_linear_1729_20868" x1="67.61" y1="80.2438" x2="68.1539" y2="45.5587" gradientUnits="userSpaceOnUse">
<stop stop-color="white"/>
<stop offset="0.39" stop-color="white" stop-opacity="0.03"/>
<stop offset="1" stop-color="white" stop-opacity="0"/>
</linearGradient>
</defs>
</svg>
