<svg width="36" height="36" viewBox="0 0 36 36" fill="none" xmlns="http://www.w3.org/2000/svg">
<path fill-rule="evenodd" clip-rule="evenodd" d="M18 36C27.9411 36 36 27.9411 36 18C36 8.05888 27.9411 0 18 0C8.05888 0 0 8.05888 0 18C0 27.9411 8.05888 36 18 36ZM26.7347 12.8944C24.8935 14.0218 23.9818 15.5508 23.9936 17.5795C23.9936 17.5795 23.9934 17.5876 23.9932 17.5951C23.9859 17.8616 23.8995 21.0052 27.375 22.6572C26.7082 24.6919 24.4185 29.2104 21.754 29.249C21.0078 29.249 20.4112 29.0172 19.796 28.7782C19.1415 28.5239 18.466 28.2615 17.5671 28.2615C16.5952 28.2615 15.8633 28.5408 15.1776 28.8024C14.5954 29.0246 14.0466 29.234 13.4126 29.249C10.7717 29.3294 8.24008 24.3587 7.53782 22.33C7.01261 20.7892 6.75 19.2929 6.75 17.8443C6.75 12.942 9.99866 10.5326 13.0555 10.485C13.9041 10.485 14.8844 10.8423 15.7218 11.1476C16.3461 11.3751 16.8909 11.5737 17.2425 11.5737C17.5267 11.5737 17.9905 11.401 18.5594 11.1892C19.5496 10.8205 20.8584 10.3332 22.0933 10.4314C24.147 10.5891 25.7049 11.4071 26.7347 12.8944ZM22.2094 4.51339C22.2546 5.11052 22.3772 6.72957 20.8924 8.50685C19.8184 9.77107 18.5142 10.5118 17.0861 10.4017C16.9651 8.8757 17.5287 7.52224 18.4877 6.42757C19.3581 5.40727 20.8865 4.57734 22.2084 4.5L22.2094 4.51339Z" fill="#0F63AE"/>
</svg>
