<svg width="452" height="260" viewBox="0 0 452 260" fill="none" xmlns="http://www.w3.org/2000/svg">
<path d="M198.405 230.421L443.16 222.634C447.555 222.495 451.194 226.019 451.194 230.416C451.194 234.813 447.555 238.338 443.161 238.198L198.405 230.421Z" fill="#0DCBED"/>
<path d="M199.344 237.688L433.736 165.739C437.959 164.443 442.413 166.921 443.538 171.194C444.65 175.415 442.07 179.724 437.824 180.738L199.344 237.688Z" fill="#0DCBED"/>
<path d="M202.103 244.454L410.204 113.252C413.945 110.893 418.899 112.136 421.083 115.982C423.223 119.751 421.859 124.543 418.054 126.619L202.103 244.454Z" fill="#0DCBED"/>
<path d="M206.487 250.275L374.154 68.7043C377.147 65.4628 382.243 65.3843 385.335 68.532C388.352 71.6038 388.274 76.5498 385.161 79.5246L206.487 250.275Z" fill="#0DCBED"/>
<path d="M212.201 254.736L328.003 35.1298C330.048 31.2511 334.918 29.8648 338.699 32.0847C342.405 34.2599 343.609 39.0492 341.374 42.7185L212.201 254.736Z" fill="#0DCBED"/>
<path d="M218.861 257.543L274.858 14.8317C275.837 10.5895 280.147 8.01178 284.347 9.15615C288.499 10.2871 290.908 14.6114 289.684 18.7366L218.861 257.543Z" fill="#0DCBED"/>
<path d="M226.004 259.839L218.339 7.89729C218.208 3.57514 221.676 0 226 0C230.324 0 233.792 3.57497 233.661 7.89702L226.004 259.839Z" fill="#0DCBED"/>
<path d="M233.148 257.543L162.316 18.7367C161.092 14.6115 163.501 10.2871 167.653 9.15608C171.853 8.01174 176.163 10.5893 177.142 14.8314L233.148 257.543Z" fill="#0DCBED"/>
<path d="M239.799 254.736L110.626 42.7185C108.391 39.0492 109.595 34.2599 113.301 32.0847C117.082 29.8648 121.952 31.2511 123.997 35.1298L239.799 254.736Z" fill="#0DCBED"/>
<path d="M245.513 250.275L66.8432 79.529C63.7282 76.5522 63.6509 71.6023 66.6713 68.5297C69.7648 65.3828 74.8613 65.4625 77.8548 68.7045L245.513 250.275Z" fill="#0DCBED"/>
<path d="M249.907 244.454L33.9497 126.616C30.1472 124.541 28.7825 119.753 30.9198 115.985C33.1022 112.138 38.056 110.893 41.7977 113.252L249.907 244.454Z" fill="#0DCBED"/>
<path d="M252.656 237.688L14.176 180.738C9.9303 179.724 7.35044 175.415 8.4617 171.194C9.58651 166.921 14.0406 164.443 18.2644 165.739L252.656 237.688Z" fill="#0DCBED"/>
<path d="M253.604 230.42L8.83486 238.198C4.44271 238.337 0.806396 234.815 0.806396 230.42C0.806396 226.026 4.44272 222.503 8.83488 222.643L253.604 230.42Z" fill="#0DCBED"/>
</svg>
