<svg width="84" height="78" viewBox="0 0 84 78" fill="none" xmlns="http://www.w3.org/2000/svg">
<path d="M47.2486 64.4842C66.8272 64.4842 82.6988 63.0036 82.6988 61.1772C82.6988 59.3507 66.8272 57.8701 47.2486 57.8701C27.67 57.8701 11.7983 59.3507 11.7983 61.1772C11.7983 63.0036 27.67 64.4842 47.2486 64.4842Z" fill="url(#paint0_radial_2139_28058)"/>
<path d="M47.2166 61.1773L47.2483 60.7755L13.2021 54.625V55.4209L47.2166 61.1773Z" fill="url(#paint1_linear_2139_28058)"/>
<path d="M13.2024 54.6252V55.4211L0 21.489L0.146341 21.1182L13.2024 54.6252Z" fill="url(#paint2_linear_2139_28058)"/>
<path d="M47.2486 60.7758L82.8926 48.1156L62.3139 18.5376L34.8491 32.3685L47.2486 60.7758Z" fill="url(#paint3_linear_2139_28058)"/>
<path d="M46.9718 50.5493L47.2447 60.7795C47.2447 60.7795 13.337 55.0656 13.1986 54.629C13.0601 54.1925 0.146484 21.1182 0.146484 21.1182L34.8492 32.3683L46.9718 50.5493Z" fill="url(#paint4_linear_2139_28058)"/>
<path d="M15.9788 26.5425L2.87927 18.271L1.86279 21.5355L14.3255 52.7979C14.3255 52.7979 42.6921 57.1597 47.2168 59.6091C47.2484 58.5273 46.8094 57.604 46.8094 57.604L15.9788 26.5425Z" fill="url(#paint5_linear_2139_28058)"/>
<path d="M2.87939 18.2709L15.7337 50.3639C15.7337 50.3639 34.8688 50.476 47.1022 58.5079C43.8669 50.306 19.8273 44.0203 19.8273 44.0203C19.8273 44.0203 7.3527 18.7113 7.25777 18.5375C7.16285 18.3636 6.11473 18.0854 6.11473 18.0854L2.87939 18.2709Z" fill="url(#paint6_linear_2139_28058)"/>
<path d="M17.8892 20.9254C17.8892 20.9254 18.1027 16.2469 20.7488 16.7066C23.3948 17.1663 26.9465 22.6369 26.9465 22.6369L26.2425 24.9317L18.3242 24.1204L17.8892 20.9254Z" fill="#891622"/>
<path d="M34.3782 30.9621C34.3782 30.9621 23.1337 14.4848 3.99854 15.9413C6.30045 22.5515 17.0743 48.1232 17.0743 48.1232C17.0743 48.1232 30.1422 47.6171 46.8094 57.6C41.7388 44.0203 34.3782 30.9621 34.3782 30.9621Z" fill="url(#paint7_linear_2139_28058)"/>
<path d="M27.7259 34.9837C27.7259 34.9837 23.7074 18.2669 20.7529 16.7061C20.927 16.7023 21.097 16.6984 21.2631 16.7061C24.6171 16.795 28.2519 20.1175 28.9401 23.3241L32.2862 36.0809L29.5097 33.3225L27.7259 34.9837Z" fill="#BE1622"/>
<path d="M47.1023 58.5043C47.1023 58.5043 46.2084 54.3975 53.5334 51.6313C60.8584 48.8652 83.9961 42.085 83.9961 42.085L82.1253 45.9136L47.217 59.6092L47.1023 58.5043Z" fill="url(#paint8_linear_2139_28058)"/>
<path d="M47.1022 58.504C47.1022 58.504 47.2248 54.7488 55.5782 52.1217C63.9315 49.4947 84.0001 42.0886 84.0001 42.0886L78.1227 38.1904L49.9183 47.8914L45.6665 54.6291L47.1022 58.504Z" fill="url(#paint9_linear_2139_28058)"/>
<path d="M53.5333 51.6351C55.0758 51.0517 83.7113 40.0798 83.7113 40.0798L63.0969 14.4463C63.0969 14.4463 42.2017 18.9548 34.5524 30.6029C34.3784 30.9661 34.3784 30.9661 34.3784 30.9661L46.8056 57.604C46.8056 57.604 46.9282 57.5267 47.1299 57.4031C47.383 55.9891 48.5775 53.505 53.5333 51.6351Z" fill="url(#paint10_linear_2139_28058)"/>
<path d="M82.8925 48.1157V49.2863L47.2168 61.1778L47.2484 60.776L82.8925 48.1157Z" fill="url(#paint11_linear_2139_28058)"/>
<path d="M26.4482 22.3506C26.5906 22.4587 26.7093 22.594 26.8279 22.7485C26.5867 22.4356 26.8675 22.791 26.9426 22.8721C27.0376 22.9764 27.1404 23.0807 27.2432 23.1812C27.3382 23.2701 27.4331 23.3589 27.528 23.44C27.5834 23.4864 27.6388 23.5328 27.6941 23.5791C27.7139 23.5984 27.7851 23.6525 27.8128 23.6718C27.8167 23.6757 27.8246 23.6796 27.8246 23.6834C27.8721 23.7182 27.9196 23.7491 27.967 23.7839C27.9947 23.8032 28.0224 23.8186 28.0461 23.838C27.9512 23.5057 27.8602 23.1966 27.7851 22.9223C27.0217 20.2528 24.9809 19.3294 24.3164 19.0938C24.8741 19.3835 25.6374 20.6623 26.4482 22.3506Z" fill="#E30613"/>
<path d="M50.9067 47.2848C50.9067 47.2848 63.0056 40.2419 76.5877 38.1904" stroke="#706F6F" stroke-miterlimit="10" stroke-linecap="round" stroke-linejoin="round"/>
<path d="M49.0244 44.6847C49.0244 44.6847 60.9967 37.3791 74.7054 35.5903" stroke="#706F6F" stroke-miterlimit="10" stroke-linecap="round" stroke-linejoin="round"/>
<path d="M47.1455 42.0846C47.1455 42.0846 58.5245 33.705 72.8265 32.9902" stroke="#706F6F" stroke-miterlimit="10" stroke-linecap="round" stroke-linejoin="round"/>
<path d="M45.2627 39.4845C45.2627 39.4845 56.9542 30.9774 70.9436 30.3901" stroke="#706F6F" stroke-miterlimit="10" stroke-linecap="round" stroke-linejoin="round"/>
<path d="M43.3804 36.8844C43.3804 36.8844 54.6922 28.7675 69.0613 27.79" stroke="#706F6F" stroke-miterlimit="10" stroke-linecap="round" stroke-linejoin="round"/>
<path d="M41.5015 34.2843C41.5015 34.2843 52.7183 26.2331 67.1824 25.1899" stroke="#706F6F" stroke-miterlimit="10" stroke-linecap="round" stroke-linejoin="round"/>
<path d="M12.4946 22.2228L16.0662 32.9861L24.3483 32.99L21.8644 23.2002C21.8644 23.1964 16.4933 21.2454 12.4946 22.2228Z" stroke="#706F6F" stroke-miterlimit="10" stroke-linecap="round" stroke-linejoin="round"/>
<path d="M17.5176 37.8151C17.5176 37.8151 32.2031 36.1539 37.9144 41.1145" stroke="#706F6F" stroke-miterlimit="10" stroke-linecap="round" stroke-linejoin="round"/>
<path d="M18.4194 41.049C18.4194 41.049 33.105 39.3878 38.8163 44.3484" stroke="#706F6F" stroke-miterlimit="10" stroke-linecap="round" stroke-linejoin="round"/>
<path d="M19.3213 44.2863C19.3213 44.2863 34.0069 42.6251 39.7181 47.5856" stroke="#706F6F" stroke-miterlimit="10" stroke-linecap="round" stroke-linejoin="round"/>
<path d="M51.3066 13.3027L39.3896 30.4445" stroke="white" stroke-width="1.8858" stroke-miterlimit="10" stroke-linecap="round" stroke-linejoin="round"/>
<path d="M28.6748 45.604L26.4243 48.8415" stroke="white" stroke-width="1.8858" stroke-miterlimit="10" stroke-linecap="round" stroke-linejoin="round"/>
<path d="M55.9893 7.18678L59.6834 1.88623" stroke="white" stroke-width="1.8858" stroke-miterlimit="10" stroke-linecap="round" stroke-linejoin="round"/>
<path d="M17.5454 31.584C17.5454 31.584 15.9277 27.1952 17.8895 26.8707C19.8512 26.5462 15.9277 23.8457 17.8895 23.8341C19.8512 23.8225 21.3305 24.8386 20.6344 26.3878C21.7616 27.172 23.3199 28.9415 23.3199 28.9415L24.3483 32.9903L17.8895 32.9864L17.5454 31.584Z" stroke="#706F6F" stroke-miterlimit="10" stroke-linecap="round" stroke-linejoin="round"/>
<path d="M17.9053 71.7012C30.1544 71.3032 42.4036 70.9053 54.6528 70.5112C50.484 72.8331 46.0543 74.7107 41.4702 76.0977" stroke="#1D1D1B" stroke-width="2.0513" stroke-miterlimit="10" stroke-linecap="round" stroke-linejoin="round"/>
<path d="M54.1583 10.4318L64.0462 17.0768C64.6988 17.5173 65.5966 17.355 66.0436 16.7175L71.5927 8.84013C72.0436 8.20268 71.8774 7.32569 71.2248 6.88913L70.5841 6.31735C68.1556 4.15 65.4463 2.30717 62.5195 0.839092L61.3409 0.247997C60.6882 -0.192427 59.7904 -0.0301664 59.3435 0.60729L53.7944 8.4847C53.3356 9.1183 53.5017 9.99142 54.1583 10.4318Z" fill="#FF6969"/>
<path d="M25.4279 64.1558L22.9441 62.4868L17.5176 71.1446L17.5453 72.2998L18.6883 72.0178L25.4279 64.1558Z" fill="#3C3C3B"/>
<path d="M63.8883 19.7695L51.6351 11.5366L24.8032 49.6295L37.0564 57.8662L63.8883 19.7695Z" fill="url(#paint12_linear_2139_28058)"/>
<path d="M54.6134 13.5378L51.6351 11.5366L24.8032 49.6295L27.7854 51.6346L54.6134 13.5378Z" fill="url(#paint13_linear_2139_28058)"/>
<path d="M63.8883 19.7698L60.9061 17.7686L34.0781 55.8614L37.0564 57.8665L63.8883 19.7698Z" fill="url(#paint14_linear_2139_28058)"/>
<path d="M52.9877 6.84204L50.311 10.6426L64.9685 20.4921L67.6452 16.6916L52.9877 6.84204Z" fill="#9D9D9C"/>
<path d="M24.803 49.6294L21.8643 64.0243L22.6039 63.9277C22.6039 63.9277 27.9394 51.7388 27.7852 51.6345C27.6309 51.5302 24.803 49.6294 24.803 49.6294Z" fill="#FBFEFF"/>
<path d="M37.0563 57.8663L24.3444 65.6935L24.1743 64.9827C24.1743 64.9827 33.9199 55.7569 34.0741 55.8612C34.2323 55.9655 37.0563 57.8663 37.0563 57.8663Z" fill="#D0A885"/>
<path d="M24.1782 64.9827L22.604 63.9242L27.7853 51.6348L34.078 55.8613L24.1782 64.9827Z" fill="#FBDCC8"/>
<path d="M62.9624 13.5456L64.9914 14.8978L69.8484 7.93989L67.7442 6.70361L62.9624 13.5456Z" fill="#DD6262"/>
<path d="M71.1022 7.74355C71.3004 7.45977 69.1805 5.70992 66.3673 3.83515C63.554 1.96039 61.1128 0.670641 60.9146 0.954425C60.7163 1.23821 62.8362 2.98806 65.6495 4.86282C68.4627 6.73759 70.904 8.02733 71.1022 7.74355Z" fill="#FFA8A8"/>
<path d="M24.1782 64.9824L17.5454 72.2997L18.6885 72.0176L24.3483 65.6933L24.1782 64.9824Z" fill="#1D1D1B"/>
<defs>
<radialGradient id="paint0_radial_2139_28058" cx="0" cy="0" r="1" gradientUnits="userSpaceOnUse" gradientTransform="translate(47.246 61.1782) scale(35.4485 3.30858)">
<stop/>
<stop offset="0.1443" stop-opacity="0.8557"/>
<stop offset="1" stop-opacity="0"/>
</radialGradient>
<linearGradient id="paint1_linear_2139_28058" x1="13.2025" y1="57.9015" x2="47.2469" y2="57.9015" gradientUnits="userSpaceOnUse">
<stop stop-color="#750E15"/>
<stop offset="0.4484" stop-color="#97121B"/>
<stop offset="1" stop-color="#BE1622"/>
</linearGradient>
<linearGradient id="paint2_linear_2139_28058" x1="-0.00146341" y1="38.2714" x2="13.2027" y2="38.2714" gradientUnits="userSpaceOnUse">
<stop stop-color="#750E15"/>
<stop offset="0.4484" stop-color="#97121B"/>
<stop offset="1" stop-color="#BE1622"/>
</linearGradient>
<linearGradient id="paint3_linear_2139_28058" x1="34.8507" y1="39.6575" x2="82.892" y2="39.6575" gradientUnits="userSpaceOnUse">
<stop stop-color="#750E15"/>
<stop offset="0.4484" stop-color="#97121B"/>
<stop offset="1" stop-color="#BE1622"/>
</linearGradient>
<linearGradient id="paint4_linear_2139_28058" x1="0.146168" y1="40.9486" x2="47.2472" y2="40.9486" gradientUnits="userSpaceOnUse">
<stop stop-color="#BE1622"/>
<stop offset="0.5516" stop-color="#97121B"/>
<stop offset="1" stop-color="#750E15"/>
</linearGradient>
<linearGradient id="paint5_linear_2139_28058" x1="1.86109" y1="38.9387" x2="47.2173" y2="38.9387" gradientUnits="userSpaceOnUse">
<stop stop-color="#BFBFBF"/>
<stop offset="0.0527" stop-color="#C6C6C5"/>
<stop offset="0.3494" stop-color="#EDEAE6"/>
<stop offset="0.6137" stop-color="#EBE8E4"/>
<stop offset="0.7641" stop-color="#E2E0DD"/>
<stop offset="0.8855" stop-color="#D5D3D1"/>
<stop offset="0.9915" stop-color="#C1C1C1"/>
<stop offset="1" stop-color="#BFBFBF"/>
</linearGradient>
<linearGradient id="paint6_linear_2139_28058" x1="2.87864" y1="38.2943" x2="47.1016" y2="38.2943" gradientUnits="userSpaceOnUse">
<stop stop-color="white"/>
<stop offset="0.00606871" stop-color="#FEFEFE"/>
<stop offset="0.1645" stop-color="#E5E3E1"/>
<stop offset="0.3325" stop-color="#D2CECA"/>
<stop offset="0.5152" stop-color="#C5C0BA"/>
<stop offset="0.7213" stop-color="#BDB7B1"/>
<stop offset="1" stop-color="#BAB4AE"/>
</linearGradient>
<linearGradient id="paint7_linear_2139_28058" x1="3.99719" y1="36.7278" x2="46.8065" y2="36.7278" gradientUnits="userSpaceOnUse">
<stop stop-color="white"/>
<stop offset="0.2739" stop-color="#FCFCFC"/>
<stop offset="0.4809" stop-color="#F4F3F2"/>
<stop offset="0.666" stop-color="#E6E4E2"/>
<stop offset="0.8373" stop-color="#D3CFCB"/>
<stop offset="1" stop-color="#BAB4AE"/>
</linearGradient>
<linearGradient id="paint8_linear_2139_28058" x1="47.0672" y1="50.8472" x2="83.9969" y2="50.8472" gradientUnits="userSpaceOnUse">
<stop offset="0.3253" stop-color="#EDEAE6"/>
<stop offset="0.8982" stop-color="#C6C6C5"/>
<stop offset="1" stop-color="#BFBFBF"/>
</linearGradient>
<linearGradient id="paint9_linear_2139_28058" x1="45.6583" y1="48.3472" x2="83.9969" y2="48.3472" gradientUnits="userSpaceOnUse">
<stop stop-color="#B3ADA7"/>
<stop offset="0.2406" stop-color="#C1BCB7"/>
<stop offset="0.7108" stop-color="#E6E4E2"/>
<stop offset="1" stop-color="white"/>
</linearGradient>
<linearGradient id="paint10_linear_2139_28058" x1="34.3781" y1="36.0239" x2="83.7112" y2="36.0239" gradientUnits="userSpaceOnUse">
<stop stop-color="#B3ADA7"/>
<stop offset="0.0505" stop-color="#C4C0BB"/>
<stop offset="0.1301" stop-color="#DAD7D4"/>
<stop offset="0.2196" stop-color="#EAE9E7"/>
<stop offset="0.323" stop-color="#F6F5F5"/>
<stop offset="0.453" stop-color="#FDFDFD"/>
<stop offset="0.6948" stop-color="white"/>
</linearGradient>
<linearGradient id="paint11_linear_2139_28058" x1="47.2173" y1="54.6474" x2="82.8918" y2="54.6474" gradientUnits="userSpaceOnUse">
<stop stop-color="#BE1622"/>
<stop offset="0.5516" stop-color="#97121B"/>
<stop offset="1" stop-color="#750E15"/>
</linearGradient>
<linearGradient id="paint12_linear_2139_28058" x1="24.0756" y1="35.7104" x2="64.6091" y2="33.5955" gradientUnits="userSpaceOnUse">
<stop stop-color="#F39200"/>
<stop offset="0.506" stop-color="#F38F00"/>
<stop offset="0.9409" stop-color="#F38400"/>
<stop offset="1" stop-color="#F38200"/>
</linearGradient>
<linearGradient id="paint13_linear_2139_28058" x1="23.9014" y1="32.3722" x2="55.5108" y2="30.7229" gradientUnits="userSpaceOnUse">
<stop stop-color="#F3C268"/>
<stop offset="0.3242" stop-color="#F3C26B"/>
<stop offset="0.6031" stop-color="#F3C476"/>
<stop offset="0.8645" stop-color="#F3C688"/>
<stop offset="1" stop-color="#F3C794"/>
</linearGradient>
<linearGradient id="paint14_linear_2139_28058" x1="33.1751" y1="38.6047" x2="64.7844" y2="36.9554" gradientUnits="userSpaceOnUse">
<stop stop-color="#CC7A00"/>
<stop offset="0.3956" stop-color="#C97700"/>
<stop offset="0.7355" stop-color="#BE6C00"/>
<stop offset="1" stop-color="#B05E00"/>
</linearGradient>
</defs>
</svg>
