<svg width="45" height="42" viewBox="0 0 45 42" fill="none" xmlns="http://www.w3.org/2000/svg">
<path d="M4.59177 22.2092L36.8423 10.5552L43.2987 28.1716C43.4666 28.6199 43.4351 29.1098 43.2357 29.5372C43.0362 29.9646 42.6688 30.2981 42.2173 30.4649L13.3683 40.8888C12.9168 41.0556 12.4234 41.0348 11.993 40.8263C11.5626 40.6282 11.2266 40.2634 11.0587 39.8152L4.59177 22.2092ZM1.51579 13.8284C1.34782 13.3801 1.37931 12.8902 1.57878 12.4628C1.77825 12.0354 2.14568 11.7019 2.59711 11.5351L31.4462 1.11119C31.8976 0.944406 32.391 0.965254 32.8215 1.17373C33.2519 1.37179 33.5878 1.73662 33.7558 2.18485L36.8318 10.5761L4.59177 22.2092L1.51579 13.8284Z" stroke="white" stroke-width="2" stroke-linejoin="round"/>
<path d="M14.3866 25.3261L19.4782 23.481L14.3866 25.3261ZM9.31592 6.26073L11.7725 12.9737L9.31592 6.26073ZM22.8901 1.35107L25.3467 8.06407L22.8901 1.35107ZM28.7271 27.7444L33.8187 25.8994L28.7271 27.7444ZM16.8431 32.0391L21.9348 30.194L16.8431 32.0391ZM26.26 21.0314L31.3517 19.1864L26.26 21.0314Z" stroke="white" stroke-width="2" stroke-linecap="round" stroke-linejoin="round"/>
</svg>
