<svg width="25" height="24" viewBox="0 0 25 24" fill="none" xmlns="http://www.w3.org/2000/svg">
<rect x="5.40723" y="6.5" width="15" height="13" stroke="#3396EF" stroke-width="2" stroke-linejoin="round"/>
<path d="M8.90723 8V4M16.9072 8V4" stroke="#3396EF" stroke-width="2" stroke-linecap="round" stroke-linejoin="round"/>
<path d="M7.91504 12.8262C7.91504 12.3721 8.28503 12.0039 8.74144 12.0039H9.09254C9.54895 12.0039 9.91895 12.3721 9.91895 12.8262C9.91895 13.2803 9.54895 13.6485 9.09254 13.6485H8.74144C8.28503 13.6485 7.91504 13.2803 7.91504 12.8262Z" fill="#3396EF"/>
<path d="M11.9053 12.8262C11.9053 12.3721 12.2753 12.0039 12.7317 12.0039H13.0828C13.5392 12.0039 13.9092 12.3721 13.9092 12.8262C13.9092 13.2803 13.5392 13.6485 13.0828 13.6485H12.7317C12.2753 13.6485 11.9053 13.2803 11.9053 12.8262Z" fill="#3396EF"/>
<path d="M7.91504 16.1694C7.91504 15.7153 8.28503 15.3471 8.74144 15.3471H9.09254C9.54895 15.3471 9.91895 15.7153 9.91895 16.1694C9.91895 16.6236 9.54895 16.9917 9.09254 16.9917H8.74144C8.28503 16.9917 7.91504 16.6236 7.91504 16.1694Z" fill="#3396EF"/>
<path d="M15.8955 12.8262C15.8955 12.3721 16.2655 12.0039 16.7219 12.0039H17.073C17.5294 12.0039 17.8994 12.3721 17.8994 12.8262C17.8994 13.2803 17.5294 13.6485 17.073 13.6485H16.7219C16.2655 13.6485 15.8955 13.2803 15.8955 12.8262Z" fill="#3396EF"/>
<path d="M11.9053 16.1694C11.9053 15.7153 12.2753 15.3471 12.7317 15.3471H13.0828C13.5392 15.3471 13.9092 15.7153 13.9092 16.1694C13.9092 16.6236 13.5392 16.9917 13.0828 16.9917H12.7317C12.2753 16.9917 11.9053 16.6236 11.9053 16.1694Z" fill="#3396EF"/>
</svg>
