<svg width="49" height="49" viewBox="0 0 49 49" fill="none" xmlns="http://www.w3.org/2000/svg">
<g clip-path="url(#clip0_2202_24679)">
<g filter="url(#filter0_d_2202_24679)">
<path d="M3.69558 14.1086C3.69558 14.1086 2.12277 14.8525 2.45273 15.9794C2.78269 17.1062 5.78534 25.3004 5.78534 25.3004L39.5404 13.0802L36.2078 4.03267C36.2078 4.03267 35.7678 2.50104 33.9091 3.16839C32.0393 3.84668 3.69558 14.1086 3.69558 14.1086Z" fill="#2FAC66"/>
<path d="M4.08035 15.8151C4.08035 15.8151 2.50753 16.5591 2.83749 17.6859C3.16745 18.8127 4.63028 22.1386 4.63028 22.1386L37.9454 10.2466L36.5816 5.73921C36.5816 5.73921 36.1416 4.20758 34.2828 4.87493C32.424 5.55323 4.08035 15.8151 4.08035 15.8151Z" fill="url(#paint0_linear_2202_24679)"/>
<path d="M2.56198 16.5045C2.386 16.0341 2.419 15.5199 2.62797 15.0714C2.83695 14.6228 3.2219 14.2727 3.69485 14.0977L33.8973 3.16845C34.3703 2.99341 34.8872 3.01529 35.3382 3.23409C35.7891 3.44196 36.1411 3.82486 36.317 4.28435L39.5397 13.0803L5.78461 25.3005L2.56198 16.5045Z" stroke="#87E25E" stroke-width="0.9359" stroke-linejoin="round"/>
<path d="M13.2974 17.489C14.3725 17.489 15.2441 16.6221 15.2441 15.5526C15.2441 14.4832 14.3725 13.6162 13.2974 13.6162C12.2222 13.6162 11.3506 14.4832 11.3506 15.5526C11.3506 16.6221 12.2222 17.489 13.2974 17.489Z" fill="#2FAC66"/>
<path d="M27.5083 12.4021C28.5835 12.4021 29.4551 11.5352 29.4551 10.4657C29.4551 9.39626 28.5835 8.5293 27.5083 8.5293C26.4331 8.5293 25.5615 9.39626 25.5615 10.4657C25.5615 11.5352 26.4331 12.4021 27.5083 12.4021Z" fill="#2FAC66"/>
<path d="M10.7236 8.57304L13.2973 15.6076L10.7236 8.57304ZM24.934 3.43115L27.5077 10.4657L24.934 3.43115Z" stroke="#87E25E" stroke-width="0.9359" stroke-linecap="round" stroke-linejoin="round"/>
<path d="M46.2934 31.5471L39.5402 13.0801L5.78516 25.3003L12.5384 43.7673C12.7143 44.2378 13.0553 44.6097 13.5173 44.8176C13.9682 45.0254 14.4961 45.0473 14.9581 44.8832L45.1606 33.954C45.6335 33.7789 46.0185 33.4288 46.2274 32.9803C46.4364 32.5317 46.4584 32.0176 46.2934 31.5471ZM16.025 30.0921C15.376 30.0921 14.7931 29.6873 14.5731 29.0856C14.2872 28.2869 14.6941 27.4117 15.497 27.1163L20.8314 25.1909C20.9964 25.1252 21.1724 25.0924 21.3593 25.0924C22.0083 25.0924 22.5912 25.4972 22.8112 26.0989C23.0971 26.8975 22.6902 27.7728 21.8873 28.0681L16.5529 29.9936C16.3879 30.0702 16.2119 30.0921 16.025 30.0921ZM24.461 35.1136L19.1266 37.0391C18.9616 37.1047 18.7746 37.1266 18.5987 37.1266C17.9497 37.1266 17.3668 36.7218 17.1468 36.1092C17.0808 35.9451 17.0588 35.7591 17.0588 35.5841C17.0588 34.9386 17.4658 34.3588 18.0707 34.14L23.4051 32.2145C23.5701 32.1488 23.7571 32.127 23.933 32.127C24.582 32.127 25.1649 32.5317 25.3849 33.1444C25.4509 33.3085 25.4729 33.4945 25.4729 33.6695C25.4729 34.315 25.0659 34.8948 24.461 35.1136ZM28.4645 25.5957C27.8156 25.5957 27.2327 25.1909 27.0127 24.5782C26.9467 24.4141 26.9247 24.2281 26.9247 24.0531C26.9247 23.4076 27.3316 22.8278 27.9366 22.609L33.2709 20.6835C33.4359 20.6179 33.6229 20.5851 33.7989 20.5851C34.4478 20.5851 35.0307 20.9898 35.2507 21.6025C35.3167 21.7666 35.3387 21.9526 35.3387 22.1276C35.3387 22.7731 34.9318 23.3529 34.3268 23.5717L28.9924 25.4972C28.8165 25.5628 28.6405 25.5957 28.4645 25.5957ZM36.8895 30.6063L31.5551 32.5317C31.3902 32.5974 31.2032 32.6193 31.0272 32.6193C30.3783 32.6193 29.7954 32.2145 29.5754 31.6018C29.5094 31.4377 29.4874 31.2517 29.4874 31.0767C29.4874 30.4312 29.8943 29.8514 30.4993 29.6326L35.8227 27.7071C35.9876 27.6415 36.1746 27.6087 36.3506 27.6087C36.9995 27.6087 37.5824 28.0134 37.8024 28.6261C37.8684 28.7902 37.8904 28.9762 37.8904 29.1512C37.9124 29.8076 37.5055 30.3875 36.8895 30.6063Z" fill="url(#paint1_linear_2202_24679)"/>
<path d="M5.78516 25.3003L39.5402 13.0801L46.2934 31.5471C46.4694 32.0176 46.4364 32.5317 46.2274 32.9803C46.0185 33.4288 45.6335 33.7789 45.1606 33.954L14.9581 44.8832C14.4851 45.0583 13.9682 45.0364 13.5173 44.8176C13.0663 44.6097 12.7143 44.2268 12.5384 43.7673L5.78516 25.3003Z" stroke="#C2FFE3" stroke-width="0.9359" stroke-linejoin="round"/>
</g>
</g>
<defs>
<filter id="filter0_d_2202_24679" x="-2.01953" y="-0.416016" width="52.8945" height="50.8838" filterUnits="userSpaceOnUse" color-interpolation-filters="sRGB">
<feFlood flood-opacity="0" result="BackgroundImageFix"/>
<feColorMatrix in="SourceAlpha" type="matrix" values="0 0 0 0 0 0 0 0 0 0 0 0 0 0 0 0 0 0 127 0" result="hardAlpha"/>
<feOffset dy="1"/>
<feGaussianBlur stdDeviation="2"/>
<feComposite in2="hardAlpha" operator="out"/>
<feColorMatrix type="matrix" values="0 0 0 0 0.096875 0 0 0 0 0.242805 0 0 0 0 0.375 0 0 0 0.64 0"/>
<feBlend mode="normal" in2="BackgroundImageFix" result="effect1_dropShadow_2202_24679"/>
<feBlend mode="normal" in="SourceGraphic" in2="effect1_dropShadow_2202_24679" result="shape"/>
</filter>
<linearGradient id="paint0_linear_2202_24679" x1="2.79427" y1="13.4184" x2="37.945" y2="13.4184" gradientUnits="userSpaceOnUse">
<stop stop-color="#87E25E"/>
<stop offset="1" stop-color="#3AAA35"/>
</linearGradient>
<linearGradient id="paint1_linear_2202_24679" x1="5.78098" y1="29.0383" x2="46.4034" y2="29.0383" gradientUnits="userSpaceOnUse">
<stop stop-color="white"/>
<stop offset="1" stop-color="#C0F1FA"/>
</linearGradient>
<clipPath id="clip0_2202_24679">
<rect width="48" height="49" fill="white" transform="translate(0.407227)"/>
</clipPath>
</defs>
</svg>
