<svg width="24" height="24" viewBox="0 0 24 24" fill="none" xmlns="http://www.w3.org/2000/svg">
<ellipse cx="16.2395" cy="8.01101" rx="1.57152" ry="1.4988" fill="#3396EF"/>
<ellipse cx="5.76293" cy="11.0081" rx="1.57152" ry="1.4988" fill="#3396EF"/>
<ellipse cx="10.4767" cy="7.51061" rx="2.09536" ry="1.9984" fill="#3396EF"/>
<ellipse cx="11.5251" cy="15.5057" rx="2.09536" ry="1.9984" stroke="#3396EF" stroke-width="2"/>
<path d="M11.0007 3.51518H11.0183L11.036 3.51456C17.8072 3.27535 21.1747 6.00808 22.4062 8.6241C23.0378 9.96586 23.1273 11.2984 22.8538 12.2981C22.5816 13.2932 21.9916 13.8741 21.2702 14.027C18.8584 14.5381 18.0012 16.1617 17.3423 17.4097C17.2097 17.6609 17.0851 17.8969 16.9575 18.1055C16.5591 18.757 16.0906 19.3163 15.274 19.7366C14.4328 20.1695 13.1334 20.5 11.0007 20.5C8.49938 20.5 5.9728 19.5282 4.07887 17.9513C2.18554 16.3748 1 14.2634 1 12.0076C1 9.75175 2.18554 7.6404 4.07887 6.06393C5.9728 4.48696 8.49938 3.51518 11.0007 3.51518Z" stroke="#3396EF" stroke-width="2"/>
</svg>
