<svg width="21" height="20" viewBox="0 0 21 20" fill="none" xmlns="http://www.w3.org/2000/svg">
<mask id="path-1-outside-1_2082_17877" maskUnits="userSpaceOnUse" x="1.74072" y="3" width="18" height="15" fill="black">
<rect fill="white" x="1.74072" y="3" width="18" height="15"/>
<path d="M10.517 15.8333C9.99544 15.5906 3.74072 8.8597 3.74072 8.8597L10.517 8.81953L17.0739 8.8597L10.517 15.8333Z"/>
<path d="M14.029 5L10.517 8.81953L17.0739 8.8597L14.029 5Z"/>
<path d="M7.11509 5L3.74072 8.8597L10.517 8.81953L7.11509 5Z"/>
<path d="M14.029 5L10.517 8.81953L7.11509 5L14.029 5Z"/>
<path d="M12.5775 5.6334H8.53627L10.5246 7.86654L12.5775 5.6334Z"/>
<path d="M13.1789 5.91515L10.5197 8.60994L7.84991 5.82492"/>
<path d="M13.1789 5.91515C12.9318 6.11541 12.6953 6.32556 12.4583 6.53571C12.2236 6.74762 11.9895 6.9601 11.7596 7.17725C11.2997 7.61037 10.8481 8.05164 10.4048 8.50049L10.6377 8.50223C10.4154 8.26995 10.1908 8.03942 9.96504 7.81121C9.73806 7.58359 9.51048 7.35597 9.27876 7.13242C9.04822 6.90771 8.81235 6.68824 8.57648 6.46818C8.33765 6.25104 8.1 6.03331 7.85109 5.82548C8.04725 6.08221 8.25409 6.32847 8.46032 6.5753C8.66953 6.8198 8.87873 7.06431 9.09326 7.30358C9.30661 7.544 9.52352 7.78094 9.74161 8.0173C9.9603 8.25307 10.1808 8.48651 10.4036 8.71879L10.5192 8.8393L10.6365 8.72054C11.0792 8.27112 11.5142 7.81412 11.9409 7.34898C12.1542 7.1167 12.3629 6.87977 12.5715 6.64283C12.7759 6.4024 12.9822 6.16373 13.1789 5.91515Z"/>
<path d="M7.12866 5.56065L5.83552 8.75901L4.17613 8.85739L7.12866 5.56065Z"/>
<path d="M10.517 15.8333L5.83552 8.75901L4.26445 8.85736L10.517 15.8333Z"/>
<path d="M13.7954 5.56064L15.242 8.83992L16.5666 8.85622L13.7954 5.56064Z"/>
<path d="M10.4073 15.8333L15.2118 8.83991L16.5666 8.82012L10.4073 15.8333Z"/>
<path d="M16.7954 8.85734L10.52 8.82008L3.8172 8.86025"/>
<path d="M16.7954 8.85734C16.2549 8.81485 15.7144 8.78748 15.1734 8.76245C14.6329 8.73742 14.0918 8.72112 13.5513 8.70423C13.0102 8.69376 12.4697 8.67746 11.9286 8.67396L11.1173 8.66465C10.8471 8.66465 10.5762 8.66232 10.306 8.66581L9.49468 8.67454L8.68335 8.6891C8.14227 8.69725 7.60179 8.7118 7.06071 8.72636C5.97914 8.75779 4.89757 8.79563 3.8166 8.85967C4.89876 8.9109 5.97973 8.93535 7.0613 8.95398C7.60179 8.96155 8.14287 8.97028 8.68335 8.97144L9.49468 8.9761L10.3054 8.97494C11.387 8.986 12.468 8.98367 13.5495 8.97086C14.09 8.96038 14.6311 8.95049 15.1716 8.93186C15.7132 8.91439 16.2543 8.89344 16.7954 8.85734Z"/>
<path d="M7.31183 6.22484L9.54074 8.35495L6.37842 8.36019L7.31183 6.22484Z"/>
<path d="M13.6799 6.22484L11.5019 8.37008L14.5913 8.41782L13.6799 6.22484Z"/>
</mask>
<path d="M3.73479 7.85972C3.18252 7.86299 2.73747 8.31335 2.74074 8.86563C2.74401 9.4179 3.19438 9.86296 3.74665 9.85968L3.73479 7.85972ZM17.0678 9.85968C17.6201 9.86307 18.0705 9.4181 18.0739 8.86583C18.0773 8.31355 17.6323 7.8631 17.0801 7.85972L17.0678 9.85968ZM14.7651 5.67685C15.1389 5.2703 15.1124 4.63769 14.7058 4.26388C14.2993 3.89006 13.6666 3.9166 13.2928 4.32315L14.7651 5.67685ZM7.86185 4.3349C7.49452 3.92248 6.86242 3.88592 6.44999 4.25324C6.03757 4.62057 6.00101 5.25268 6.36834 5.6651L7.86185 4.3349ZM3.74665 9.85968L10.5229 9.81951L10.511 7.81955L3.73479 7.85972L3.74665 9.85968ZM10.5108 9.81951L17.0678 9.85968L17.0801 7.85972L10.5231 7.81955L10.5108 9.81951ZM13.2928 4.32315L9.78085 8.14268L11.2531 9.49638L14.7651 5.67685L13.2928 4.32315ZM11.2637 8.15443L7.86185 4.3349L6.36834 5.6651L9.77021 9.48463L11.2637 8.15443ZM10.517 15.8333L9.67296 17.6465C10.4553 18.0107 11.3829 17.832 11.974 17.2033L10.517 15.8333ZM3.74072 8.8597L2.23502 7.54333C1.56073 8.3146 1.57826 9.47068 2.27564 10.2211L3.74072 8.8597ZM17.0739 8.8597L18.531 10.2297C19.2095 9.50811 19.2576 8.39858 18.6441 7.62095L17.0739 8.8597ZM14.029 5L15.5991 3.76125C15.2199 3.28051 14.6413 3 14.029 3V5ZM7.11509 5V3C6.53807 3 5.98917 3.24921 5.60939 3.68362L7.11509 5ZM12.5775 5.6334L14.0499 6.98694C14.587 6.40267 14.7278 5.55607 14.4088 4.82938C14.0897 4.10268 13.3711 3.6334 12.5775 3.6334V5.6334ZM8.53627 5.6334V3.6334C7.74839 3.6334 7.03392 4.09597 6.71146 4.81484C6.38899 5.53371 6.51862 6.37492 7.04255 6.96336L8.53627 5.6334ZM10.5246 7.86654L9.03086 9.1965C9.40667 9.6186 9.94353 9.86199 10.5087 9.86648C11.0738 9.87098 11.6145 9.63616 11.997 9.22009L10.5246 7.86654ZM13.1789 5.91515L14.7471 7.15642C15.3799 6.35701 15.31 5.20961 14.585 4.49285C13.86 3.77609 12.7118 3.71942 11.9198 4.36128L13.1789 5.91515ZM10.5197 8.60994L9.07599 9.99399C9.44973 10.3838 9.96524 10.606 10.5053 10.6099C11.0453 10.6138 11.564 10.3991 11.9433 10.0147L10.5197 8.60994ZM9.29366 4.44087C8.52928 3.64351 7.26323 3.61678 6.46586 4.38116C5.6685 5.14555 5.64177 6.41159 6.40615 7.20896L9.29366 4.44087ZM12.4583 6.53571L11.1315 5.03914C11.127 5.04317 11.1224 5.04722 11.1179 5.05129L12.4583 6.53571ZM11.7596 7.17725L13.1308 8.6332L13.1327 8.63136L11.7596 7.17725ZM10.4048 8.50049L8.9818 7.09509C8.41687 7.66708 8.24935 8.52173 8.55653 9.26467C8.8637 10.0076 9.58587 10.4944 10.3898 10.5004L10.4048 8.50049ZM10.6377 8.50223L10.6227 10.5022C11.4263 10.5082 12.1554 10.0327 12.4739 9.29485C12.7924 8.55703 12.6383 7.70025 12.0828 7.11959L10.6377 8.50223ZM9.96504 7.81121L11.3867 6.40451L11.3812 6.399L9.96504 7.81121ZM9.27876 7.13242L7.88274 8.56463L7.89016 8.5718L9.27876 7.13242ZM8.57648 6.46818L9.94082 5.00579C9.93455 4.99994 9.92824 4.99414 9.9219 4.98837L8.57648 6.46818ZM7.85109 5.82548L9.13293 4.29027C8.35106 3.63743 7.20344 3.67651 6.46778 4.38103C5.73213 5.08554 5.64347 6.23039 6.2619 7.03976L7.85109 5.82548ZM8.46032 6.5753L6.92555 7.85766C6.93055 7.86365 6.93559 7.86961 6.94066 7.87554L8.46032 6.5753ZM9.09326 7.30358L10.5892 5.9761L10.5823 5.96841L9.09326 7.30358ZM9.74161 8.0173L8.27175 9.37359L8.27526 9.37737L9.74161 8.0173ZM10.4036 8.71879L11.8471 7.33448L11.8468 7.33423L10.4036 8.71879ZM10.5192 8.8393L9.07566 10.2236C9.44926 10.6132 9.96447 10.8352 10.5042 10.8392C11.044 10.8433 11.5624 10.629 11.9418 10.245L10.5192 8.8393ZM10.6365 8.72054L12.0592 10.1262L12.0613 10.1241L10.6365 8.72054ZM11.9409 7.34898L10.4679 5.99606L10.4671 5.99698L11.9409 7.34898ZM12.5715 6.64283L14.0726 7.96446C14.0801 7.95586 14.0876 7.9472 14.095 7.93848L12.5715 6.64283ZM7.12866 5.56065L8.98284 6.31032C9.34707 5.40948 9.01111 4.3772 8.18645 3.86328C7.36179 3.34936 6.28707 3.50252 5.63881 4.22636L7.12866 5.56065ZM4.17613 8.85739L2.68628 7.5231C2.14559 8.12682 2.02269 8.99717 2.37508 9.727C2.72747 10.4568 3.48547 10.9019 4.2945 10.8539L4.17613 8.85739ZM4.26445 8.85736L4.13949 6.86127C3.37452 6.90916 2.70421 7.39001 2.41369 8.09929C2.12317 8.80856 2.26355 9.62148 2.77512 10.1922L4.26445 8.85736ZM13.7954 5.56064L15.3261 4.27347C14.6855 3.51166 13.5823 3.33684 12.7375 3.86329C11.8928 4.38973 11.5638 5.45721 11.9655 6.36787L13.7954 5.56064ZM15.242 8.83992L13.4121 9.64715C13.7284 10.364 14.434 10.8301 15.2174 10.8398L15.242 8.83992ZM16.5666 8.85622L16.5419 10.8561C17.324 10.8657 18.0399 10.4186 18.3744 9.71165C18.7089 9.0047 18.6006 8.16764 18.0973 7.56904L16.5666 8.85622ZM10.4073 15.8333L8.7588 14.7008C8.15942 15.5733 8.34361 16.7616 9.17896 17.4117C10.0143 18.0618 11.2115 17.9484 11.91 17.1531L10.4073 15.8333ZM15.2118 8.83991L15.1826 6.84012C14.5341 6.8496 13.9305 7.17288 13.5633 7.7074L15.2118 8.83991ZM16.5666 8.82012L18.0693 10.1399C18.5911 9.54577 18.7138 8.70001 18.3825 7.98207C18.0512 7.26412 17.328 6.80878 16.5373 6.82033L16.5666 8.82012ZM16.7954 8.85734L16.9285 10.8529C17.9745 10.7831 18.7892 9.91751 18.7954 8.8692C18.8016 7.82089 17.9973 6.94567 16.9522 6.8635L16.7954 8.85734ZM10.52 8.82008L10.5318 6.82012C10.5239 6.82007 10.5159 6.82007 10.508 6.82012L10.52 8.82008ZM3.80521 6.86029C2.70066 6.86691 1.81061 7.76769 1.81723 8.87224C1.82385 9.97679 2.72463 10.8668 3.82918 10.8602L3.80521 6.86029ZM15.1734 8.76245L15.0808 10.7603L15.0809 10.7603L15.1734 8.76245ZM13.5513 8.70423L13.6137 6.70521C13.6058 6.70496 13.5979 6.70476 13.59 6.70461L13.5513 8.70423ZM11.9286 8.67396L11.9057 10.6739L11.9157 10.6739L11.9286 8.67396ZM11.1173 8.66465L11.1403 6.66478C11.1326 6.66469 11.125 6.66465 11.1173 6.66465V8.66465ZM10.306 8.66581L10.3275 10.6657L10.3319 10.6656L10.306 8.66581ZM9.49468 8.67454L9.47315 6.67466C9.46837 6.67471 9.46359 6.67478 9.45881 6.67487L9.49468 8.67454ZM8.68335 8.6891L8.71348 10.6889L8.71922 10.6888L8.68335 8.6891ZM7.06071 8.72636L7.00693 6.72707L7.0026 6.7272L7.06071 8.72636ZM3.8166 8.85967L3.69832 6.86317C2.63697 6.92604 1.81032 7.80834 1.81663 8.87154C1.82294 9.93473 2.66 10.8072 3.72202 10.8574L3.8166 8.85967ZM7.0613 8.95398L7.02686 10.9537L7.0333 10.9538L7.0613 8.95398ZM8.68335 8.97144L8.69483 6.97146L8.68766 6.97145L8.68335 8.97144ZM9.49468 8.9761L9.4832 10.9761C9.48798 10.9761 9.49277 10.9761 9.49755 10.9761L9.49468 8.9761ZM10.3054 8.97494L10.3259 6.97504C10.3181 6.97496 10.3103 6.97493 10.3025 6.97494L10.3054 8.97494ZM13.5495 8.97086L13.5732 10.9707C13.5782 10.9707 13.5833 10.9706 13.5883 10.9705L13.5495 8.97086ZM15.1716 8.93186L15.1071 6.93289L15.1027 6.93304L15.1716 8.93186ZM7.31183 6.22484L8.69363 4.77894C8.22148 4.32773 7.55877 4.13546 6.91844 4.26391C6.27811 4.39237 5.74084 4.82538 5.47926 5.42379L7.31183 6.22484ZM9.54074 8.35495L9.54406 10.3549C10.3606 10.3536 11.0944 9.85595 11.3977 9.09779C11.701 8.33963 11.5129 7.47322 10.9225 6.90905L9.54074 8.35495ZM6.37842 8.36019L4.54585 7.55913C4.27532 8.17801 4.33544 8.89163 4.70569 9.45654C5.07594 10.0214 5.70631 10.3613 6.38173 10.3602L6.37842 8.36019ZM13.6799 6.22484L15.5267 5.45724C15.2715 4.8433 14.7279 4.3963 14.0763 4.26452C13.4246 4.13275 12.7501 4.33342 12.2764 4.79997L13.6799 6.22484ZM11.5019 8.37008L10.0984 6.94521C9.52418 7.51085 9.3456 8.36594 9.64547 9.11414C9.94535 9.86234 10.6651 10.3574 11.471 10.3698L11.5019 8.37008ZM14.5913 8.41782L14.5604 10.4176C15.2342 10.428 15.868 10.0984 16.2463 9.54077C16.6247 8.98315 16.6968 8.27248 16.4382 7.65021L14.5913 8.41782ZM11.361 14.0201C11.6067 14.1345 11.7464 14.272 11.6424 14.1845C11.6077 14.1553 11.5435 14.0983 11.4445 14.0054C11.2496 13.8226 10.9822 13.5596 10.6582 13.2329C10.0135 12.5829 9.1943 11.7309 8.38266 10.8773C7.5729 10.0257 6.77846 9.18072 6.18594 8.54805C5.88983 8.23188 5.64449 7.9691 5.4733 7.78549C5.38771 7.6937 5.32067 7.62171 5.27511 7.57276C5.25233 7.54828 5.23492 7.52957 5.22325 7.51702C5.21741 7.51074 5.21301 7.50601 5.21009 7.50286C5.20863 7.50129 5.20754 7.50012 5.20682 7.49935C5.20646 7.49896 5.2062 7.49868 5.20603 7.4985C5.20595 7.49841 5.20589 7.49835 5.20585 7.4983C5.20582 7.49827 5.20581 7.49826 3.74072 8.8597C2.27564 10.2211 2.27568 10.2212 2.27574 10.2213C2.27579 10.2213 2.27588 10.2214 2.27599 10.2215C2.2762 10.2217 2.2765 10.2221 2.2769 10.2225C2.2777 10.2234 2.27888 10.2246 2.28043 10.2263C2.28352 10.2296 2.2881 10.2345 2.29411 10.241C2.30614 10.254 2.32392 10.2731 2.34708 10.2979C2.39339 10.3477 2.46125 10.4206 2.5477 10.5133C2.7206 10.6987 2.96798 10.9637 3.2664 11.2823C3.86294 11.9193 4.66478 12.7722 5.48389 13.6336C6.30111 14.4931 7.14337 15.3693 7.81816 16.0497C8.15383 16.3881 8.46062 16.6908 8.70766 16.9226C8.82962 17.037 8.95328 17.1495 9.06748 17.2455C9.11235 17.2833 9.36207 17.5018 9.67296 17.6465L11.361 14.0201ZM15.6169 7.48969L9.0599 14.4633L11.974 17.2033L18.531 10.2297L15.6169 7.48969ZM18.6441 7.62095L15.5991 3.76125L12.4588 6.23875L15.5037 10.0985L18.6441 7.62095ZM5.60939 3.68362L2.23502 7.54333L5.24643 10.1761L8.6208 6.31638L5.60939 3.68362ZM7.11509 7H14.029V3H7.11509V7ZM12.5775 3.6334H8.53627V7.6334H12.5775V3.6334ZM7.04255 6.96336L9.03086 9.1965L12.0183 6.53659L10.03 4.30344L7.04255 6.96336ZM11.997 9.22009L14.0499 6.98694L11.1051 4.27985L9.0522 6.513L11.997 9.22009ZM11.7553 4.51038L9.09616 7.20517L11.9433 10.0147L14.6025 7.31992L11.7553 4.51038ZM11.9635 7.2259L9.29366 4.44087L6.40615 7.20896L9.07599 9.99399L11.9635 7.2259ZM11.9198 4.36128C11.6319 4.59456 11.3613 4.8354 11.1315 5.03914L13.785 8.03228C14.0293 7.81571 14.2317 7.63627 14.4381 7.46902L11.9198 4.36128ZM11.1179 5.05129C10.8823 5.26408 10.6339 5.48944 10.3864 5.72314L13.1327 8.63136C13.3451 8.43077 13.5649 8.23116 13.7986 8.02014L11.1179 5.05129ZM10.3883 5.7213C9.9106 6.17124 9.44175 6.62938 8.9818 7.09509L11.8278 9.90588C12.2544 9.47391 12.6887 9.0495 13.1308 8.63319L10.3883 5.7213ZM10.3898 10.5004L10.6227 10.5022L10.6527 6.50229L10.4198 6.50054L10.3898 10.5004ZM12.0828 7.11959C11.8522 6.87859 11.6198 6.64003 11.3867 6.40452L8.54334 9.2179C8.76192 9.43881 8.97869 9.66131 9.19258 9.88487L12.0828 7.11959ZM11.3812 6.399C11.1547 6.17185 10.9147 5.93163 10.6674 5.69305L7.89016 8.5718C8.1063 8.78031 8.32138 8.99534 8.54883 9.22343L11.3812 6.399ZM10.6748 5.70023C10.4253 5.45712 10.172 5.2215 9.94082 5.00579L7.21215 7.93058C7.45267 8.15497 7.6711 8.3583 7.88276 8.56461L10.6748 5.70023ZM9.9219 4.98837C9.69394 4.78111 9.42134 4.53108 9.13293 4.29027L6.56925 7.3607C6.77865 7.53554 6.98136 7.72097 7.23106 7.948L9.9219 4.98837ZM6.2619 7.03976C6.48989 7.33815 6.72724 7.62032 6.92555 7.85766L9.9951 5.29294C9.78094 5.03661 9.60462 4.82628 9.44028 4.61121L6.2619 7.03976ZM6.94066 7.87554C7.14734 8.11709 7.37157 8.3793 7.60419 8.63874L10.5823 5.96841C10.3859 5.74931 10.1917 5.52252 9.97998 5.27506L6.94066 7.87554ZM7.59732 8.63103C7.82362 8.88606 8.05087 9.13421 8.27175 9.37358L11.2115 6.66101C10.9962 6.42768 10.7896 6.20195 10.5892 5.97612L7.59732 8.63103ZM8.27526 9.37737C8.50209 9.62193 8.73028 9.86354 8.96033 10.1034L11.8468 7.33423C11.6312 7.10948 11.4185 6.88421 11.208 6.65722L8.27526 9.37737ZM8.96009 10.1031L9.07566 10.2236L11.9627 7.45499L11.8471 7.33448L8.96009 10.1031ZM11.9418 10.245L12.0592 10.1262L9.21383 7.31484L9.09648 7.4336L11.9418 10.245ZM12.0613 10.1241C12.52 9.65838 12.9714 9.18422 13.4147 8.70098L10.4671 5.99698C10.057 6.44403 9.63836 6.88386 9.21167 7.31702L12.0613 10.1241ZM13.4139 8.7019C13.6438 8.45154 13.8663 8.19875 14.0726 7.96446L11.0704 5.3212C10.8594 5.56078 10.6647 5.78187 10.4679 5.99606L13.4139 8.7019ZM14.095 7.93848C14.2848 7.71534 14.5224 7.44036 14.7471 7.15642L11.6107 4.67388C11.442 4.8871 11.2671 5.08946 11.0479 5.34718L14.095 7.93848ZM5.27448 4.81098L3.98134 8.00934L7.6897 9.50868L8.98284 6.31032L5.27448 4.81098ZM5.71715 6.76252L4.05776 6.8609L4.2945 10.8539L5.95389 10.7555L5.71715 6.76252ZM5.66598 10.1917L8.61851 6.89495L5.63881 4.22636L2.68628 7.5231L5.66598 10.1917ZM12.1848 14.7296L7.50339 7.65529L4.16765 9.86273L8.84909 16.937L12.1848 14.7296ZM5.71056 6.76292L4.13949 6.86127L4.38941 10.8535L5.96048 10.7551L5.71056 6.76292ZM2.77512 10.1922L9.02764 17.1682L12.0063 14.4985L5.75378 7.52249L2.77512 10.1922ZM11.9655 6.36787L13.4121 9.64715L17.0719 8.03269L15.6252 4.75341L11.9655 6.36787ZM15.2174 10.8398L16.5419 10.8561L16.5912 6.85637L15.2666 6.84007L15.2174 10.8398ZM18.0973 7.56904L15.3261 4.27347L12.2646 6.84781L15.0358 10.1434L18.0973 7.56904ZM12.0557 16.9658L16.8603 9.97241L13.5633 7.7074L8.7588 14.7008L12.0557 16.9658ZM15.241 10.8397L16.5958 10.8199L16.5373 6.82033L15.1826 6.84012L15.241 10.8397ZM15.0638 7.50035L8.90452 14.5136L11.91 17.1531L18.0693 10.1399L15.0638 7.50035ZM16.8073 6.85738L10.5318 6.82012L10.5081 10.82L16.7835 10.8573L16.8073 6.85738ZM10.508 6.82012L3.80521 6.86029L3.82918 10.8602L10.5319 10.82L10.508 6.82012ZM16.9522 6.8635C16.3775 6.81831 15.8098 6.78976 15.2658 6.76459L15.0809 10.7603C15.619 10.7852 16.1324 10.8114 16.6386 10.8512L16.9522 6.8635ZM15.2659 6.76459C14.7072 6.73871 14.1494 6.72194 13.6137 6.70521L13.4889 10.7033C14.0341 10.7203 14.5586 10.7361 15.0808 10.7603L15.2659 6.76459ZM13.59 6.70461C13.0787 6.69471 12.4989 6.6776 11.9416 6.674L11.9157 10.6739C12.4406 10.6773 12.9418 10.6928 13.5126 10.7039L13.59 6.70461ZM11.9516 6.67409L11.1403 6.66478L11.0944 10.6645L11.9057 10.6738L11.9516 6.67409ZM11.1173 6.66465C10.8703 6.66465 10.5674 6.66227 10.2802 6.66598L10.3319 10.6656C10.5851 10.6624 10.8239 10.6646 11.1173 10.6646V6.66465ZM10.2845 6.66593L9.47315 6.67466L9.5162 10.6744L10.3275 10.6657L10.2845 6.66593ZM9.45881 6.67487L8.64748 6.68942L8.71922 10.6888L9.53055 10.6742L9.45881 6.67487ZM8.65323 6.68933C8.09833 6.69768 7.54598 6.71258 7.00693 6.72708L7.11448 10.7256C7.65759 10.711 8.18621 10.6968 8.71348 10.6889L8.65323 6.68933ZM7.0026 6.7272C5.91499 6.75881 4.80966 6.79733 3.69832 6.86317L3.93487 10.8562C4.98549 10.7939 6.04329 10.7568 7.11881 10.7255L7.0026 6.7272ZM3.72202 10.8574C4.83499 10.9101 5.94013 10.935 7.02686 10.9537L7.09574 6.95428C6.01933 6.93573 4.96252 6.91168 3.91117 6.86191L3.72202 10.8574ZM7.0333 10.9538C7.56727 10.9613 8.12357 10.9702 8.67905 10.9714L8.68766 6.97145C8.16217 6.97032 7.6363 6.96183 7.0893 6.95417L7.0333 10.9538ZM8.67187 10.9714L9.4832 10.9761L9.50616 6.97613L8.69483 6.97148L8.67187 10.9714ZM9.49755 10.9761L10.3083 10.9749L10.3025 6.97494L9.49181 6.9761L9.49755 10.9761ZM10.285 10.9748C11.383 10.9861 12.4788 10.9837 13.5732 10.9707L13.5258 6.971C12.4571 6.98366 11.391 6.98593 10.3259 6.97504L10.285 10.9748ZM13.5883 10.9705C14.124 10.9601 14.6817 10.9499 15.2405 10.9307L15.1027 6.93304C14.5804 6.95104 14.056 6.96067 13.5108 6.97124L13.5883 10.9705ZM15.236 10.9308C15.7841 10.9131 16.3526 10.8913 16.9285 10.8529L16.6623 6.86178C16.1561 6.89554 15.6424 6.91564 15.1071 6.9329L15.236 10.9308ZM5.93003 7.67075L8.15894 9.80085L10.9225 6.90905L8.69363 4.77894L5.93003 7.67075ZM9.53743 6.35495L6.3751 6.36019L6.38173 10.3602L9.54406 10.3549L9.53743 6.35495ZM8.21099 9.16125L9.14439 7.0259L5.47926 5.42379L4.54585 7.55913L8.21099 9.16125ZM12.2764 4.79997L10.0984 6.94521L12.9054 9.79496L15.0833 7.64972L12.2764 4.79997ZM11.471 10.3698L14.5604 10.4176L14.6222 6.41806L11.5328 6.37032L11.471 10.3698ZM16.4382 7.65021L15.5267 5.45724L11.833 6.99245L12.7445 9.18543L16.4382 7.65021Z" fill="#C6FAFF" mask="url(#path-1-outside-1_2082_17877)"/>
<path d="M10.5168 15.8331C9.99524 15.5904 3.74052 8.8595 3.74052 8.8595L10.5168 8.81934L17.0737 8.8595L10.5168 15.8331Z" fill="url(#paint0_radial_2082_17877)"/>
<path d="M14.0287 5L10.5168 8.8201L17.0737 8.86027L14.0287 5Z" fill="url(#paint1_linear_2082_17877)"/>
<path d="M7.11485 5L3.74036 8.86027L10.5166 8.8201L7.11485 5Z" fill="url(#paint2_linear_2082_17877)"/>
<path d="M14.0288 5L10.5168 8.8201L7.11507 5H14.0288Z" fill="url(#paint3_linear_2082_17877)"/>
<path d="M12.5771 5.63379H8.53594L10.5242 7.86693L12.5771 5.63379Z" fill="url(#paint4_linear_2082_17877)"/>
<path d="M13.1787 5.91485C12.9316 6.11511 12.6951 6.32527 12.4581 6.53542C12.2234 6.74733 11.9893 6.95981 11.7593 7.17696C11.2994 7.61008 10.8479 8.05135 10.4046 8.5002L10.6375 8.50194C10.4152 8.26966 10.1906 8.03913 9.96483 7.81092C9.73784 7.5833 9.51027 7.35568 9.27855 7.13213C9.04801 6.90742 8.81214 6.68795 8.57627 6.46789C8.33744 6.25075 8.09979 6.03302 7.85088 5.8252C8.04704 6.08193 8.25387 6.32818 8.46011 6.57501C8.66931 6.81952 8.87852 7.06402 9.09305 7.30329C9.3064 7.54372 9.52331 7.78065 9.7414 8.01701C9.96008 8.25278 10.1805 8.48622 10.4034 8.7185L10.5189 8.83901L10.6363 8.72025C11.079 8.27083 11.514 7.81384 11.9407 7.34869C12.154 7.11641 12.3626 6.87948 12.5713 6.64254C12.7757 6.40211 12.982 6.16343 13.1787 5.91485Z" fill="white"/>
<path d="M7.12842 5.56055L5.83528 8.7589L4.17589 8.85729L7.12842 5.56055Z" fill="#0DCBED"/>
<path d="M10.5166 15.8331L5.83534 8.75879L4.26425 8.85717L10.5166 15.8331Z" fill="#5CF1FF"/>
<path d="M13.7952 5.56055L15.2419 8.83982L16.5664 8.85612L13.7952 5.56055Z" fill="#0DCBED"/>
<path d="M10.4071 15.8335L15.2116 8.84011L16.5664 8.82031L10.4071 15.8335Z" fill="#5CF1FF"/>
<path d="M16.7954 8.85752C16.2549 8.81502 15.7144 8.78766 15.1734 8.76262C14.6329 8.73759 14.0918 8.72129 13.5513 8.70441C13.0102 8.69393 12.4697 8.67763 11.9287 8.67414L11.1173 8.66482C10.8471 8.66482 10.5762 8.66249 10.306 8.66599L9.49468 8.67472L8.68336 8.68927C8.14228 8.69742 7.60179 8.71198 7.06071 8.72653C5.97914 8.75797 4.89757 8.79581 3.8166 8.85984C4.89876 8.91107 5.97973 8.93552 7.0613 8.95415C7.60179 8.96172 8.14287 8.97045 8.68336 8.97162L9.49468 8.97628L10.3054 8.97511C11.387 8.98617 12.468 8.98384 13.5495 8.97104C14.09 8.96056 14.6311 8.95066 15.1716 8.93203C15.7132 8.91457 16.2543 8.89361 16.7954 8.85752Z" fill="white"/>
<path d="M7.31161 6.22461L9.54053 8.35471L6.3782 8.35995L7.31161 6.22461Z" fill="url(#paint5_linear_2082_17877)"/>
<path d="M13.6798 6.22461L11.5019 8.36985L14.5913 8.41759L13.6798 6.22461Z" fill="url(#paint6_linear_2082_17877)"/>
<defs>
<radialGradient id="paint0_radial_2082_17877" cx="0" cy="0" r="1" gradientUnits="userSpaceOnUse" gradientTransform="translate(10.7664 9.48667) rotate(180) scale(7.63705 7.50193)">
<stop stop-color="#006496"/>
<stop offset="0.2289" stop-color="#09AED4"/>
<stop offset="0.3353" stop-color="#0DCBED"/>
<stop offset="1" stop-color="#5CF1FF"/>
</radialGradient>
<linearGradient id="paint1_linear_2082_17877" x1="14.3605" y1="10.0664" x2="12.425" y2="5.71302" gradientUnits="userSpaceOnUse">
<stop stop-color="#5CF1FF"/>
<stop offset="0.1721" stop-color="#0DCBED"/>
<stop offset="1" stop-color="#006496"/>
</linearGradient>
<linearGradient id="paint2_linear_2082_17877" x1="7.69702" y1="10.0735" x2="5.71761" y2="5.62132" gradientUnits="userSpaceOnUse">
<stop stop-color="#5CF1FF"/>
<stop offset="0.1586" stop-color="#0DCBED"/>
<stop offset="1" stop-color="#006496"/>
</linearGradient>
<linearGradient id="paint3_linear_2082_17877" x1="12.0233" y1="8.15018" x2="10.0439" y2="3.69799" gradientUnits="userSpaceOnUse">
<stop offset="0.5984" stop-color="#5CF1FF"/>
<stop offset="1" stop-color="#0DCBED"/>
</linearGradient>
<linearGradient id="paint4_linear_2082_17877" x1="10.5565" y1="7.86713" x2="10.5565" y2="5.63372" gradientUnits="userSpaceOnUse">
<stop stop-color="white"/>
<stop offset="0.9247" stop-color="white" stop-opacity="0.0753"/>
<stop offset="1" stop-color="white" stop-opacity="0"/>
</linearGradient>
<linearGradient id="paint5_linear_2082_17877" x1="6.98358" y1="8.62445" x2="8.20068" y2="7.45747" gradientUnits="userSpaceOnUse">
<stop stop-color="white"/>
<stop offset="1" stop-color="white" stop-opacity="0"/>
</linearGradient>
<linearGradient id="paint6_linear_2082_17877" x1="14.0359" y1="8.6343" x2="12.8311" y2="7.47911" gradientUnits="userSpaceOnUse">
<stop stop-color="white"/>
<stop offset="1" stop-color="white" stop-opacity="0"/>
</linearGradient>
</defs>
</svg>
