<svg width="33" height="32" viewBox="0 0 33 32" fill="none" xmlns="http://www.w3.org/2000/svg">
<path d="M17.7914 4.96359L17.7909 4.96272C17.2046 3.72437 15.5281 3.72324 14.9368 4.9564L14.9357 4.95851L12.9236 9.12931C12.9234 9.12979 12.9232 9.13027 12.9229 9.13074C12.4054 10.2103 11.3879 10.9715 10.2075 11.143C10.2074 11.143 10.2073 11.143 10.2072 11.143C10.2069 11.1431 10.2066 11.1431 10.2063 11.1432L5.73014 11.7975L5.72958 11.7975C4.4485 11.9841 3.85006 13.6639 4.83935 14.6613L4.84067 14.6627L8.06714 17.928L8.06879 17.9297C8.90884 18.7839 9.28273 19.9906 9.0796 21.1735C9.07955 21.1738 9.0795 21.1741 9.07944 21.1744L8.29655 25.7652L8.29651 25.7655C8.05219 27.1962 9.48211 28.1491 10.5979 27.5493L10.5982 27.5492L14.6112 25.3937L14.6135 25.3925C15.6664 24.8304 16.9316 24.8293 17.9849 25.4075C17.9855 25.4078 17.9861 25.4081 17.9866 25.4084L21.985 27.59L21.9857 27.5904C23.0976 28.1981 24.5293 27.2607 24.2971 25.8211L23.5501 21.2204L23.5491 21.2147C23.3653 20.0394 23.7403 18.835 24.5877 17.9875L24.5879 17.9872L27.8363 14.7406L17.7914 4.96359ZM17.7914 4.96359L19.7809 9.15533L19.7811 9.15579M17.7914 4.96359L19.7811 9.15579M19.7811 9.15579C20.2953 10.2378 21.3042 11.0028 22.4829 11.1811L19.7811 9.15579ZM26.9583 11.8622L22.4836 11.1812L26.9583 11.8622ZM26.9583 11.8622C26.9588 11.8622 26.9593 11.8623 26.9597 11.8624M26.9583 11.8622L26.9597 11.8624M26.9597 11.8624C28.2432 12.0631 28.8219 13.754 27.8366 14.7403L26.9597 11.8624Z" stroke="#3396EF" stroke-width="2"/>
</svg>
