<svg width="290" height="289" viewBox="0 0 290 289" fill="none" xmlns="http://www.w3.org/2000/svg">
<g filter="url(#filter0_i_1203_43908)">
<path d="M254.297 64.2855L159.557 8.67742C150.735 3.49891 139.801 3.49892 130.978 8.67743L36.2384 64.2856C27.603 69.3541 22.2988 78.6178 22.2988 88.6308L22.2988 200.659C22.2988 210.672 27.603 219.936 36.2384 225.004L130.978 280.612C139.801 285.791 150.735 285.791 159.557 280.612L254.297 225.004C262.933 219.936 268.237 210.672 268.237 200.659V88.6308C268.237 78.6179 262.933 69.3541 254.297 64.2855Z" fill="#3396EF"/>
</g>
<g filter="url(#filter1_i_1203_43908)">
<path d="M233.879 75.8721L159.634 31.9823C150.773 26.7443 139.764 26.7443 130.903 31.9823L56.658 75.8721C48.0655 80.9516 42.7942 90.1912 42.7942 100.173L42.7942 189.118C42.7942 199.099 48.0655 208.339 56.658 213.418L130.903 257.308C139.764 262.546 150.773 262.546 159.634 257.308L233.879 213.418C242.471 208.339 247.742 199.099 247.742 189.118L247.742 100.173C247.742 90.1912 242.471 80.9516 233.879 75.8721Z" fill="#3396EF"/>
</g>
<g filter="url(#filter2_d_1203_43908)">
<path d="M85.0978 99.8359H55.3743C55.3743 99.8359 55.3743 156.501 99.8118 151.885" stroke="#FFE2A6" stroke-width="5" stroke-linejoin="round"/>
<path d="M85.0978 99.8359H55.3743C55.3743 99.8359 55.3743 156.501 99.8118 151.885" stroke="#F9A90F" stroke-width="2.83" stroke-linejoin="round"/>
<path d="M204.902 99.8359H234.625C234.625 99.8359 234.534 156.501 190.12 151.885" stroke="#FFE2A6" stroke-width="5" stroke-linejoin="round"/>
<path d="M204.902 99.8359H234.625C234.625 99.8359 234.534 156.501 190.12 151.885" stroke="#F9A90F" stroke-width="2.83" stroke-linejoin="round"/>
<path d="M185.162 228.384C185.139 223.84 183.526 219.451 180.61 216.002C177.694 212.553 173.665 210.268 169.242 209.554H169.015C161.556 208.192 149.753 192.385 159.691 181.158C221.185 158.762 209.382 72.4668 209.382 72.4668H80.5039C80.5039 72.4668 68.7009 158.796 130.195 181.158C140.133 192.35 128.33 208.169 120.871 209.484H120.655C116.232 210.198 112.203 212.484 109.287 215.933C106.371 219.382 104.758 223.771 104.735 228.315V231.188H185.173L185.162 228.384ZM155.677 152.52L147.444 147.904C146.683 147.479 145.829 147.256 144.96 147.256C144.091 147.256 143.236 147.479 142.475 147.904L134.254 152.52C133.349 152.996 132.329 153.201 131.313 153.113C130.297 153.024 129.327 152.645 128.515 152.019C127.703 151.393 127.082 150.546 126.725 149.577C126.369 148.608 126.29 147.556 126.499 146.543L128.068 136.816C128.214 135.918 128.151 134.997 127.885 134.128C127.618 133.259 127.156 132.464 126.533 131.808L119.87 124.885C119.163 124.142 118.666 123.22 118.43 122.215C118.194 121.211 118.228 120.16 118.529 119.173C118.83 118.187 119.387 117.3 120.14 116.606C120.894 115.912 121.818 115.436 122.815 115.228L132.014 113.889C132.886 113.745 133.709 113.386 134.411 112.842C135.113 112.299 135.672 111.589 136.039 110.774L140.144 101.936C140.557 100.997 141.229 100.2 142.078 99.6408C142.928 99.0814 143.919 98.7837 144.931 98.7837C145.944 98.7837 146.935 99.0814 147.785 99.6408C148.634 100.2 149.306 100.997 149.719 101.936L153.835 110.774C154.203 111.586 154.763 112.293 155.465 112.833C156.167 113.372 156.99 113.727 157.86 113.866L167.059 115.285C168.055 115.493 168.978 115.968 169.731 116.661C170.485 117.353 171.041 118.238 171.343 119.223C171.645 120.208 171.681 121.257 171.448 122.261C171.214 123.265 170.72 124.187 170.016 124.932L163.364 131.855C162.738 132.508 162.274 133.302 162.009 134.173C161.744 135.043 161.686 135.965 161.84 136.862L163.409 146.543C164.16 151.158 159.589 154.7 155.677 152.52Z" fill="url(#paint0_radial_1203_43908)"/>
<path d="M86.3827 79.0436H203.503C204.362 91.9125 203.598 104.84 201.229 117.512C195.361 147.258 180.67 166.608 157.542 175.031L156.007 175.596L154.87 176.819C152.252 179.751 150.482 183.358 149.753 187.244C149.025 191.13 149.367 195.144 150.742 198.846C153.653 207.396 160.976 214.746 167.867 215.957H168.14C170.437 216.324 172.589 217.333 174.352 218.872C176.116 220.411 177.422 222.418 178.123 224.669H111.717C112.419 222.417 113.727 220.408 115.493 218.869C117.258 217.33 119.412 216.322 121.712 215.957H121.985C128.808 214.803 136.199 207.396 139.11 198.846C140.484 195.144 140.826 191.13 140.098 187.244C139.37 183.358 137.6 179.751 134.982 176.819L133.845 175.596L132.321 175.031C109.193 166.608 94.4901 147.258 88.6341 117.512C86.2654 104.84 85.5012 91.9125 86.3599 79.0436H86.3827ZM130.422 107.52L121.894 108.847C119.736 109.186 117.714 110.125 116.051 111.562C114.389 112.998 113.152 114.874 112.479 116.982C111.76 119.139 111.643 121.456 112.143 123.676C112.643 125.896 113.739 127.932 115.31 129.558L121.644 136.158L120.143 145.527C119.85 147.292 119.94 149.099 120.405 150.825C120.871 152.55 121.701 154.152 122.838 155.52C123.935 156.839 125.302 157.9 126.843 158.632C128.384 159.363 130.063 159.746 131.764 159.754C133.722 159.749 135.646 159.241 137.358 158.277L144.966 154.031L152.595 158.254C154.955 159.577 157.695 160.024 160.344 159.516C162.993 159.008 165.384 157.579 167.105 155.473C168.242 154.106 169.072 152.504 169.537 150.779C170.003 149.053 170.092 147.245 169.8 145.481L168.253 136.158L174.621 129.558C176.193 127.933 177.29 125.896 177.788 123.676C178.286 121.455 178.166 119.137 177.441 116.982C176.759 114.883 175.517 113.017 173.853 111.591C172.189 110.165 170.168 109.235 168.014 108.905L159.418 107.497L155.518 99.1434C154.586 97.0815 153.09 95.3344 151.209 94.1095C149.327 92.8847 147.139 92.2336 144.903 92.2336C142.668 92.2336 140.479 92.8847 138.597 94.1095C136.716 95.3344 135.22 97.0815 134.288 99.1434L130.422 107.52ZM209.382 72.5014H80.5039C80.5039 72.5014 68.7009 158.796 130.195 181.158C140.133 192.35 128.33 208.169 120.871 209.484H120.655C116.232 210.198 112.203 212.484 109.287 215.933C106.371 219.382 104.758 223.771 104.735 228.315V231.188H185.173V228.315C185.151 223.771 183.537 219.382 180.621 215.933C177.706 212.484 173.677 210.198 169.254 209.484H169.026C161.556 208.192 149.753 192.385 159.691 181.158C221.185 158.762 209.382 72.4668 209.382 72.4668V72.5014ZM131.764 153.2C130.964 153.178 130.178 152.98 129.461 152.619C128.744 152.257 128.113 151.742 127.612 151.109C127.111 150.475 126.752 149.739 126.56 148.95C126.368 148.162 126.347 147.34 126.499 146.543L128.068 136.816C128.214 135.918 128.151 134.997 127.885 134.128C127.618 133.259 127.156 132.464 126.533 131.808L119.87 124.885C119.163 124.142 118.666 123.22 118.43 122.215C118.194 121.211 118.228 120.16 118.529 119.173C118.83 118.187 119.387 117.3 120.14 116.606C120.894 115.912 121.818 115.436 122.815 115.228L132.014 113.889C132.886 113.745 133.709 113.386 134.411 112.842C135.113 112.299 135.672 111.589 136.039 110.774L140.144 101.936C140.557 100.997 141.229 100.2 142.078 99.6408C142.928 99.0814 143.919 98.7837 144.931 98.7837C145.944 98.7837 146.935 99.0814 147.785 99.6408C148.634 100.2 149.306 100.997 149.719 101.936L153.835 110.774C154.203 111.586 154.763 112.293 155.465 112.833C156.167 113.372 156.99 113.727 157.86 113.866L167.059 115.285C168.055 115.493 168.978 115.968 169.731 116.661C170.485 117.353 171.041 118.238 171.343 119.223C171.645 120.208 171.681 121.257 171.448 122.261C171.214 123.265 170.72 124.187 170.016 124.932L163.364 131.855C162.738 132.508 162.274 133.302 162.009 134.173C161.744 135.043 161.686 135.965 161.84 136.862L163.409 146.543C163.56 147.338 163.538 148.157 163.345 148.942C163.153 149.728 162.794 150.462 162.294 151.093C161.795 151.724 161.166 152.237 160.451 152.597C159.737 152.957 158.953 153.155 158.156 153.177C157.288 153.172 156.436 152.946 155.677 152.52L147.444 147.904C146.686 147.477 145.833 147.254 144.966 147.258C144.095 147.26 143.24 147.482 142.475 147.904L134.254 152.52C133.494 152.955 132.637 153.185 131.764 153.189V153.2Z" fill="url(#paint1_linear_1203_43908)"/>
<path d="M86.3827 79.0436H203.503C204.362 91.9125 203.598 104.84 201.229 117.512C195.361 147.258 180.67 166.608 157.542 175.031L156.007 175.596L154.87 176.819C152.252 179.751 150.482 183.358 149.753 187.244C149.025 191.13 149.367 195.144 150.742 198.846C153.653 207.396 160.976 214.746 167.867 215.957H168.14C170.437 216.324 172.589 217.333 174.352 218.872C176.116 220.411 177.422 222.418 178.123 224.669H111.717C112.419 222.417 113.727 220.408 115.493 218.869C117.258 217.33 119.412 216.322 121.712 215.957H121.985C128.808 214.803 136.199 207.396 139.11 198.846C140.484 195.144 140.826 191.13 140.098 187.244C139.37 183.358 137.6 179.751 134.982 176.819L133.845 175.596L132.321 175.031C109.193 166.608 94.4901 147.258 88.6341 117.512C86.2654 104.84 85.5012 91.9125 86.3599 79.0436H86.3827ZM130.422 107.52L121.894 108.847C119.736 109.186 117.714 110.125 116.051 111.562C114.389 112.998 113.152 114.874 112.479 116.982C111.76 119.139 111.643 121.456 112.143 123.676C112.643 125.896 113.739 127.932 115.31 129.558L121.644 136.158L120.143 145.527C119.85 147.292 119.94 149.099 120.405 150.825C120.871 152.55 121.701 154.152 122.838 155.52C123.935 156.839 125.302 157.9 126.843 158.632C128.384 159.363 130.063 159.746 131.764 159.754C133.722 159.749 135.646 159.241 137.358 158.277L144.966 154.031L152.595 158.254C154.955 159.577 157.695 160.024 160.344 159.516C162.993 159.008 165.384 157.579 167.105 155.473C168.242 154.106 169.072 152.504 169.537 150.779C170.003 149.053 170.092 147.245 169.8 145.481L168.253 136.158L174.621 129.558C176.193 127.933 177.29 125.896 177.788 123.676C178.286 121.455 178.166 119.137 177.441 116.982C176.759 114.883 175.517 113.017 173.853 111.591C172.189 110.165 170.168 109.235 168.014 108.905L159.418 107.497L155.518 99.1434C154.586 97.0815 153.09 95.3344 151.209 94.1095C149.327 92.8847 147.139 92.2336 144.903 92.2336C142.668 92.2336 140.479 92.8847 138.597 94.1095C136.716 95.3344 135.22 97.0815 134.288 99.1434L130.422 107.52ZM209.382 72.5014H80.5039C80.5039 72.5014 68.7009 158.796 130.195 181.158C140.133 192.35 128.33 208.169 120.871 209.484H120.655C116.232 210.198 112.203 212.484 109.287 215.933C106.371 219.382 104.758 223.771 104.735 228.315V231.188H185.173V228.315C185.151 223.771 183.537 219.382 180.621 215.933C177.706 212.484 173.677 210.198 169.254 209.484H169.026C161.556 208.192 149.753 192.385 159.691 181.158C221.185 158.762 209.382 72.4668 209.382 72.4668V72.5014ZM131.764 153.2C130.964 153.178 130.178 152.98 129.461 152.619C128.744 152.257 128.113 151.742 127.612 151.109C127.111 150.475 126.752 149.739 126.56 148.95C126.368 148.162 126.347 147.34 126.499 146.543L128.068 136.816C128.214 135.918 128.151 134.997 127.885 134.128C127.618 133.259 127.156 132.464 126.533 131.808L119.87 124.885C119.163 124.142 118.666 123.22 118.43 122.215C118.194 121.211 118.228 120.16 118.529 119.173C118.83 118.187 119.387 117.3 120.14 116.606C120.894 115.912 121.818 115.436 122.815 115.228L132.014 113.889C132.886 113.745 133.709 113.386 134.411 112.842C135.113 112.299 135.672 111.589 136.039 110.774L140.144 101.936C140.557 100.997 141.229 100.2 142.078 99.6408C142.928 99.0814 143.919 98.7837 144.931 98.7837C145.944 98.7837 146.935 99.0814 147.785 99.6408C148.634 100.2 149.306 100.997 149.719 101.936L153.835 110.774C154.203 111.586 154.763 112.293 155.465 112.833C156.167 113.372 156.99 113.727 157.86 113.866L167.059 115.285C168.055 115.493 168.978 115.968 169.731 116.661C170.485 117.353 171.041 118.238 171.343 119.223C171.645 120.208 171.681 121.257 171.448 122.261C171.214 123.265 170.72 124.187 170.016 124.932L163.364 131.855C162.738 132.508 162.274 133.302 162.009 134.173C161.744 135.043 161.686 135.965 161.84 136.862L163.409 146.543C163.56 147.338 163.538 148.157 163.345 148.942C163.153 149.728 162.794 150.462 162.294 151.093C161.795 151.724 161.166 152.237 160.451 152.597C159.737 152.957 158.953 153.155 158.156 153.177C157.288 153.172 156.436 152.946 155.677 152.52L147.444 147.904C146.686 147.477 145.833 147.254 144.966 147.258C144.095 147.26 143.24 147.482 142.475 147.904L134.254 152.52C133.494 152.955 132.637 153.185 131.764 153.189V153.2Z" fill="url(#paint2_linear_1203_43908)"/>
<path d="M104.724 231.257V228.384C104.747 223.839 106.36 219.451 109.276 216.002C112.192 212.553 116.22 210.267 120.643 209.553H120.859C128.33 208.192 140.087 192.384 130.195 181.157C68.7009 158.796 80.5039 72.501 80.5039 72.501H209.382C209.382 72.501 221.185 158.796 159.691 181.157C149.753 192.349 161.556 208.157 169.004 209.484H169.231C173.654 210.198 177.683 212.483 180.599 215.933C183.515 219.382 185.128 223.77 185.15 228.314V231.187H104.724V231.257ZM140.144 101.947L136.039 110.774C135.672 111.588 135.113 112.299 134.411 112.842C133.709 113.385 132.886 113.745 132.014 113.889L122.815 115.308C121.818 115.516 120.894 115.992 120.14 116.686C119.387 117.38 118.83 118.267 118.529 119.254C118.228 120.24 118.194 121.291 118.43 122.296C118.666 123.3 119.163 124.223 119.87 124.966L126.533 131.889C127.156 132.545 127.618 133.339 127.885 134.208C128.151 135.078 128.214 135.998 128.068 136.896L126.499 146.542C126.296 147.553 126.378 148.602 126.737 149.568C127.096 150.533 127.717 151.376 128.528 151.999C129.339 152.621 130.307 152.999 131.32 153.087C132.334 153.175 133.351 152.97 134.254 152.496L142.475 147.881C143.236 147.456 144.091 147.233 144.96 147.233C145.829 147.233 146.683 147.456 147.444 147.881L155.677 152.496C159.589 154.677 164.16 151.146 163.409 146.519L161.84 136.804C161.686 135.907 161.744 134.985 162.009 134.115C162.274 133.244 162.738 132.45 163.364 131.796L170.016 124.873C170.72 124.129 171.214 123.207 171.448 122.203C171.681 121.199 171.645 120.15 171.343 119.165C171.041 118.18 170.485 117.295 169.731 116.603C168.978 115.91 168.055 115.435 167.059 115.227L157.86 113.808C156.996 113.673 156.178 113.326 155.477 112.797C154.775 112.268 154.212 111.574 153.835 110.774L149.719 101.935C149.305 100.997 148.632 100.201 147.782 99.6427C146.932 99.0843 145.941 98.7878 144.928 98.7891C143.915 98.7903 142.924 99.0892 142.075 99.6495C141.227 100.21 140.556 101.008 140.144 101.947V101.947Z" stroke="#FFE2A6" stroke-linejoin="round"/>
<path d="M96.4573 84.2363C97.4693 91.4478 98.4472 98.4977 99.5956 105.478C100.744 112.459 102.097 119.324 103.837 126.086C105.511 132.821 107.721 139.408 110.443 145.782C111.851 148.966 113.426 152.07 115.162 155.082C116.996 158.114 118.993 161.041 121.144 163.851C118.026 161.93 115.17 159.602 112.649 156.928C110.146 154.243 107.91 151.313 105.975 148.182C102.197 141.822 99.3724 134.927 97.5944 127.724C95.8211 120.606 94.8183 113.313 94.6038 105.975C94.2982 98.6777 94.9212 91.3714 96.4573 84.2363Z" fill="white"/>
</g>
<defs>
<filter id="filter0_i_1203_43908" x="22.2988" y="4.79395" width="245.938" height="290.994" filterUnits="userSpaceOnUse" color-interpolation-filters="sRGB">
<feFlood flood-opacity="0" result="BackgroundImageFix"/>
<feBlend mode="normal" in="SourceGraphic" in2="BackgroundImageFix" result="shape"/>
<feColorMatrix in="SourceAlpha" type="matrix" values="0 0 0 0 0 0 0 0 0 0 0 0 0 0 0 0 0 0 127 0" result="hardAlpha"/>
<feOffset dy="14.1146"/>
<feGaussianBlur stdDeviation="5.64583"/>
<feComposite in2="hardAlpha" operator="arithmetic" k2="-1" k3="1"/>
<feColorMatrix type="matrix" values="0 0 0 0 0 0 0 0 0 0 0 0 0 0 0 0 0 0 0.25 0"/>
<feBlend mode="normal" in2="shape" result="effect1_innerShadow_1203_43908"/>
</filter>
<filter id="filter1_i_1203_43908" x="42.7942" y="28.0537" width="204.948" height="244.474" filterUnits="userSpaceOnUse" color-interpolation-filters="sRGB">
<feFlood flood-opacity="0" result="BackgroundImageFix"/>
<feBlend mode="normal" in="SourceGraphic" in2="BackgroundImageFix" result="shape"/>
<feColorMatrix in="SourceAlpha" type="matrix" values="0 0 0 0 0 0 0 0 0 0 0 0 0 0 0 0 0 0 127 0" result="hardAlpha"/>
<feOffset dy="14.1146"/>
<feGaussianBlur stdDeviation="5.64583"/>
<feComposite in2="hardAlpha" operator="arithmetic" k2="-1" k3="1"/>
<feColorMatrix type="matrix" values="0 0 0 0 0 0 0 0 0 0 0 0 0 0 0 0 0 0 0.25 0"/>
<feBlend mode="normal" in2="shape" result="effect1_innerShadow_1203_43908"/>
</filter>
<filter id="filter2_d_1203_43908" x="42.8386" y="66.5801" width="204.323" height="172.564" filterUnits="userSpaceOnUse" color-interpolation-filters="sRGB">
<feFlood flood-opacity="0" result="BackgroundImageFix"/>
<feColorMatrix in="SourceAlpha" type="matrix" values="0 0 0 0 0 0 0 0 0 0 0 0 0 0 0 0 0 0 127 0" result="hardAlpha"/>
<feOffset dy="1"/>
<feGaussianBlur stdDeviation="2"/>
<feComposite in2="hardAlpha" operator="out"/>
<feColorMatrix type="matrix" values="0 0 0 0 0.096875 0 0 0 0 0.242805 0 0 0 0 0.375 0 0 0 0.64 0"/>
<feBlend mode="normal" in2="BackgroundImageFix" result="effect1_dropShadow_1203_43908"/>
<feBlend mode="normal" in="SourceGraphic" in2="effect1_dropShadow_1203_43908" result="shape"/>
</filter>
<radialGradient id="paint0_radial_1203_43908" cx="0" cy="0" r="1" gradientUnits="userSpaceOnUse" gradientTransform="translate(94.3659 84.4723) rotate(20.2706) scale(131.482 132.956)">
<stop stop-color="#F3F400"/>
<stop offset="0.01" stop-color="#F3F101"/>
<stop offset="0.16" stop-color="#F6D207"/>
<stop offset="0.31" stop-color="#F8BB0B"/>
<stop offset="0.45" stop-color="#F9AE0E"/>
<stop offset="0.57" stop-color="#F9A90F"/>
<stop offset="0.78" stop-color="#DB7800"/>
<stop offset="0.84" stop-color="#E08002"/>
<stop offset="0.93" stop-color="#EC9409"/>
<stop offset="1" stop-color="#F9A90F"/>
</radialGradient>
<linearGradient id="paint1_linear_1203_43908" x1="64.3231" y1="117.628" x2="207.488" y2="168.99" gradientUnits="userSpaceOnUse">
<stop offset="0.01" stop-color="#CF6400"/>
<stop offset="0.13" stop-color="#D06600"/>
<stop offset="0.2" stop-color="#D56E02"/>
<stop offset="0.25" stop-color="#DD7C05"/>
<stop offset="0.3" stop-color="#E98E09"/>
<stop offset="0.33" stop-color="#F8A70F"/>
<stop offset="0.34" stop-color="#F9A90F"/>
<stop offset="0.58" stop-color="#F9AB0F"/>
<stop offset="0.71" stop-color="#F8B30D"/>
<stop offset="0.81" stop-color="#F7C10A"/>
<stop offset="0.9" stop-color="#F6D406"/>
<stop offset="0.98" stop-color="#F4EC02"/>
<stop offset="1" stop-color="#F3F400"/>
</linearGradient>
<linearGradient id="paint2_linear_1203_43908" x1="64.3231" y1="117.628" x2="207.488" y2="168.99" gradientUnits="userSpaceOnUse">
<stop stop-color="#ED9515"/>
<stop offset="0.35" stop-color="#ED9714"/>
<stop offset="0.53" stop-color="#EE9F13"/>
<stop offset="0.67" stop-color="#EEAD10"/>
<stop offset="0.8" stop-color="#F0C00C"/>
<stop offset="0.91" stop-color="#F1D806"/>
<stop offset="1" stop-color="#F3F400"/>
</linearGradient>
</defs>
</svg>
