<svg width="102" height="95" viewBox="0 0 102 95" fill="none" xmlns="http://www.w3.org/2000/svg">
<path d="M61.5319 91.2396C80.7975 91.2396 96.4153 90.5225 96.4153 89.6379C96.4153 88.7533 80.7975 88.0361 61.5319 88.0361C42.2663 88.0361 26.6484 88.7533 26.6484 89.6379C26.6484 90.5225 42.2663 91.2396 61.5319 91.2396Z" fill="url(#paint0_radial_2139_27368)"/>
<path d="M29.9461 94.7858C37.5345 94.7858 43.6862 94.0654 43.6862 93.1766C43.6862 92.2879 37.5345 91.5674 29.9461 91.5674C22.3577 91.5674 16.2061 92.2879 16.2061 93.1766C16.2061 94.0654 22.3577 94.7858 29.9461 94.7858Z" fill="url(#paint1_radial_2139_27368)"/>
<path d="M79.5592 89.2833C79.5599 89.2728 79.5599 89.2623 79.5592 89.2518C80.5801 87.0313 62.2042 89.4093 60.7177 87.6728C59.2313 85.9362 60.0679 75.3226 60.9032 73C61.7386 70.6774 43.2584 73 43.2584 73C43.2584 73 38.5844 82.589 41.2154 87.6728C42.4279 90.0168 54.4954 90.4717 54.4954 90.4717C54.4954 90.4717 55.68 90.5158 57.5266 90.565L79.5592 89.2833Z" fill="url(#paint2_linear_2139_27368)"/>
<path d="M78.9928 88.4671C76.1569 87.3127 64.3888 87.9328 63.123 86.4507C61.6378 84.7129 62.4731 74.0943 63.3085 71.778C64.1439 69.4617 45.6637 71.778 45.6637 71.778C45.6637 71.778 40.9897 81.3695 43.6207 86.4533C44.5131 88.176 51.2701 88.8792 54.7862 89.13L78.9928 88.4671Z" fill="url(#paint3_linear_2139_27368)"/>
<path d="M95.5851 75.3898C95.5099 75.3898 95.436 75.3898 95.3608 75.3898L13.5882 70.7496C12.5645 70.6916 11.5984 70.2392 10.8784 69.4808C10.1583 68.7224 9.73598 67.7122 9.69379 66.6476L7.32708 6.84895C7.27494 5.53832 8.28855 0.977585 12.3563 0.237836C13.3336 0.0588851 10.4698 2.38777 11.4458 2.38777C11.7131 2.38691 11.9799 2.41307 12.2424 2.4659L92.2023 18.8299C93.0769 19.0089 93.8721 19.4779 94.4686 20.1663C95.0651 20.8547 95.4309 21.7256 95.5111 22.6483L101.733 69.1315C101.463 72.6034 100.343 73.3658 99.1327 74.4383C98.284 75.1919 96.7005 75.3898 95.5851 75.3898Z" fill="url(#paint4_linear_2139_27368)"/>
<path d="M97.6277 73.0734C97.5525 73.0734 97.4786 73.0734 97.4034 73.0734L15.632 68.4332C14.6084 68.3752 13.6423 67.9228 12.9222 67.1644C12.2022 66.406 11.7798 65.3959 11.7376 64.3312L9.36971 4.53254C9.34404 3.88533 9.45988 3.24049 9.70853 2.64652C9.95717 2.05255 10.3321 1.5249 10.8053 1.10327C11.2784 0.681629 11.8373 0.376974 12.44 0.212212C13.0427 0.0474499 13.6735 0.0268693 14.285 0.152018L94.245 16.5134C95.1195 16.6925 95.9147 17.1614 96.5112 17.8499C97.1078 18.5383 97.4736 19.4092 97.5538 20.3319L101.733 68.403C101.785 68.9957 101.717 69.5931 101.534 70.1571C101.351 70.7211 101.057 71.2393 100.671 71.6787C100.285 72.1181 99.8145 72.4691 99.2906 72.7092C98.7666 72.9493 98.2003 73.0733 97.6277 73.0734Z" fill="url(#paint5_linear_2139_27368)"/>
<path d="M13.4883 4.35596L15.8562 64.1546L97.6276 68.7884L93.4483 20.7174L13.4883 4.35596Z" fill="url(#paint6_linear_2139_27368)"/>
<path d="M17.8389 62.1221L15.6553 6.98242L91.5342 22.5096L95.3607 66.5139L17.8389 62.1221Z" fill="url(#paint7_linear_2139_27368)"/>
<path d="M43.3141 12.6421L55.5587 15.1487L34.4851 61.2034L24.1113 61.492L43.3141 12.6421Z" fill="url(#paint8_linear_2139_27368)"/>
<path d="M66.954 17.48L87.5596 21.6967L66.954 65.5662L49.2109 63.8989L66.954 17.48Z" fill="url(#paint9_linear_2139_27368)"/>
<path d="M43.62 86.453L62.8568 85.9918C62.8568 85.9918 62.293 84.3812 62.3136 81.9969C45.7443 81.6743 42.8174 81.3252 42.8174 81.3252C42.8174 81.3252 42.3009 84.8601 43.62 86.453Z" fill="url(#paint10_linear_2139_27368)"/>
<path d="M38.847 42.9186C38.0122 42.32 37.1009 41.8458 36.1396 41.5097C34.2058 40.8128 32.1385 40.6074 30.1065 40.47C29.0686 40.3995 28.0295 40.3516 26.9917 40.2797C26.4788 40.2432 25.9647 40.2016 25.4531 40.1474C25.2106 40.1222 24.9572 40.0932 24.7086 40.0605L24.6201 40.0479C24.6492 40.0479 24.7074 40.0617 24.5789 40.0479L24.3776 40.0176L23.9411 39.947C21.6784 39.5357 19.4686 38.8558 17.3551 37.9206L17.0302 37.7769C16.8956 37.7165 16.7598 37.6509 16.6252 37.5917C16.3657 37.4716 16.1075 37.3485 15.8504 37.2224C15.3242 36.9654 14.8033 36.6978 14.2876 36.4197C13.2546 35.8639 12.2386 35.2704 11.2383 34.6554C10.2683 34.058 9.31169 33.4401 8.36841 32.8016C7.92344 32.4991 7.4821 32.1891 7.04926 31.869C6.83708 31.7115 6.62611 31.5515 6.41878 31.3889L6.26844 31.2704L6.23207 31.2414L6.19206 31.1986C6.07687 31.1041 5.9629 31.0108 5.85014 30.9151C5.02939 30.2337 4.27156 29.4743 3.5865 28.6467C3.50647 28.5496 3.42888 28.4513 3.35249 28.3518L3.25429 28.2257L3.24095 28.2068L3.16699 28.1048C3.01584 27.8922 2.87075 27.6742 2.73172 27.4507C2.44965 26.9982 2.20157 26.5238 1.9897 26.0317V26.0204C1.98364 26.0052 1.97636 25.9889 1.9703 25.9725C1.94726 25.912 1.92423 25.8465 1.9024 25.7885C1.86118 25.6751 1.82238 25.5604 1.78722 25.4457C1.71932 25.2264 1.66112 25.0038 1.61263 24.7778C1.5908 24.6707 1.56898 24.5635 1.55079 24.4552C1.53988 24.3934 1.53018 24.3291 1.52169 24.2674C1.52169 24.2485 1.52169 24.2283 1.5132 24.2094V24.1918C1.48896 23.9675 1.47198 23.7431 1.46471 23.5176C1.45743 23.292 1.46471 23.0513 1.47441 22.8181C1.48168 22.711 1.48896 22.6039 1.49987 22.498C1.49987 22.4451 1.51199 22.3922 1.51684 22.3393L1.52775 22.2662C1.59139 21.8187 1.69157 21.3777 1.82723 20.948C1.85997 20.8472 1.89513 20.7463 1.93271 20.6468C1.9509 20.5964 1.9703 20.5472 1.98849 20.4968V20.4905L2.01637 20.4262C2.10609 20.2137 2.20511 20.0037 2.31342 19.7961C2.41769 19.5995 2.53045 19.408 2.64927 19.2215C2.70747 19.1324 2.76688 19.0442 2.8275 18.9568L2.91237 18.8308C2.91237 18.8308 2.96936 18.7552 2.98633 18.7338C3.26853 18.3731 3.58051 18.0387 3.91871 17.7344C3.99994 17.6626 4.08118 17.592 4.1612 17.5227L4.18424 17.5038L4.20727 17.4849L4.35883 17.3702C4.5504 17.2291 4.74681 17.0967 4.9505 16.9732C5.83559 16.454 6.751 15.9865 7.647 15.4912L7.67003 15.4786L7.6179 14.1592C7.51955 14.1621 7.42322 14.1888 7.33661 14.2373L4.79046 15.6488C3.34451 16.4231 2.14145 17.6106 1.32285 19.0715C0.394015 20.774 0.053861 22.7557 0.35895 24.687C0.693587 26.813 1.91574 28.7008 3.32703 30.232C4.82199 31.8514 6.62005 33.1419 8.43509 34.3403C10.3926 35.6512 12.4163 36.8522 14.4973 37.9383C16.5997 39.0399 18.8001 39.9262 21.0676 40.5847C23.2185 41.1858 25.4106 41.4492 27.6294 41.5866C28.677 41.6509 29.7257 41.7013 30.7721 41.7844C31.285 41.8248 31.7966 41.8727 32.3071 41.9357L32.6393 41.9785L32.7399 41.9936L32.946 42.0239C33.199 42.0642 33.452 42.1087 33.705 42.1575C34.19 42.2532 34.675 42.3692 35.1539 42.5128C35.3964 42.5847 35.6328 42.6628 35.8692 42.7498C35.9771 42.7888 36.0851 42.8304 36.193 42.8758L36.353 42.9413L36.433 42.9753H36.4464C36.905 43.1793 37.3484 43.4186 37.7728 43.6912C37.9789 43.8235 38.1814 43.9646 38.379 44.1146C38.4202 44.1448 38.4602 44.1776 38.5003 44.2091L38.6057 44.2973C38.7076 44.383 38.8082 44.4725 38.9028 44.5683C38.9886 44.6528 39.0695 44.7424 39.1453 44.8367L39.2132 44.9299C39.2459 44.9829 39.2787 45.0371 39.3078 45.0913C39.3235 45.1228 39.3393 45.1543 39.3526 45.1858C39.3713 45.2428 39.3871 45.3009 39.3999 45.3597C39.3999 45.3811 39.3999 45.4025 39.3999 45.424C39.3999 45.4454 39.3999 45.4744 39.3999 45.5008C39.3999 45.5273 39.3999 45.516 39.3999 45.5273C39.3344 45.8486 39.4908 46.2242 39.823 46.3023C40.1274 46.3742 40.4996 46.2078 40.5687 45.8625C40.8354 44.5494 39.777 43.6004 38.847 42.9186ZM1.50835 24.217C1.50835 24.2447 1.50835 24.2498 1.50835 24.217V24.217Z" fill="#1D1D1B"/>
<path d="M17.2104 56.8053L16.5206 52.9579C16.5206 52.9579 16.3763 51.588 17.6481 50.542C17.6481 50.542 21.0588 47.3486 23.5892 47.8893C23.5892 47.8893 25.1653 47.7406 26.065 49.1142L28.4305 52.2345L17.2104 56.8053Z" fill="#424240"/>
<path d="M16.349 56.8529L15.6603 53.0004C15.6603 53.0004 15.5148 51.6305 16.7867 50.5845C16.7867 50.5845 20.1973 47.3911 22.7277 47.9318C22.7277 47.9318 24.3039 47.7831 25.2035 49.1567L27.569 52.277L16.349 56.8529Z" fill="url(#paint11_linear_2139_27368)"/>
<path d="M61.7602 33.6664L59.2261 30.7679C59.2261 30.7679 58.2562 29.8177 56.663 30.2436C56.663 30.2436 52.0799 31.1497 50.9208 33.582C50.9208 33.582 49.8296 34.7993 50.3219 36.3834L51.2518 40.2397L61.7602 33.6664Z" fill="#424240"/>
<path d="M62.3285 32.9784L59.7945 30.0799C59.7945 30.0799 58.8245 29.1297 57.2314 29.5556C57.2314 29.5556 52.6483 30.4617 51.4892 32.894C51.4892 32.894 50.398 34.1113 50.8903 35.6954L51.8202 39.5517L62.3285 32.9784Z" fill="url(#paint12_linear_2139_27368)"/>
<path d="M66.2383 56.853L64.1468 57.1163L63.7358 56.248L59.5638 57.6897L59.0691 57.7515L59.1697 57.8258L53.0468 59.9443L53.0335 59.9178L52.4273 58.3047L43.7898 61.9316L33.4318 71.2736L32.5018 71.6038L32.1587 73.1501C32.1587 73.1501 22.43 87.2268 22.4385 87.2558C22.8156 88.7453 24.9846 91.1826 26.0395 91.9841C28.3225 93.7282 31.4337 93.5115 33.7264 91.8278C34.9898 90.9003 36.332 89.0894 36.5381 87.4448L36.9018 76.5401C39.3849 77.2433 41.8256 75.8961 41.8256 75.8961C45.2398 73.6958 46.0413 70.7759 46.2025 69.1313L53.6931 65.2914C54.8485 66.142 57.7827 67.7261 62.0699 66.0274C63.1347 64.7939 64.0273 63.4109 64.7215 61.919C66.3583 63.1263 68.8196 64.9436 70.4564 66.1546C72.7964 67.8811 74.8928 69.9555 77.9627 69.7563C80.3003 69.6039 87.3483 67.7097 82.878 57.7502L66.2383 56.853Z" fill="url(#paint13_linear_2139_27368)"/>
<path d="M33.2695 71.6999L36.8948 76.5404C36.8948 76.5404 44.897 78.7256 46.204 69.1316C45.4668 66.8418 43.9803 63.7202 43.9803 63.7202L33.2695 71.6999Z" fill="url(#paint14_linear_2139_27368)"/>
<path d="M62.7315 55.5273L64.4532 59.8121C65.2873 61.8877 64.6387 64.3149 62.8503 65.5814C60.9007 66.9676 57.872 67.7918 53.6951 65.294C51.9976 63.6469 50.6094 60.17 50.6094 60.17L62.7315 55.5273Z" fill="url(#paint15_linear_2139_27368)"/>
<path d="M82.5513 57.0436L70.9021 39.7786L61.9299 52.5484C61.3473 51.6247 60.5614 50.8586 59.6373 50.3133C58.7132 49.7681 57.6774 49.4595 56.6158 49.4129L51.903 39.4824L27.1459 52.1829L30.5153 67.2539L15.4385 67.1694L22.2282 86.7961C22.2282 86.7961 24.3294 92.021 28.9416 91.6252C28.9416 91.6252 32.6407 91.4349 33.5307 85.8585L33.4494 71.8411C34.463 72.6662 35.6807 73.1759 36.9616 73.3113C38.2424 73.4467 39.5339 73.2022 40.6866 72.606C43.7686 71.0219 45.2054 67.3673 44.1651 64.1159L50.8336 60.6944C52.7505 63.2552 56.2302 64.1373 59.1825 62.6238C60.2919 62.0599 61.233 61.1932 61.9053 60.1165C62.5776 59.0397 62.9557 57.7933 62.9993 56.5105L74.7844 65.8827C79.6342 68.5166 82.087 65.5526 82.087 65.5526C85.2672 61.9483 82.5513 57.0436 82.5513 57.0436Z" fill="url(#paint16_linear_2139_27368)"/>
<path d="M28.4417 90.6381C25.008 90.6381 23.2572 86.7314 23.1251 86.4239L16.8203 68.1847L30.521 68.2616C30.667 68.2615 30.8111 68.2272 30.9426 68.1612C31.0741 68.0952 31.1895 67.9992 31.2803 67.8804C31.3711 67.7615 31.4349 67.6229 31.467 67.4749C31.4991 67.3268 31.4986 67.1731 31.4655 67.0253L28.2646 52.7332L51.4685 40.8354L55.7521 49.8611C55.8288 50.0226 55.9458 50.1598 56.0908 50.2585C56.2358 50.3571 56.4035 50.4135 56.5766 50.4219C57.4842 50.4621 58.3696 50.7259 59.1599 51.1915C59.9502 51.6571 60.6227 52.3112 61.1221 53.0999C61.2077 53.2369 61.324 53.3502 61.4611 53.4301C61.5982 53.51 61.7519 53.5541 61.909 53.5586H61.9356C62.0883 53.5586 62.2388 53.5212 62.3749 53.4494C62.511 53.3776 62.6288 53.2734 62.7189 53.1453L70.886 41.5134L81.7277 57.58C81.9581 58.0173 83.9271 61.9781 81.3725 64.8703L81.3519 64.8943C81.3215 64.9296 80.4025 65.9642 78.579 65.9642C77.5739 65.9642 76.4729 65.6492 75.3054 65.0279L63.587 55.7023C63.4454 55.5895 63.2766 55.5196 63.0992 55.5001C62.9219 55.4806 62.7427 55.5123 62.5816 55.5918C62.4204 55.6712 62.2835 55.7954 62.1858 55.9505C62.0881 56.1056 62.0334 56.2857 62.0278 56.471C61.9853 57.7131 61.5783 58.9119 60.8614 59.9067C60.1445 60.9014 59.152 61.6445 58.0171 62.0361C56.8823 62.4277 55.6593 62.4491 54.5124 62.0975C53.3655 61.7458 52.3494 61.038 51.6007 60.0689C51.51 59.9476 51.3938 59.8495 51.261 59.782C51.1282 59.7145 50.9823 59.6794 50.8344 59.6795C50.6859 59.6795 50.5394 59.7153 50.4064 59.7841L43.738 63.2056C43.529 63.3144 43.3648 63.498 43.2757 63.7226C43.1866 63.9472 43.1785 64.1977 43.253 64.428C44.1417 67.2408 42.8565 70.3662 40.2522 71.702C39.4402 72.1211 38.5459 72.3389 37.6393 72.3384C36.3366 72.3394 35.0714 71.8854 34.0468 71.0492C33.8742 70.9076 33.6605 70.8312 33.4406 70.8324C33.2935 70.832 33.1482 70.8669 33.0162 70.9345C32.8522 71.0178 32.7141 71.1474 32.6178 71.3086C32.5215 71.4698 32.4709 71.6559 32.4719 71.8457L32.5519 85.7761C31.7905 90.3406 28.9921 90.6091 28.8733 90.6192H28.8527C28.7169 90.6318 28.5775 90.6381 28.4417 90.6381Z" fill="url(#paint17_linear_2139_27368)"/>
<path d="M28.464 89.2948C28.5558 89.2648 28.6505 89.2453 28.7465 89.2368C28.6446 89.2444 28.5416 89.2494 28.4421 89.2494C25.9603 89.2494 24.5441 86.303 24.361 85.8972L18.7207 69.5825L30.5154 69.648C30.8623 69.6479 31.2047 69.5664 31.5171 69.4095C31.8294 69.2526 32.1036 69.0245 32.3193 68.7421C32.5349 68.4597 32.6864 68.1303 32.7625 67.7785C32.8385 67.4267 32.8372 67.0616 32.7585 66.7104L29.8037 53.4907L50.8628 42.6919L54.5559 50.48C54.738 50.8641 55.0158 51.1903 55.3604 51.4248C55.705 51.6593 56.1038 51.7935 56.5152 51.8134C57.2112 51.8429 57.8905 52.044 58.497 52.4C59.1035 52.7561 59.6198 53.2569 60.0035 53.8612C60.3113 54.3553 60.7836 54.7142 61.3299 54.8694C60.9405 55.295 60.7159 55.8551 60.6994 56.4421C60.6476 57.6625 60.1451 58.8151 59.2964 59.6601C58.4477 60.5052 57.3183 60.9775 56.143 60.9789C55.4725 60.9806 54.8104 60.8245 54.2063 60.5222C53.6021 60.2199 53.0717 59.7793 52.6548 59.2335C52.3305 58.7963 51.8709 58.489 51.3536 58.3636C50.8364 58.2382 50.2934 58.3025 49.8165 58.5455L43.148 61.9657C42.6513 62.2229 42.2601 62.6573 42.046 63.1894C41.8318 63.7215 41.809 64.316 41.9816 64.8642C42.6715 67.0179 41.6748 69.4199 39.6646 70.4507C39.0363 70.7757 38.344 70.9448 37.6422 70.9447C36.6396 70.9462 35.6656 70.5973 34.8766 69.9542C34.5363 69.6747 34.127 69.5007 33.6958 69.4523C33.2646 69.4039 32.829 69.4829 32.4391 69.6804C32.0493 69.8779 31.7209 70.1858 31.4919 70.5686C31.2629 70.9515 31.1426 71.3937 31.1447 71.8445L31.2235 85.6477C30.6391 88.9167 28.8932 89.2104 28.7671 89.2267C28.6639 89.2375 28.5622 89.2603 28.464 89.2948ZM78.5758 64.5781C77.812 64.5781 76.9523 64.3336 76.0163 63.8485L64.3962 54.6085C64.1593 54.4197 63.8891 54.2809 63.6008 54.2002C63.6698 54.1255 63.7338 54.0459 63.7924 53.962L70.8598 43.8954L80.5861 58.3073C80.871 58.8744 82.2277 61.8497 80.3872 63.9329L80.363 63.9594C80.2732 64.0513 79.6888 64.5781 78.5758 64.5781Z" fill="url(#paint18_linear_2139_27368)"/>
<path d="M35.3125 57.681C37.8174 62.9575 35.3901 69.527 29.8916 72.3411C24.3932 75.1552 17.9053 73.164 15.4065 67.89C12.9076 62.616 15.3277 56.0439 20.8274 53.2286C26.327 50.4133 32.8076 52.4019 35.3125 57.681Z" fill="url(#paint19_linear_2139_27368)"/>
<path d="M70.9528 38.9581C73.4578 44.2359 71.0316 50.8041 65.5332 53.6195C60.0347 56.4348 53.5457 54.4462 51.0407 49.1684C48.5358 43.8906 50.9631 37.3223 56.4616 34.507C61.9601 31.6916 68.4479 33.6803 70.9528 38.9581Z" fill="url(#paint20_linear_2139_27368)"/>
<path d="M35.0192 57.0634C37.5242 62.3399 35.098 68.9094 29.5996 71.7235C24.1011 74.5376 17.6121 72.5502 15.1071 67.2737C12.6022 61.9971 15.0295 55.4276 20.528 52.611C26.0265 49.7944 32.5143 51.7843 35.0192 57.0634Z" fill="url(#paint21_linear_2139_27368)"/>
<path d="M70.6045 38.2259C73.1094 43.5037 70.6833 50.072 65.1849 52.886C59.6864 55.7001 53.1973 53.7127 50.6888 48.4349C48.1802 43.1571 50.6112 36.5889 56.1097 33.7735C61.6081 30.9582 68.0996 32.9468 70.6045 38.2259Z" fill="url(#paint22_linear_2139_27368)"/>
<path d="M48.5913 54.5506L40.9274 58.48C39.7938 59.0609 37.8247 57.3193 36.5298 54.5897C35.2337 51.86 35.1028 49.177 36.2352 48.5961L43.8991 44.6655C45.0328 44.0845 47.0018 45.8261 48.2967 48.5558C49.5976 51.2854 49.725 53.9684 48.5913 54.5506Z" fill="url(#paint23_linear_2139_27368)"/>
<path fill-rule="evenodd" clip-rule="evenodd" d="M20.5087 57.8347C20.4555 57.7228 20.424 57.6011 20.4161 57.4766C20.4081 57.3521 20.4239 57.2272 20.4624 57.109C20.5009 56.9908 20.5614 56.8817 20.6405 56.7878C20.7196 56.6939 20.8157 56.6171 20.9233 56.5619L22.1139 55.9519L23.3034 55.342C23.411 55.2867 23.528 55.254 23.6478 55.2457C23.7676 55.2375 23.8878 55.2538 24.0015 55.2939C24.1152 55.3339 24.2203 55.3968 24.3106 55.479C24.4009 55.5612 24.4748 55.6611 24.5279 55.773L25.7913 58.4345C24.4576 61.8976 25.2251 61.5057 21.7708 60.495L20.5087 57.8347Z" fill="url(#paint24_linear_2139_27368)"/>
<path fill-rule="evenodd" clip-rule="evenodd" d="M20.9068 66.9623C20.7942 67.0201 20.6718 67.0544 20.5465 67.063C20.4212 67.0716 20.2955 67.0545 20.1766 67.0126C20.0577 66.9707 19.9479 66.9048 19.8535 66.8188C19.7591 66.7327 19.6819 66.6282 19.6264 66.5112L19.0578 65.314L18.4892 64.1155C18.3771 63.8791 18.3599 63.6063 18.4413 63.3567C18.5227 63.1072 18.696 62.9015 18.9232 62.7847L21.4463 61.4917C24.7781 62.8779 24.4011 62.079 23.4287 65.6693L20.9068 66.9623Z" fill="url(#paint25_linear_2139_27368)"/>
<path fill-rule="evenodd" clip-rule="evenodd" d="M29.6544 66.5745C29.766 66.8086 29.7839 67.0791 29.7041 67.3268C29.6244 67.5746 29.4535 67.7794 29.2288 67.8965L28.0709 68.4901L26.9118 69.0836C26.6861 69.1992 26.4254 69.2168 26.1872 69.1327C25.9489 69.0485 25.7525 68.8695 25.6412 68.635L24.3936 66.0074C25.7273 62.5444 24.9586 62.9363 28.4128 63.947L29.6544 66.5745Z" fill="url(#paint26_linear_2139_27368)"/>
<path fill-rule="evenodd" clip-rule="evenodd" d="M29.2517 57.4882C29.3669 57.4291 29.4922 57.3942 29.6203 57.3855C29.7485 57.3767 29.8771 57.3944 29.9987 57.4373C30.1203 57.4803 30.2326 57.5477 30.3291 57.6358C30.4256 57.7239 30.5045 57.8309 30.5612 57.9507L31.1201 59.1278L31.6791 60.3061C31.7936 60.5478 31.8113 60.8268 31.7281 61.082C31.6449 61.3372 31.4676 61.5476 31.2353 61.6671L28.7316 62.9563C25.3998 61.5701 25.7768 62.3691 26.7492 58.7787L29.2517 57.4882Z" fill="url(#paint27_linear_2139_27368)"/>
<path fill-rule="evenodd" clip-rule="evenodd" d="M59.626 41.1757C60.0217 40.9729 60.3507 40.6526 60.5712 40.2554C60.7918 39.8581 60.8941 39.4019 60.8652 38.9442C60.8363 38.4866 60.6775 38.0481 60.4088 37.6843C60.1402 37.3205 59.7737 37.0476 59.3559 36.9003C58.938 36.7529 58.4875 36.7377 58.0613 36.8565C57.6352 36.9752 57.2524 37.2227 56.9616 37.5676C56.6707 37.9125 56.4847 38.3392 56.4272 38.794C56.3697 39.2487 56.4432 39.7109 56.6385 40.1222C56.9013 40.6727 57.3631 41.0926 57.923 41.29C58.4828 41.4875 59.0952 41.4464 59.626 41.1757Z" fill="url(#paint28_linear_2139_27368)"/>
<path fill-rule="evenodd" clip-rule="evenodd" d="M63.645 49.6447C64.0408 49.442 64.3698 49.1218 64.5905 48.7246C64.8111 48.3275 64.9136 47.8713 64.8848 47.4137C64.856 46.956 64.6973 46.5176 64.4288 46.1537C64.1603 45.7898 63.794 45.5168 63.3762 45.3693C62.9584 45.2218 62.5079 45.2064 62.0817 45.325C61.6555 45.4436 61.2727 45.6909 60.9817 46.0356C60.6907 46.3803 60.5046 46.807 60.4469 47.2617C60.3892 47.7163 60.4625 48.1786 60.6575 48.5899C60.9201 49.1406 61.3818 49.5608 61.9417 49.7585C62.5016 49.9562 63.1141 49.9153 63.645 49.6447Z" fill="url(#paint29_linear_2139_27368)"/>
<path fill-rule="evenodd" clip-rule="evenodd" d="M54.575 46.4474C54.3798 46.0361 54.3063 45.5739 54.3638 45.1192C54.4213 44.6644 54.6072 44.2377 54.8981 43.8928C55.1889 43.5479 55.5717 43.3004 55.9979 43.1817C56.4241 43.0629 56.8746 43.0781 57.2924 43.2255C57.7103 43.3728 58.0767 43.6457 58.3454 44.0095C58.614 44.3733 58.7728 44.8118 58.8017 45.2694C58.8307 45.7271 58.7283 46.1833 58.5078 46.5806C58.2872 46.9778 57.9582 47.2981 57.5625 47.5009C57.0319 47.773 56.4191 47.8148 55.8589 47.6172C55.2986 47.4196 54.8368 46.9988 54.575 46.4474Z" fill="url(#paint30_linear_2139_27368)"/>
<path fill-rule="evenodd" clip-rule="evenodd" d="M62.7225 42.2672C62.5272 41.8559 62.4537 41.3937 62.5112 40.939C62.5687 40.4843 62.7547 40.0575 63.0455 39.7126C63.3364 39.3677 63.7191 39.1203 64.1453 39.0015C64.5715 38.8827 65.022 38.898 65.4399 39.0453C65.8578 39.1927 66.2242 39.4655 66.4928 39.8293C66.7615 40.1931 66.9203 40.6316 66.9492 41.0892C66.9781 41.5469 66.8758 42.0032 66.6552 42.4004C66.4347 42.7976 66.1057 43.1179 65.71 43.3208C65.4473 43.4556 65.1616 43.5353 64.8692 43.5554C64.5769 43.5754 64.2836 43.5354 64.0062 43.4375C63.7287 43.3397 63.4725 43.186 63.2523 42.9851C63.032 42.7843 62.852 42.5404 62.7225 42.2672Z" fill="url(#paint31_linear_2139_27368)"/>
<path d="M61.2042 56.0971C62.1244 58.0366 61.0405 60.547 58.7793 61.7051C56.5181 62.8633 53.9464 62.2281 53.0262 60.2886C52.1059 58.3492 53.1887 55.8388 55.445 54.6819C57.7014 53.525 60.2827 54.1577 61.2042 56.0971Z" fill="url(#paint32_linear_2139_27368)"/>
<path d="M34.8128 70.0376C35.7331 71.9771 38.3083 72.6109 40.5659 71.4541C42.8235 70.2972 43.9062 67.7856 42.9908 65.8474C42.0754 63.9091 39.4893 63.2727 37.2305 64.4309C34.9717 65.589 33.8926 68.0981 34.8128 70.0376Z" fill="url(#paint33_linear_2139_27368)"/>
<path d="M35.2777 69.2019C36.0925 70.9183 38.2822 71.5258 40.1675 70.5592C42.0529 69.5926 42.9234 67.4162 42.1074 65.6998C41.2915 63.9834 39.1042 63.3747 37.2176 64.3425C35.3311 65.3104 34.4629 67.4855 35.2777 69.2019Z" fill="#231F20"/>
<path d="M35.2299 68.2981C36.0446 70.0146 38.2343 70.622 40.1209 69.6554C42.0075 68.6888 42.8756 66.5124 42.0608 64.796C41.246 63.0796 39.0563 62.4709 37.1698 63.4387C35.2832 64.4066 34.4151 66.5817 35.2299 68.2981Z" fill="url(#paint34_linear_2139_27368)"/>
<path d="M59.8325 55.2804C59.379 54.5848 58.2223 53.9521 58.2223 53.9521L58.2575 54.2949C57.2971 54.0379 56.2796 54.153 55.3949 54.6188C53.5083 55.5854 52.639 57.7618 53.455 59.4782C53.3665 59.4858 53.2767 59.4959 53.1858 59.5097C53.455 59.9987 54.0018 60.402 54.4783 60.6817C54.747 60.8673 55.0397 61.0124 55.3476 61.1127C56.3433 61.4191 57.414 61.3177 58.3399 60.8292C60.2265 59.8613 61.0946 57.6862 60.2799 55.9698C60.1613 55.72 60.0108 55.4882 59.8325 55.2804Z" fill="#1D1D1B"/>
<path d="M59.6222 55.3836C60.4369 57.1 59.5688 59.2751 57.6822 60.243C55.7957 61.2108 53.606 60.6022 52.7912 58.8857C51.9764 57.1693 52.8458 54.9929 54.7311 54.0263C56.6165 53.0597 58.8122 53.6659 59.6222 55.3836Z" fill="url(#paint35_linear_2139_27368)"/>
<path d="M52.4863 10.7036C58.3752 11.3955 64.2265 12.2978 70.0669 13.2631C75.9073 14.2284 81.7282 15.2921 87.5383 16.4137L91.8934 17.2719L92.9846 17.4937L93.529 17.6033L93.6648 17.631C93.7133 17.6411 93.7461 17.6462 93.8188 17.6638C93.9468 17.6924 94.0731 17.7286 94.1971 17.7722C94.6948 17.9459 95.1466 18.2382 95.5162 18.6257C95.8859 19.0132 96.1633 19.4852 96.3262 20.004C96.4043 20.2622 96.4551 20.5284 96.4777 20.798L96.5165 21.3814L96.5917 22.5308L96.7336 24.8294L96.8706 27.1293L96.9918 29.4305C97.3155 35.5677 97.575 41.7088 97.6283 47.8687C96.719 41.7819 96.0158 35.6774 95.3768 29.5678L95.1416 27.2768L94.9173 24.9832L94.7015 22.6971L94.596 21.5503L94.5426 20.9857C94.5299 20.8727 94.5051 20.7616 94.4687 20.6543C94.395 20.4425 94.2756 20.251 94.1197 20.0946C93.9637 19.9382 93.7754 19.821 93.569 19.752C93.5179 19.7344 93.4656 19.7205 93.4126 19.7104C93.3957 19.7104 93.3363 19.6953 93.2914 19.6865L93.1556 19.6613L92.61 19.5604L91.5188 19.3588L87.154 18.5245C81.3471 17.3962 75.552 16.1923 69.7686 14.9127C63.9876 13.6223 58.2188 12.2675 52.4863 10.7036Z" fill="white"/>
<path d="M51.4688 40.8355C51.8343 39.9462 52.286 39.0979 52.817 38.3038C53.3462 37.5 53.9523 36.754 54.626 36.077C55.3044 35.3896 56.0677 34.7988 56.8957 34.3202C57.7357 33.8398 58.6471 33.5088 59.5922 33.341C60.065 33.265 60.5432 33.2309 61.0217 33.2389C61.4976 33.241 61.9726 33.2811 62.4426 33.3587C63.3844 33.5147 64.2952 33.8297 65.1391 34.2912C65.9745 34.7509 66.7357 35.3432 67.3955 36.0467C67.7219 36.3956 68.0234 36.7688 68.2976 37.1633C68.5722 37.5537 68.8109 37.9702 69.0105 38.4071C68.8861 38.2051 68.7518 38.0099 68.608 37.8224C68.4665 37.6333 68.3194 37.4498 68.1666 37.2716C67.8647 36.9168 67.5407 36.583 67.1967 36.2723C66.5153 35.6508 65.7533 35.132 64.933 34.731C64.1192 34.3367 63.2525 34.0729 62.3626 33.9485C61.9207 33.885 61.4751 33.8534 61.0289 33.8539C60.5822 33.8516 60.1361 33.8883 59.6952 33.9636C58.8134 34.1122 57.9611 34.4102 57.1721 34.8457C56.3733 35.2824 55.6276 35.8167 54.9509 36.4374C54.2663 37.0646 53.634 37.751 53.0607 38.489C52.4747 39.229 51.9426 40.0134 51.4688 40.8355Z" fill="white"/>
<path d="M15.6162 59.6028C15.9818 58.7135 16.4335 57.8652 16.9645 57.071C17.4937 56.2673 18.0998 55.5212 18.7734 54.8442C19.4523 54.1568 20.2159 53.566 21.0444 53.0875C21.8845 52.6103 22.7955 52.2828 23.7396 52.1184C24.2125 52.0424 24.6907 52.0083 25.1691 52.0163C25.6454 52.0184 26.1209 52.0584 26.5913 52.136C27.5326 52.2922 28.443 52.6072 29.2866 53.0686C30.1223 53.5283 30.884 54.1205 31.5442 54.824C31.8699 55.1733 32.171 55.5464 32.445 55.9406C32.7201 56.3308 32.9588 56.7473 33.158 57.1844C33.0336 56.9824 32.8993 56.7872 32.7554 56.5997C32.6148 56.4107 32.4669 56.2216 32.3141 56.049C32.0122 55.6942 31.6881 55.3603 31.3441 55.0496C30.6618 54.4267 29.8985 53.9066 29.0769 53.5046C28.2629 53.1106 27.3963 52.8467 26.5065 52.722C26.0626 52.6567 25.615 52.6234 25.1667 52.6224C24.72 52.62 24.2738 52.6567 23.833 52.7321C22.9511 52.8805 22.0988 53.1785 21.3099 53.6142C20.5118 54.0501 19.7672 54.5845 19.0923 55.2059C18.4074 55.8324 17.7751 56.5183 17.2021 57.2563C16.6182 57.9965 16.0881 58.7808 15.6162 59.6028Z" fill="white"/>
<path d="M17.4219 51.5727C17.7888 51.1153 18.2239 50.7222 18.7107 50.4082C18.832 50.3225 18.9532 50.2507 19.0744 50.1764C19.1957 50.102 19.3254 50.0314 19.4527 49.9646C19.58 49.8979 19.7098 49.8311 19.8407 49.7731C19.9717 49.7151 20.1026 49.6471 20.236 49.5979C20.7698 49.3843 21.3202 49.2186 21.8813 49.1027C22.1589 49.0371 22.4439 49.0094 22.73 48.9665C23.0161 48.9237 23.2974 48.925 23.5787 48.9199C23.3059 49.0081 23.0319 49.0724 22.7603 49.1493L22.3553 49.269C22.2195 49.3081 22.0838 49.3421 21.9516 49.3887C21.8194 49.4354 21.6849 49.4769 21.5515 49.5147C21.4181 49.5526 21.2872 49.608 21.155 49.6534C20.8895 49.7403 20.6312 49.8462 20.3706 49.9483C20.1099 50.0503 19.8541 50.1612 19.6031 50.2847C19.3521 50.4082 19.1011 50.5368 18.8526 50.6628C18.3544 50.9284 17.8762 51.2326 17.4219 51.5727Z" fill="white"/>
<path d="M52.4785 32.8964C52.8455 32.4387 53.2812 32.0456 53.7686 31.732C53.8898 31.6475 54.0111 31.5744 54.1323 31.5001C54.2535 31.4257 54.3821 31.3564 54.5094 31.2884C54.6367 31.2203 54.7664 31.1548 54.8986 31.0981C55.0307 31.0414 55.1605 30.9721 55.2926 30.9217C55.8265 30.7086 56.3769 30.5433 56.9379 30.4276C57.2156 30.3609 57.5017 30.3331 57.7866 30.2915C58.0716 30.25 58.3553 30.2487 58.6353 30.2437C58.3625 30.3319 58.0873 30.3961 57.8157 30.473L57.4108 30.5927C57.2762 30.6318 57.1404 30.6658 57.007 30.7188C56.8737 30.7717 56.7415 30.8057 56.6069 30.8448C56.4723 30.8838 56.3426 30.9368 56.2117 30.9834C55.9449 31.0691 55.6867 31.175 55.4272 31.277C55.1677 31.3791 54.9095 31.49 54.6597 31.6135C54.41 31.737 54.1578 31.8656 53.908 31.9916C53.4103 32.2554 52.9325 32.5579 52.4785 32.8964Z" fill="white"/>
<path d="M53.8525 55.3835C54.1281 55.1139 54.4432 54.8919 54.7861 54.7256C54.871 54.6841 54.9571 54.64 55.0444 54.5996L55.3111 54.4938C55.4916 54.4325 55.6749 54.3808 55.8604 54.3388L55.9998 54.3085L56.1416 54.2871C56.235 54.2745 56.3296 54.2556 56.4241 54.2493C56.6138 54.2344 56.8041 54.2314 56.994 54.2405C57.3717 54.2558 57.7452 54.3293 58.1022 54.4585C57.7251 54.4522 57.3602 54.432 56.9952 54.4585C56.6326 54.4799 56.2721 54.5313 55.9173 54.6122C55.561 54.6884 55.2105 54.7916 54.8686 54.921C54.521 55.0531 54.1817 55.2076 53.8525 55.3835Z" fill="white"/>
<path d="M36.0059 64.7938C36.2817 64.5251 36.5968 64.3034 36.9394 64.1372C37.0255 64.0956 37.1104 64.0515 37.1989 64.0112L37.4644 63.9053C37.6463 63.8461 37.8282 63.7894 38.0149 63.7491L38.1543 63.7188L38.295 63.6987C38.3895 63.6861 38.4829 63.6672 38.5787 63.6609C38.7679 63.6453 38.9578 63.6424 39.1473 63.652C39.5255 63.6672 39.8993 63.7407 40.2567 63.87C39.8796 63.87 39.5135 63.8436 39.1497 63.87C38.7871 63.8915 38.4267 63.9429 38.0719 64.0238C37.7155 64.0998 37.3649 64.203 37.0231 64.3325C36.6754 64.4648 36.3357 64.6188 36.0059 64.7938Z" fill="white"/>
<defs>
<radialGradient id="paint0_radial_2139_27368" cx="0" cy="0" r="1" gradientUnits="userSpaceOnUse" gradientTransform="translate(61.5319 89.6379) rotate(90) scale(1.60175 34.8835)">
<stop stop-color="#828282"/>
<stop offset="1" stop-color="#A8A8A8" stop-opacity="0"/>
</radialGradient>
<radialGradient id="paint1_radial_2139_27368" cx="0" cy="0" r="1" gradientUnits="userSpaceOnUse" gradientTransform="translate(29.9461 93.1766) rotate(90) scale(1.60923 13.7401)">
<stop stop-color="#828282"/>
<stop offset="1" stop-color="#A8A8A8" stop-opacity="0"/>
</radialGradient>
<linearGradient id="paint2_linear_2139_27368" x1="40.414" y1="81.2671" x2="79.6029" y2="81.2671" gradientUnits="userSpaceOnUse">
<stop stop-color="#8C91AB"/>
<stop offset="1" stop-color="#879AC9"/>
</linearGradient>
<linearGradient id="paint3_linear_2139_27368" x1="42.8181" y1="79.9404" x2="78.9928" y2="79.9404" gradientUnits="userSpaceOnUse">
<stop stop-color="#DDDEE8"/>
<stop offset="1" stop-color="#FBFBFB"/>
</linearGradient>
<linearGradient id="paint4_linear_2139_27368" x1="7.32466" y1="37.8088" x2="101.737" y2="37.8088" gradientUnits="userSpaceOnUse">
<stop stop-color="#8C91AB"/>
<stop offset="1" stop-color="#879AC9"/>
</linearGradient>
<linearGradient id="paint5_linear_2139_27368" x1="55.5581" y1="73.0734" x2="55.5581" y2="0.0713674" gradientUnits="userSpaceOnUse">
<stop stop-color="#FAFBFF"/>
<stop offset="1" stop-color="#FBFBFB"/>
</linearGradient>
<linearGradient id="paint6_linear_2139_27368" x1="13.4883" y1="36.5722" x2="97.6276" y2="36.5722" gradientUnits="userSpaceOnUse">
<stop stop-color="#5C77ED"/>
<stop offset="0.66" stop-color="#8760FA"/>
<stop offset="1" stop-color="#9757FF"/>
</linearGradient>
<linearGradient id="paint7_linear_2139_27368" x1="15.6553" y1="36.7488" x2="95.3607" y2="36.7488" gradientUnits="userSpaceOnUse">
<stop stop-color="#9757FF"/>
<stop offset="0.34" stop-color="#8760FA"/>
<stop offset="1" stop-color="#5C77ED"/>
</linearGradient>
<linearGradient id="paint8_linear_2139_27368" x1="24.1113" y1="37.0677" x2="55.5587" y2="37.0677" gradientUnits="userSpaceOnUse">
<stop stop-color="#BCC2E0" stop-opacity="0"/>
<stop offset="1" stop-color="#FBFBFB" stop-opacity="0.2"/>
</linearGradient>
<linearGradient id="paint9_linear_2139_27368" x1="49.2109" y1="41.5224" x2="87.5596" y2="41.5224" gradientUnits="userSpaceOnUse">
<stop stop-color="#BCC2E0" stop-opacity="0"/>
<stop offset="1" stop-color="#FBFBFB" stop-opacity="0.2"/>
</linearGradient>
<linearGradient id="paint10_linear_2139_27368" x1="42.718" y1="83.8885" x2="62.8568" y2="83.8885" gradientUnits="userSpaceOnUse">
<stop stop-color="#BCC2E0"/>
<stop offset="1" stop-color="#FBFBFB"/>
</linearGradient>
<linearGradient id="paint11_linear_2139_27368" x1="22.1856" y1="55.0411" x2="19.0343" y2="48.8959" gradientUnits="userSpaceOnUse">
<stop/>
<stop offset="1" stop-color="#545455"/>
</linearGradient>
<linearGradient id="paint12_linear_2139_27368" x1="57.3052" y1="36.7369" x2="54.1539" y2="30.5917" gradientUnits="userSpaceOnUse">
<stop/>
<stop offset="1" stop-color="#545455"/>
</linearGradient>
<linearGradient id="paint13_linear_2139_27368" x1="56.8177" y1="81.329" x2="46.2285" y2="60.6792" gradientUnits="userSpaceOnUse">
<stop stop-color="#144F00"/>
<stop offset="0.37" stop-color="#145100"/>
<stop offset="0.53" stop-color="#165800"/>
<stop offset="0.66" stop-color="#186500"/>
<stop offset="0.77" stop-color="#1B7700"/>
<stop offset="0.86" stop-color="#1E8F00"/>
<stop offset="0.94" stop-color="#23AB00"/>
<stop offset="1" stop-color="#27C400"/>
</linearGradient>
<linearGradient id="paint14_linear_2139_27368" x1="42.4781" y1="75.8296" x2="37.8743" y2="66.8519" gradientUnits="userSpaceOnUse">
<stop stop-color="#27C400"/>
<stop offset="0.06" stop-color="#23AB00"/>
<stop offset="0.14" stop-color="#1E8F00"/>
<stop offset="0.23" stop-color="#1B7700"/>
<stop offset="0.34" stop-color="#186500"/>
<stop offset="0.47" stop-color="#165800"/>
<stop offset="0.63" stop-color="#145100"/>
<stop offset="1" stop-color="#144F00"/>
</linearGradient>
<linearGradient id="paint15_linear_2139_27368" x1="62.7318" y1="65.6139" x2="54.896" y2="56.465" gradientUnits="userSpaceOnUse">
<stop stop-color="#27C400"/>
<stop offset="0.06" stop-color="#23AB00"/>
<stop offset="0.14" stop-color="#1E8F00"/>
<stop offset="0.23" stop-color="#1B7700"/>
<stop offset="0.34" stop-color="#186500"/>
<stop offset="0.47" stop-color="#165800"/>
<stop offset="0.63" stop-color="#145100"/>
<stop offset="1" stop-color="#144F00"/>
</linearGradient>
<linearGradient id="paint16_linear_2139_27368" x1="55.8763" y1="79.2647" x2="38.8978" y2="46.1553" gradientUnits="userSpaceOnUse">
<stop stop-color="#97DE24"/>
<stop offset="0.06" stop-color="#84E328"/>
<stop offset="0.16" stop-color="#6CE82C"/>
<stop offset="0.28" stop-color="#5AED30"/>
<stop offset="0.42" stop-color="#4DF032"/>
<stop offset="0.6" stop-color="#46F134"/>
<stop offset="1" stop-color="#44F234"/>
</linearGradient>
<linearGradient id="paint17_linear_2139_27368" x1="55.4489" y1="78.3618" x2="39.3822" y2="47.0305" gradientUnits="userSpaceOnUse">
<stop stop-color="#ED6227"/>
<stop offset="0.13" stop-color="#F57216"/>
<stop offset="0.3" stop-color="#FB7F09"/>
<stop offset="0.52" stop-color="#FE8602"/>
<stop offset="1" stop-color="#FF8800"/>
</linearGradient>
<linearGradient id="paint18_linear_2139_27368" x1="54.8593" y1="77.1188" x2="40.0479" y2="48.2353" gradientUnits="userSpaceOnUse">
<stop stop-color="#BF5600"/>
<stop offset="0.37" stop-color="#D85C15"/>
<stop offset="0.72" stop-color="#E76122"/>
<stop offset="1" stop-color="#ED6227"/>
</linearGradient>
<linearGradient id="paint19_linear_2139_27368" x1="29.8933" y1="72.34" x2="20.2444" y2="53.5239" gradientUnits="userSpaceOnUse">
<stop stop-color="#944E18"/>
<stop offset="0.09" stop-color="#894F10"/>
<stop offset="0.27" stop-color="#7C5107"/>
<stop offset="0.5" stop-color="#755202"/>
<stop offset="1" stop-color="#735200"/>
</linearGradient>
<linearGradient id="paint20_linear_2139_27368" x1="65.5334" y1="53.6159" x2="55.8845" y2="34.7997" gradientUnits="userSpaceOnUse">
<stop stop-color="#944E18"/>
<stop offset="0.09" stop-color="#894F10"/>
<stop offset="0.27" stop-color="#7C5107"/>
<stop offset="0.5" stop-color="#755202"/>
<stop offset="1" stop-color="#735200"/>
</linearGradient>
<linearGradient id="paint21_linear_2139_27368" x1="29.6006" y1="71.7229" x2="19.9511" y2="52.9056" gradientUnits="userSpaceOnUse">
<stop stop-color="#ED6227"/>
<stop offset="0.13" stop-color="#F57216"/>
<stop offset="0.3" stop-color="#FB7F09"/>
<stop offset="0.52" stop-color="#FE8602"/>
<stop offset="1" stop-color="#FF8800"/>
</linearGradient>
<linearGradient id="paint22_linear_2139_27368" x1="65.1855" y1="52.8835" x2="55.5365" y2="34.0674" gradientUnits="userSpaceOnUse">
<stop stop-color="#ED6227"/>
<stop offset="0.13" stop-color="#F57216"/>
<stop offset="0.3" stop-color="#FB7F09"/>
<stop offset="0.52" stop-color="#FE8602"/>
<stop offset="1" stop-color="#FF8800"/>
</linearGradient>
<linearGradient id="paint23_linear_2139_27368" x1="44.76" y1="56.5126" x2="39.7698" y2="46.7813" gradientUnits="userSpaceOnUse">
<stop stop-color="#545455"/>
<stop offset="1"/>
</linearGradient>
<linearGradient id="paint24_linear_2139_27368" x1="21.3363" y1="59.5757" x2="25.4155" y2="57.6394" gradientUnits="userSpaceOnUse">
<stop/>
<stop offset="1" stop-color="#545455"/>
</linearGradient>
<linearGradient id="paint25_linear_2139_27368" x1="19.0598" y1="65.3116" x2="24.1266" y2="62.9066" gradientUnits="userSpaceOnUse">
<stop/>
<stop offset="1" stop-color="#545455"/>
</linearGradient>
<linearGradient id="paint26_linear_2139_27368" x1="24.8239" y1="66.9231" x2="28.9031" y2="64.9868" gradientUnits="userSpaceOnUse">
<stop/>
<stop offset="1" stop-color="#545455"/>
</linearGradient>
<linearGradient id="paint27_linear_2139_27368" x1="26.1281" y1="61.6871" x2="31.196" y2="59.2815" gradientUnits="userSpaceOnUse">
<stop/>
<stop offset="1" stop-color="#545455"/>
</linearGradient>
<linearGradient id="paint28_linear_2139_27368" x1="56.6393" y1="40.119" x2="60.6998" y2="38.1916" gradientUnits="userSpaceOnUse">
<stop/>
<stop offset="1" stop-color="#545455"/>
</linearGradient>
<linearGradient id="paint29_linear_2139_27368" x1="60.6587" y1="48.5876" x2="64.7191" y2="46.6602" gradientUnits="userSpaceOnUse">
<stop/>
<stop offset="1" stop-color="#545455"/>
</linearGradient>
<linearGradient id="paint30_linear_2139_27368" x1="54.5748" y1="46.4419" x2="58.6363" y2="44.5141" gradientUnits="userSpaceOnUse">
<stop/>
<stop offset="1" stop-color="#545455"/>
</linearGradient>
<linearGradient id="paint31_linear_2139_27368" x1="62.7229" y1="42.2634" x2="66.7834" y2="40.336" gradientUnits="userSpaceOnUse">
<stop/>
<stop offset="1" stop-color="#545455"/>
</linearGradient>
<linearGradient id="paint32_linear_2139_27368" x1="53.0317" y1="60.2851" x2="61.3248" y2="56.3487" gradientUnits="userSpaceOnUse">
<stop/>
<stop offset="1" stop-color="#545455"/>
</linearGradient>
<linearGradient id="paint33_linear_2139_27368" x1="34.4843" y1="67.9418" x2="43.3133" y2="67.9418" gradientUnits="userSpaceOnUse">
<stop/>
<stop offset="1" stop-color="#545455"/>
</linearGradient>
<linearGradient id="paint34_linear_2139_27368" x1="40.1215" y1="69.6523" x2="36.9833" y2="63.5327" gradientUnits="userSpaceOnUse">
<stop/>
<stop offset="1" stop-color="#545455"/>
</linearGradient>
<linearGradient id="paint35_linear_2139_27368" x1="57.6829" y1="60.2396" x2="54.5448" y2="54.1199" gradientUnits="userSpaceOnUse">
<stop/>
<stop offset="1" stop-color="#545455"/>
</linearGradient>
</defs>
</svg>
