<svg width="49" height="48" viewBox="0 0 49 48" fill="none" xmlns="http://www.w3.org/2000/svg">
<path d="M33.4016 35.9261C33.844 35.3788 34.1514 34.2016 34.1514 33.4967C34.1514 31.9821 33.0417 30.685 31.5195 30.475C26.2559 29.7477 22.5818 29.6802 17.2881 30.4525C15.7585 30.6775 14.6562 31.9971 14.6562 33.5192C14.6562 34.1941 14.8737 34.8614 15.2936 35.4013C15.4136 35.5587 15.8485 36.1211 15.9684 36.2786M24.4038 26.1711C25.9934 26.1711 27.523 25.5412 28.6478 24.424C29.7725 23.3068 30.4023 21.7847 30.4023 20.2026C30.4023 18.6205 29.7725 17.0983 28.6478 15.9811C27.523 14.8564 25.9934 14.2266 24.4038 14.2266C22.8142 14.2266 21.2846 14.8564 20.1599 15.9736C19.0352 17.0908 18.4053 18.613 18.4053 20.1951C18.4053 21.7772 19.0352 23.2993 20.1599 24.4165C21.2846 25.5337 22.8142 26.1711 24.4038 26.1711Z" stroke="#F0F8FF" stroke-width="2" stroke-linejoin="round"/>
<path fill-rule="evenodd" clip-rule="evenodd" d="M24.4035 38.8575C32.6889 38.8575 39.4072 32.1767 39.4072 23.9288C39.4072 15.6808 32.6889 9 24.4035 9C16.118 9 9.40723 15.6808 9.40723 23.9288C9.40723 32.1767 16.118 38.8575 24.4035 38.8575Z" stroke="#F0F8FF" stroke-width="2" stroke-linejoin="round"/>
</svg>
