<svg width="49" height="49" viewBox="0 0 49 49" fill="none" xmlns="http://www.w3.org/2000/svg">
<g clip-path="url(#clip0_2202_35742)">
<g filter="url(#filter0_d_2202_35742)">
<path d="M8.96453 18.9824L2.40723 21.3152C2.40723 21.3152 6.90397 33.3677 16.316 28.8914" stroke="#FFE2A6" stroke-width="1.7615" stroke-linejoin="round"/>
<path d="M37.6191 8.76879L44.1764 6.43604C44.1764 6.43604 48.641 18.4886 38.4992 21" stroke="#FFE2A6" stroke-width="1.7615" stroke-linejoin="round"/>
<path d="M8.96453 18.9824L2.40723 21.3152C2.40723 21.3152 6.90397 33.3677 16.316 28.8914" stroke="#F9A90F" stroke-width="0.7046" stroke-linejoin="round"/>
<path d="M37.6191 8.76879L44.1764 6.43604C44.1764 6.43604 48.641 18.4886 38.4992 21" stroke="#F9A90F" stroke-width="0.7046" stroke-linejoin="round"/>
<path d="M40.8294 34.0508C40.8294 34.0508 39.0157 35.0175 37.2664 35.3222C35.517 35.627 31.6642 33.1891 32.9735 30.0263C44.7574 20.4326 35.3346 3 35.3346 3L21.136 8.0648L6.92676 13.1296C6.92676 13.1296 11.1445 32.4116 26.4699 32.3485C29.55 33.9457 28.1978 38.2434 26.6523 39.1051C25.1176 39.9667 23.0893 40.3765 23.0893 40.3765L24.8064 45L33.6711 41.8371L42.5358 38.6743L40.8294 34.0508ZM29.829 24.2364L27.6504 23.9107C27.2426 23.8476 26.8348 23.9947 26.5557 24.2995L25.1069 25.9282C24.4201 26.7058 23.1322 26.3065 22.9283 25.2662L22.5097 23.0806C22.4346 22.6708 22.1556 22.3135 21.7692 22.1348L19.7516 21.1996C18.7964 20.7478 18.7321 19.4028 19.6335 18.9089L21.5439 17.8792C21.9088 17.69 22.1449 17.3222 22.1878 16.9019L22.3917 14.6953C22.4883 13.6445 23.7332 13.2032 24.5059 13.9387L26.1157 15.4939C26.4162 15.7881 26.8455 15.9142 27.2426 15.8406L29.3783 15.4203C30.3978 15.2207 31.2349 16.2925 30.7949 17.2382L29.872 19.2242C29.7002 19.6024 29.7217 20.0438 29.9256 20.4116L31.0418 22.3555C31.5891 23.2907 30.8593 24.394 29.829 24.2364Z" fill="url(#paint0_radial_2202_35742)"/>
<path d="M34.5619 4.85989C36.3112 8.75832 41.0441 21.5464 32.0184 28.8914L31.7286 29.1331L31.5891 29.4799C30.9452 31.035 31.1383 32.6637 32.1042 34.0718C33.2096 35.669 35.2487 36.8354 36.9659 36.8354C37.1698 36.8354 37.363 36.8144 37.5454 36.7828C38.4147 36.6357 39.2733 36.3415 39.9816 36.0683L40.6255 37.7916L33.1774 40.4396L25.7294 43.0876L25.0854 41.3643C25.8045 41.1331 26.6523 40.8074 27.4143 40.3765C28.8309 39.5779 29.872 37.4343 29.8398 35.3958C29.8076 33.4834 28.8417 31.8967 27.1889 31.035L26.8562 30.8564H26.4806H26.4055C14.7183 30.8564 9.97467 18.1313 8.75121 14.0543L21.6619 9.45184L34.5619 4.85989ZM20.696 16.6497L18.9145 17.606C18.0023 18.0893 17.4549 19.0455 17.4871 20.0753C17.5193 21.1366 18.1418 22.0718 19.1077 22.5236L21.0395 23.4273L21.4473 25.5394C21.7048 26.8529 22.8639 27.8091 24.2162 27.8091C24.9996 27.8091 25.7401 27.4729 26.2552 26.8949L27.5968 25.3923L29.6144 25.697C29.7539 25.718 29.9042 25.7285 30.0437 25.7285C31.0096 25.7285 31.8896 25.2347 32.3833 24.4046C32.8984 23.5429 32.8984 22.5131 32.394 21.6305L31.3208 19.7601L32.2008 17.8581C32.5979 16.9965 32.5228 15.9982 31.9969 15.1891C31.471 14.3905 30.6017 13.9177 29.6573 13.9177C29.4749 13.9177 29.2924 13.9387 29.11 13.9702L27.1138 14.3695L25.5899 12.8984C25.064 12.3835 24.3664 12.0998 23.6366 12.0998C22.2092 12.0998 21.0395 13.1611 20.9107 14.5692L20.696 16.6497ZM35.3346 3L21.136 8.0648L6.92676 13.1296C6.92676 13.1296 11.1337 32.3485 26.3948 32.3485C26.427 32.3485 26.4484 32.3485 26.4699 32.3485C29.55 33.9457 28.1978 38.2434 26.6523 39.1051C25.1176 39.9667 23.0893 40.3765 23.0893 40.3765L24.8064 45L33.6711 41.8371L42.5358 38.6743L40.8187 34.0508C40.8187 34.0508 39.005 35.0175 37.2556 35.3222C37.159 35.3433 37.0517 35.3433 36.9337 35.3433C35.077 35.3433 31.7286 33.0105 32.9521 30.0263C44.7681 20.4326 35.3346 3 35.3346 3ZM24.2054 26.338C23.6259 26.338 23.0571 25.9387 22.9283 25.2767L22.5097 23.0911C22.4346 22.6813 22.1556 22.324 21.7692 22.1454L19.7516 21.2102C18.7964 20.7583 18.7321 19.4133 19.6335 18.9194L21.5439 17.8897C21.9088 17.7005 22.1449 17.3327 22.1878 16.9124L22.3917 14.7058C22.4561 14.0123 23.0249 13.5814 23.6152 13.5814C23.9264 13.5814 24.2376 13.697 24.4952 13.9492L26.105 15.5044C26.3518 15.7461 26.6738 15.8722 26.9958 15.8722C27.0709 15.8722 27.1567 15.8616 27.2319 15.8511L29.3676 15.4308C29.4534 15.4098 29.5393 15.4098 29.6144 15.4098C30.5159 15.4098 31.1813 16.387 30.7842 17.2592L29.8612 19.2452C29.6895 19.6235 29.711 20.0648 29.9149 20.4326L31.031 22.3765C31.5247 23.2382 30.9237 24.268 29.99 24.268C29.9256 24.268 29.8612 24.268 29.7968 24.2574L27.6182 23.9317C27.5538 23.9212 27.4894 23.9212 27.4358 23.9212C27.0924 23.9212 26.7597 24.0683 26.5235 24.331L25.0747 25.9597C24.8493 26.2014 24.5274 26.338 24.2054 26.338Z" fill="url(#paint1_linear_2202_35742)"/>
<path d="M34.5619 4.85989C36.3112 8.75832 41.0441 21.5464 32.0184 28.8914L31.7286 29.1331L31.5891 29.4799C30.9452 31.035 31.1383 32.6637 32.1042 34.0718C33.2096 35.669 35.2487 36.8354 36.9659 36.8354C37.1698 36.8354 37.363 36.8144 37.5454 36.7828C38.4147 36.6357 39.2733 36.3415 39.9816 36.0683L40.6255 37.7916L33.1774 40.4396L25.7294 43.0876L25.0854 41.3643C25.8045 41.1331 26.6523 40.8074 27.4143 40.3765C28.8309 39.5779 29.872 37.4343 29.8398 35.3958C29.8076 33.4834 28.8417 31.8967 27.1889 31.035L26.8562 30.8564H26.4806H26.4055C14.7183 30.8564 9.97467 18.1313 8.75121 14.0543L21.6619 9.45184L34.5619 4.85989ZM20.696 16.6497L18.9145 17.606C18.0023 18.0893 17.4549 19.0455 17.4871 20.0753C17.5193 21.1366 18.1418 22.0718 19.1077 22.5236L21.0395 23.4273L21.4473 25.5394C21.7048 26.8529 22.8639 27.8091 24.2162 27.8091C24.9996 27.8091 25.7401 27.4729 26.2552 26.8949L27.5968 25.3923L29.6144 25.697C29.7539 25.718 29.9042 25.7285 30.0437 25.7285C31.0096 25.7285 31.8896 25.2347 32.3833 24.4046C32.8984 23.5429 32.8984 22.5131 32.394 21.6305L31.3208 19.7601L32.2008 17.8581C32.5979 16.9965 32.5228 15.9982 31.9969 15.1891C31.471 14.3905 30.6017 13.9177 29.6573 13.9177C29.4749 13.9177 29.2924 13.9387 29.11 13.9702L27.1138 14.3695L25.5899 12.8984C25.064 12.3835 24.3664 12.0998 23.6366 12.0998C22.2092 12.0998 21.0395 13.1611 20.9107 14.5692L20.696 16.6497ZM35.3346 3L21.136 8.0648L6.92676 13.1296C6.92676 13.1296 11.1337 32.3485 26.3948 32.3485C26.427 32.3485 26.4484 32.3485 26.4699 32.3485C29.55 33.9457 28.1978 38.2434 26.6523 39.1051C25.1176 39.9667 23.0893 40.3765 23.0893 40.3765L24.8064 45L33.6711 41.8371L42.5358 38.6743L40.8187 34.0508C40.8187 34.0508 39.005 35.0175 37.2556 35.3222C37.159 35.3433 37.0517 35.3433 36.9337 35.3433C35.077 35.3433 31.7286 33.0105 32.9521 30.0263C44.7681 20.4326 35.3346 3 35.3346 3ZM24.2054 26.338C23.6259 26.338 23.0571 25.9387 22.9283 25.2767L22.5097 23.0911C22.4346 22.6813 22.1556 22.324 21.7692 22.1454L19.7516 21.2102C18.7964 20.7583 18.7321 19.4133 19.6335 18.9194L21.5439 17.8897C21.9088 17.7005 22.1449 17.3327 22.1878 16.9124L22.3917 14.7058C22.4561 14.0123 23.0249 13.5814 23.6152 13.5814C23.9264 13.5814 24.2376 13.697 24.4952 13.9492L26.105 15.5044C26.3518 15.7461 26.6738 15.8722 26.9958 15.8722C27.0709 15.8722 27.1567 15.8616 27.2319 15.8511L29.3676 15.4308C29.4534 15.4098 29.5393 15.4098 29.6144 15.4098C30.5159 15.4098 31.1813 16.387 30.7842 17.2592L29.8612 19.2452C29.6895 19.6235 29.711 20.0648 29.9149 20.4326L31.031 22.3765C31.5247 23.2382 30.9237 24.268 29.99 24.268C29.9256 24.268 29.8612 24.268 29.7968 24.2574L27.6182 23.9317C27.5538 23.9212 27.4894 23.9212 27.4358 23.9212C27.0924 23.9212 26.7597 24.0683 26.5235 24.331L25.0747 25.9597C24.8493 26.2014 24.5274 26.338 24.2054 26.338Z" fill="url(#paint2_linear_2202_35742)"/>
<path d="M24.8162 44.9895L23.099 40.366C23.099 40.366 25.1167 39.9667 26.6621 39.0946C28.2075 38.2224 29.549 33.9352 26.4796 32.338C11.1435 32.4116 6.92578 13.1296 6.92578 13.1296L21.1351 8.0648L35.3336 3C35.3336 3 44.7564 20.4326 32.9726 30.0263C31.6632 33.1891 35.5161 35.627 37.2654 35.3222C39.0147 35.0175 40.8284 34.0508 40.8284 34.0508L42.5456 38.6743L33.6809 41.8371L24.8162 44.9895ZM22.4015 14.7058L22.1975 16.9124C22.1546 17.3328 21.9185 17.69 21.5536 17.8897L19.6433 18.9194C18.7311 19.4028 18.7955 20.7583 19.7614 21.2102L21.779 22.1454C22.1546 22.324 22.4336 22.6813 22.5195 23.0911L22.9381 25.2767C23.142 26.317 24.4298 26.7058 25.1167 25.9387L26.5655 24.31C26.8445 24.0053 27.2524 23.8581 27.6602 23.9212L29.8388 24.2469C30.8798 24.4046 31.5988 23.2907 31.073 22.366L29.9568 20.4221C29.7422 20.0543 29.7207 19.613 29.9032 19.2347L30.8261 17.2487C31.2662 16.303 30.4291 15.2312 29.4095 15.4308L27.2738 15.8511C26.866 15.9352 26.4474 15.7986 26.1469 15.5044L24.5371 13.9492C23.743 13.2032 22.498 13.655 22.4015 14.7058Z" stroke="#FFE2A6" stroke-width="1.0569" stroke-linejoin="round"/>
<path d="M11.3682 14.3696C12.1623 15.8302 12.935 17.2488 13.74 18.6358C14.5556 20.0229 15.3712 21.3994 16.3049 22.6814C17.2171 23.9738 18.2152 25.2138 19.3206 26.3591C20.4475 27.473 21.6924 28.4712 23.1091 29.3644C21.4563 29.0386 19.8894 28.24 18.5265 27.2103C17.1742 26.1595 16.0474 24.8775 15.06 23.522C14.0941 22.1455 13.3107 20.6638 12.6775 19.1297C12.055 17.5955 11.5613 16.0089 11.3682 14.3696Z" fill="white"/>
</g>
<path d="M42.5442 26.6424C42.7267 26.8526 42.9198 27.0417 43.1345 27.2203C42.9198 27.399 42.7267 27.5881 42.5442 27.7983C42.3618 27.5881 42.1686 27.399 41.954 27.2203C42.1686 27.0417 42.3725 26.8526 42.5442 26.6424ZM42.5442 23.4375C42.5442 25.5181 40.8056 27.2203 38.6807 27.2203C40.8056 27.2203 42.5442 28.9226 42.5442 31.0032C42.5442 28.9226 44.2828 27.2203 46.4078 27.2203C44.2828 27.2203 42.5442 25.5181 42.5442 23.4375Z" fill="url(#paint3_linear_2202_35742)"/>
<path d="M13.764 38.202C13.9894 38.4647 14.2362 38.7064 14.5045 38.9271C14.2362 39.1477 13.9894 39.3894 13.764 39.6521C13.5386 39.3894 13.2918 39.1477 13.0235 38.9271C13.2918 38.7064 13.5386 38.4647 13.764 38.202ZM13.764 34.167C13.764 36.7835 11.5854 38.9271 8.90234 38.9271C11.5746 38.9271 13.764 41.0602 13.764 43.6871C13.764 41.0707 15.9426 38.9271 18.6256 38.9271C15.9533 38.9271 13.764 36.7835 13.764 34.167Z" fill="url(#paint4_linear_2202_35742)"/>
</g>
<defs>
<filter id="filter0_d_2202_35742" x="-2.47363" y="-0.52832" width="52.5093" height="51.0464" filterUnits="userSpaceOnUse" color-interpolation-filters="sRGB">
<feFlood flood-opacity="0" result="BackgroundImageFix"/>
<feColorMatrix in="SourceAlpha" type="matrix" values="0 0 0 0 0 0 0 0 0 0 0 0 0 0 0 0 0 0 127 0" result="hardAlpha"/>
<feOffset dy="1"/>
<feGaussianBlur stdDeviation="2"/>
<feComposite in2="hardAlpha" operator="out"/>
<feColorMatrix type="matrix" values="0 0 0 0 0.096875 0 0 0 0 0.242805 0 0 0 0 0.375 0 0 0 0.64 0"/>
<feBlend mode="normal" in2="BackgroundImageFix" result="effect1_dropShadow_2202_35742"/>
<feBlend mode="normal" in="SourceGraphic" in2="effect1_dropShadow_2202_35742" result="shape"/>
</filter>
<radialGradient id="paint0_radial_2202_35742" cx="0" cy="0" r="1" gradientUnits="userSpaceOnUse" gradientTransform="translate(10.9275 14.5814) scale(30.7933 30.1499)">
<stop stop-color="#F3F400"/>
<stop offset="0.0143" stop-color="#F3F101"/>
<stop offset="0.1647" stop-color="#F6D207"/>
<stop offset="0.311" stop-color="#F8BB0B"/>
<stop offset="0.4502" stop-color="#F9AE0E"/>
<stop offset="0.5743" stop-color="#F9A90F"/>
<stop offset="0.7791" stop-color="#DB7800"/>
<stop offset="0.8392" stop-color="#E08002"/>
<stop offset="0.9296" stop-color="#EC9409"/>
<stop offset="1" stop-color="#F9A90F"/>
</radialGradient>
<linearGradient id="paint1_linear_2202_35742" x1="6.92568" y1="23.9959" x2="42.5507" y2="23.9959" gradientUnits="userSpaceOnUse">
<stop offset="0.00803213" stop-color="#CF6400"/>
<stop offset="0.1337" stop-color="#D06600"/>
<stop offset="0.1992" stop-color="#D56E02"/>
<stop offset="0.2509" stop-color="#DD7C05"/>
<stop offset="0.295" stop-color="#E98E09"/>
<stop offset="0.3344" stop-color="#F8A70F"/>
<stop offset="0.3373" stop-color="#F9A90F"/>
<stop offset="0.5843" stop-color="#F9AB0F"/>
<stop offset="0.7131" stop-color="#F8B30D"/>
<stop offset="0.8146" stop-color="#F7C10A"/>
<stop offset="0.9019" stop-color="#F6D406"/>
<stop offset="0.9793" stop-color="#F4EC02"/>
<stop offset="1" stop-color="#F3F400"/>
</linearGradient>
<linearGradient id="paint2_linear_2202_35742" x1="6.92568" y1="23.9959" x2="42.5507" y2="23.9959" gradientUnits="userSpaceOnUse">
<stop stop-color="#ED9515"/>
<stop offset="0.3486" stop-color="#ED9714"/>
<stop offset="0.5304" stop-color="#EE9F13"/>
<stop offset="0.6737" stop-color="#EEAD10"/>
<stop offset="0.7968" stop-color="#F0C00C"/>
<stop offset="0.906" stop-color="#F1D806"/>
<stop offset="1" stop-color="#F3F400"/>
</linearGradient>
<linearGradient id="paint3_linear_2202_35742" x1="38.6839" y1="27.2192" x2="46.4129" y2="27.2192" gradientUnits="userSpaceOnUse">
<stop stop-color="#ED9515"/>
<stop offset="0.3486" stop-color="#ED9714"/>
<stop offset="0.5304" stop-color="#EE9F13"/>
<stop offset="0.6737" stop-color="#EEAD10"/>
<stop offset="0.7968" stop-color="#F0C00C"/>
<stop offset="0.906" stop-color="#F1D806"/>
<stop offset="1" stop-color="#F3F400"/>
</linearGradient>
<linearGradient id="paint4_linear_2202_35742" x1="8.90717" y1="38.9258" x2="18.6283" y2="38.9258" gradientUnits="userSpaceOnUse">
<stop stop-color="#ED9515"/>
<stop offset="0.3486" stop-color="#ED9714"/>
<stop offset="0.5304" stop-color="#EE9F13"/>
<stop offset="0.6737" stop-color="#EEAD10"/>
<stop offset="0.7968" stop-color="#F0C00C"/>
<stop offset="0.906" stop-color="#F1D806"/>
<stop offset="1" stop-color="#F3F400"/>
</linearGradient>
<clipPath id="clip0_2202_35742">
<rect width="48" height="49" fill="white" transform="translate(0.407227)"/>
</clipPath>
</defs>
</svg>
