<svg width="43" height="42" viewBox="0 0 43 42" fill="none" xmlns="http://www.w3.org/2000/svg">
<path d="M7.53791 16.2266L1.40723 18.4488C1.40723 18.4488 5.60769 29.9286 14.4287 25.6635" stroke="white" stroke-width="2" stroke-linejoin="round"/>
<path d="M30.68 37.9905L38.9809 34.9811L37.3707 30.5765C37.3707 30.5765 35.6705 31.4933 34.0404 31.7823C32.4002 32.0713 28.7998 29.7494 30.0199 26.7399C41.0511 17.6019 32.2302 1 32.2302 1L18.9287 5.82312L5.63721 10.6462C5.63721 10.6462 9.58765 29.012 23.9292 28.9522C26.8096 30.4768 25.5394 34.5625 24.0993 35.3896C22.6591 36.2167 20.7689 36.5954 20.7689 36.5954L22.3791 41L30.68 37.9905Z" stroke="white" stroke-width="2" stroke-linejoin="round"/>
<path d="M34.3608 6.50054L40.4915 4.27832C40.4915 4.27832 44.672 15.7581 35.1709 18.1498" stroke="white" stroke-width="2" stroke-linejoin="round"/>
<path d="M22.0894 11.4332L23.5896 12.918C23.8696 13.1971 24.2696 13.3166 24.6497 13.2469L26.6499 12.8483C27.6 12.6589 28.3901 13.6853 27.98 14.5822L27.1199 16.4756C26.9599 16.8343 26.9799 17.2529 27.17 17.6016L28.2101 19.4552C28.7101 20.3321 28.02 21.3884 27.0599 21.2489L25.0197 20.94C24.6397 20.8802 24.2496 21.0197 23.9996 21.3087L22.6394 22.8533C21.9894 23.5907 20.7892 23.222 20.5992 22.2255L20.1992 20.1427C20.1292 19.7441 19.8691 19.4153 19.5091 19.2459L17.6289 18.349C16.7288 17.9205 16.6688 16.635 17.5189 16.1766L19.3091 15.2C19.6491 15.0107 19.8691 14.6719 19.9091 14.2733L20.0992 12.1706C20.2092 11.1542 21.3793 10.7257 22.0894 11.4332Z" stroke="white" stroke-width="2" stroke-linejoin="round"/>
</svg>
