<svg width="260" height="260" viewBox="0 0 260 260" fill="none" xmlns="http://www.w3.org/2000/svg">
<g id="ScanArea">
<path id="Vector 42" d="M2 32L2 12C2 6.47715 6.47715 2 12 2L33 2" stroke="#0F63AE" stroke-width="4" stroke-linecap="round"/>
<path id="Vector 47" d="M162.5 2L98.5 2" stroke="#0F63AE" stroke-width="4" stroke-linecap="round"/>
<path id="Vector 41" d="M228 2H248C253.523 2 258 6.47715 258 12V33" stroke="#0F63AE" stroke-width="4" stroke-linecap="round"/>
<path id="Vector 47_2" d="M2 103V156.5" stroke="#0F63AE" stroke-width="4" stroke-linecap="round"/>
<path id="Vector 46" d="M258 103V156.5" stroke="#0F63AE" stroke-width="4" stroke-linecap="round"/>
<path id="Vector 43" d="M32 258L12 258C6.47715 258 2 253.523 2 248L2 227" stroke="#0F63AE" stroke-width="4" stroke-linecap="round"/>
<path id="Vector 47_3" d="M161.5 258L97.5 258" stroke="#0F63AE" stroke-width="4" stroke-linecap="round"/>
<path id="Vector 44" d="M258 228L258 248C258 253.523 253.523 258 248 258L227 258" stroke="#0F63AE" stroke-width="4" stroke-linecap="round"/>
</g>
</svg>
